<?xml version="1.0" encoding="UTF-8"?>
<svg xmlns="http://www.w3.org/2000/svg" xmlns:xlink="http://www.w3.org/1999/xlink" version="1.2" >
<font id="Neretto Sans Round">
<font-face  font-family="Neretto Sans" units-per-em="1000" ascent="973" descent="-49" font-style="normal" font-weight="400" font-stretch="normal" cap-height="968" x-height="959" underline-position="10" underline-thickness="0" />
<missing-glyph  horiz-adv-x="507" d="" />
<glyph glyph-name="NULL" d="" />
<glyph glyph-name="CR" unicode="&#xd;" horiz-adv-x="250" d="" />
<glyph glyph-name="space" unicode="&#x20;" horiz-adv-x="507" d="" />
<glyph glyph-name="exclam" unicode="&#x21;" horiz-adv-x="549" d="M140 434 L409 434 C425.559 434 439 447.441 439 464 L439 912 C439 928.559 425.559 942 409 942 L140 942 C123.441 942 110 928.559 110 912 L110 464 C110 447.441 123.441 434 140 434 L140 434 Z M111 166 C111 75 188 1 275 1 C367 1 441 75 441 166 C441 256 367 331 275 331 C188 331 111 256 111 166 L111 166 Z " />
<glyph glyph-name="quotedbl" unicode="&#x22;" horiz-adv-x="789" d="M185.252 513 L274.574 513 C287.777 513 301.275 523.99 303.952 536.918 L357.418 795.188 C357.479 795.482 358.034 800.571 358.038 800.872 L359.597 918.603 C359.82 935.38 346.378 949 329.6 949 L141 949 C124.441 949 111 935.559 111 919 L111 798.578 C111 798.335 111.398 793.699 111.44 793.46 L155.692 537.882 C158.035 524.349 171.518 513 185.252 513 L185.252 513 Z M513.764 513 L603.065 513 C616.596 513 630.085 524.212 632.559 537.515 L680.531 795.478 C680.575 795.714 681.031 800.325 681.034 800.565 L682.597 918.603 C682.82 935.38 669.378 949 652.6 949 L464 949 C447.441 949 434 935.559 434 919 L434 800.868 C434 800.568 434.487 795.478 434.543 795.184 L484.308 537.315 C486.851 524.137 500.343 513 513.764 513 L513.764 513 Z " />
<glyph glyph-name="numbersign" unicode="&#x23;" horiz-adv-x="1264" d="M608.009 4 L825.944 4 C837.564 4 851.113 13.9608 854.579 25.0518 L901.421 174.948 C904.887 186.039 918.436 196 930.056 196 L1037.97 196 C1050.25 196 1063.78 206.384 1066.95 218.245 L1107.9 371.245 C1113.28 391.376 1099.76 409 1078.92 409 L1006.2 409 C984.931 409 971.389 427.148 977.445 447.54 L1008.63 552.54 C1012 563.895 1025.54 574 1037.39 574 L1145.37 574 C1157.38 574 1170.92 584.21 1174.22 595.758 L1215.07 738.758 C1220.87 759.054 1207.34 777 1186.23 777 L1112.15 777 C1090.89 777 1077.35 795.12 1083.38 815.5 L1112.62 914.5 C1118.65 934.88 1105.11 953 1083.85 953 L866.418 953 C854.551 953 841.01 942.881 837.648 931.5 L798.352 798.5 C794.99 787.119 781.449 777 769.582 777 L672.146 777 C650.895 777 637.354 795.12 643.375 815.5 L672.625 914.5 C678.646 934.88 665.105 953 643.854 953 L425.541 953 C413.591 953 400.052 942.828 396.726 931.35 L358.274 798.65 C354.948 787.172 341.409 777 329.459 777 L228.737 777 C216.654 777 203.12 766.743 199.854 755.11 L159.701 612.11 C154.014 591.858 167.548 574 188.584 574 L253.796 574 C275.069 574 288.611 555.852 282.555 535.46 L251.373 430.46 C248.001 419.105 234.459 409 222.614 409 L122.923 409 C110.715 409 97.1848 398.662 93.9773 386.882 L52.3153 233.882 C46.8216 213.707 60.3516 196 81.2613 196 L146.194 196 C167.693 196 181.241 177.571 174.829 157.052 L139.171 42.9482 C132.759 22.4286 146.307 4 167.806 4 L385.054 4 C396.599 4 410.149 13.9131 413.645 24.9162 L461.355 175.084 C464.851 186.087 478.401 196 489.946 196 L586.991 196 C608.564 196 622.115 177.477 615.583 156.916 L579.417 43.0838 C572.885 22.5234 586.436 4 608.009 4 L608.009 4 Z M596.386 574 L694.029 574 C715.214 574 728.752 555.961 722.835 535.62 L692.289 430.62 C688.956 419.161 675.417 409 663.484 409 L565.204 409 C543.931 409 530.389 427.148 536.445 447.54 L567.627 552.54 C570.999 563.895 584.541 574 596.386 574 L596.386 574 Z " />
<glyph glyph-name="dollar" unicode="&#x24;" horiz-adv-x="934" d="M625 -56 L625 -6.60089 C625 6.2447 635.692 20.6304 648.21 23.5111 C793 56.83 894.65 179 888 312 C888 350 870 590 547 590 C409 590 363 621 363 654 C364 687 398 707 465 707 C514 707 545 691 562 674 C571.059 665.765 577.405 656.851 581.597 647.818 C582.715 645.409 587.196 641.965 589.852 641.937 L861 639 C864 639 861 701 828 773 C797.475 843.3 725.024 905.044 640.723 934.488 C629.761 938.316 620.389 952.926 620.767 964.531 L621.99 1002.02 C622.547 1019.11 609.105 1033 592.006 1033 L348.351 1033 C331.599 1033 318.158 1019.4 318.353 1002.65 L318.703 972.542 C318.853 959.68 309.607 945.478 297.104 942.461 C207.798 920.91 128.225 864.3 94 794 C58 722 57 647 57 607 C57 521 131 348 493 348 C548 348 571 330 571 310 C571 279 532 247 465 247 C410 247 384 263 369 278 C361.688 285.312 357.016 293.945 354.984 303.898 C354.363 306.942 350.587 311.012 347.481 311.023 L92.6757 311.911 C77.6083 311.963 65.7559 303.265 64.9311 288.22 C62.3875 241.822 68.55 187.55 100 134 C134.225 77.575 212.087 35.6956 301.927 17.0679 C315.171 14.3219 323.747 0.460004 323.473 -13.0626 L322.618 -55.3941 C322.277 -72.2842 335.719 -86 352.612 -86 L595 -86 C611.559 -86 625 -72.5591 625 -56 L625 -56 Z " />
<glyph glyph-name="percent" unicode="&#x25;" horiz-adv-x="1206" d="M160.43 -1 L408.856 -1 C415.581 -1 428.999 5.77332 432.993 11.1844 L1070.71 875.184 C1086.38 896.419 1072.96 923 1046.57 923 L798.144 923 C791.419 923 778.001 916.227 774.007 910.816 L136.292 46.8156 C120.619 25.5806 134.037 -1 160.43 -1 L160.43 -1 Z M157 582 C238 504 358 503 437 582 C514 659 513 787 437 863 C360 943 236 942 157 863 C81 787 80 659 157 582 L157 582 Z M770 57 C845 -21 972 -22 1051 57 C1124 135 1124 259 1051 338 C970 417 848 416 770 338 C691 262 692 132 770 57 L770 57 Z " />
<glyph glyph-name="ampersand" unicode="&#x26;" horiz-adv-x="962" d="M850.632 561.97 C806.876 561.74 601.201 560.377 574.78 563.711 C574.775 563.712 566.4 564.639 566.396 564.639 C480.507 573.463 394 602.25 394 651 C394 662.2 396.613 672.529 401.027 681.174 C401.14 681.395 402.689 683.93 402.838 684.128 C413.916 698.839 432.075 715 474 715 C562.375 715 571.891 657.578 572.889 626.475 C573.103 619.797 578.813 615.246 585.489 615.528 L828.266 625.786 C845.583 626.518 857.228 638.894 855.689 656.157 C846.86 755.22 785.3 948 437 948 C169 948 93 797 93 664 C93 601.95 125.513 518.947 162.902 492.372 C164.405 491.304 164.217 476.913 162.698 475.867 C125.345 450.14 95 369.9 95 307 C95 168 172 0 437 0 C490.625 0 534.744 4.75312 574.917 12.4057 C575.205 12.4604 580.607 13 580.899 13 L827.055 13 C843.584 13 857.024 26.4164 857.055 42.9454 L857.985 554 C857.994 558.439 855.071 561.993 850.632 561.97 L850.632 561.97 Z M393.654 312.701 C392.502 378.447 498.108 349.485 558.84 344.64 C565.701 344.093 573.091 339.345 572.561 332.482 C570.141 301.188 555.375 243 474 243 C432.075 243 413.916 258.21 402.838 272.873 C402.686 273.075 401.142 275.601 401.027 275.827 C396.929 283.858 394.383 293.391 394.04 304.427 C394.04 304.428 393.654 312.699 393.654 312.701 L393.654 312.701 Z " />
<glyph glyph-name="quotesingle" unicode="&#x27;" horiz-adv-x="419" d="M164 513 L251.354 513 C261.998 513 275.573 522.342 279.375 532.283 L379.094 793.016 C379.457 793.965 381.057 802.32 381.071 803.335 L382.597 918.603 C382.82 935.38 369.378 949 352.6 949 L164 949 C147.441 949 134 935.559 134 919 L134 543 C134 526.441 147.441 513 164 513 L164 513 Z " />
<glyph glyph-name="parenleft" unicode="&#x28;" horiz-adv-x="531" d="M453.145 -109.102 C433.361 -65.805 415.5 -17.625 399 36 C366 147 333 301 333 490 C333 683 366 831 399 935 C415.5 983.675 433.361 1028.27 453.145 1068.21 C458.651 1079.33 452.229 1093 439.823 1093 L303.614 1093 C300.329 1093 289.328 1089.63 286.695 1087.67 C240.71 1053.38 200.05 1009.2 163 956 C99 860 32 710 32 491 C32 259 99 103 163 4 C200.05 -51.1 240.71 -96.2725 286.695 -130.66 C289.336 -132.635 300.316 -136 303.614 -136 L438.049 -136 C451.547 -136 458.755 -121.378 453.145 -109.102 L453.145 -109.102 Z " />
<glyph glyph-name="parenright" unicode="&#x29;" horiz-adv-x="531" d="M244.312 -130.66 C290.385 -96.2725 331.9 -51.1 368 4 C434 102 499 260 499 491 C499 709 434 861 368 956 C331.9 1009.2 290.385 1053.38 244.312 1087.67 C241.685 1089.62 230.662 1093 227.386 1093 L91.1773 1093 C78.7386 1093 72.3625 1079.34 77.9305 1068.21 C97.9275 1028.27 116.325 983.675 132 935 C165 831 198 683 198 490 C198 301 165 147 132 36 C116.325 -17.625 97.9275 -65.805 77.9305 -109.102 C72.2561 -121.388 79.4178 -136 92.9508 -136 L227.386 -136 C230.675 -136 241.677 -132.627 244.312 -130.66 L244.312 -130.66 Z " />
<glyph glyph-name="asterisk" unicode="&#x2a;" horiz-adv-x="589" d="M407.168 429.716 L496.354 492.945 C508.817 501.78 512.591 519.712 504.748 532.821 L471.276 588.767 C459.773 607.994 469.65 629.721 491.701 633.694 L534.793 641.458 C548.534 643.934 559.757 657.648 559.467 671.608 L557.58 762.149 C557.261 777.48 544.495 790.666 529.182 791.481 L412.864 797.676 C399.375 798.394 386.5 810.292 384.721 823.682 L372.461 915.951 C370.567 930.204 357.1 942 342.722 942 L245.096 942 C230.831 942 217.361 930.283 215.385 916.155 L202.423 823.471 C200.568 810.214 187.693 798.391 174.326 797.67 L60.5836 791.54 C44.8237 790.691 32.0892 777.158 32.1988 761.376 L32.8245 671.273 C32.92 657.526 44.3718 644.122 57.9358 641.882 L99.2814 635.054 C121.358 631.409 131.558 609.871 120.389 590.482 L83.9023 527.136 C76.2497 513.85 80.3573 495.963 93.0393 487.347 L178.73 429.13 C190.951 420.827 208.871 423.255 218.442 434.509 L269.394 494.42 C281.731 508.925 302.398 509.036 314.89 494.664 L367.174 434.509 C376.966 423.244 394.991 421.083 407.168 429.716 L407.168 429.716 Z " />
<glyph glyph-name="plus" unicode="&#x2b;" horiz-adv-x="1000" d="M959.094 644 L693 644 C676.441 644 663 657.441 663 674 L663 918 C663 934.559 649.559 948 633 948 L365 948 C348.441 948 335 934.559 335 918 L335 674 C335 657.441 321.559 644 305 644 L41.8101 644 C25.3562 644 11.9152 630.644 11.8107 614.19 L10.1893 358.821 C10.0848 342.361 23.3603 328.836 39.8195 328.633 L305.555 325.362 C321.805 325.162 335.083 311.804 335.185 295.553 L336.814 36.5382 C336.917 20.236 350.236 6.8782 366.538 6.72818 L632.724 4.27861 C649.435 4.12483 663 17.5659 663 34.2773 L663 295.183 C663 311.641 676.359 325.082 692.817 325.182 L960.089 326.817 C976.599 326.918 989.958 340.401 989.906 356.911 L989.094 614.095 C989.042 630.601 975.601 644 959.094 644 L959.094 644 Z " />
<glyph glyph-name="comma" unicode="&#x2c;" horiz-adv-x="419" d="M164 -211 L251.354 -211 C261.998 -211 275.573 -201.658 279.375 -191.717 L379.093 69.0149 C379.456 69.9639 381.057 78.3208 381.07 79.3368 L382.6 195.605 C382.821 212.381 369.38 226 352.603 226 L164 226 C147.441 226 134 212.559 134 196 L134 -181 C134 -197.559 147.441 -211 164 -211 L164 -211 Z " />
<glyph glyph-name="hyphen" unicode="&#x2d;" horiz-adv-x="1100" d="M936.094 644 L164.81 644 C148.356 644 134.915 630.644 134.811 614.19 L133.191 359.118 C133.086 342.494 146.494 328.968 163.119 328.928 L936.833 327.072 C953.484 327.032 966.957 340.516 966.905 357.167 L966.094 614.095 C966.042 630.601 952.601 644 936.094 644 L936.094 644 Z " />
<glyph glyph-name="period" unicode="&#x2e;" horiz-adv-x="414" d="M63 145 C63 64 129 1 207 1 C285 1 351 64 351 145 C351 224 285 288 207 288 C129 288 63 224 63 145 L63 145 Z " />
<glyph glyph-name="slash" unicode="&#x2f;" horiz-adv-x="1014" d="M956.056 966 L695.532 966 C688.531 966 675.076 959.033 671.035 953.316 L33.4462 51.3165 C18.3708 29.9893 31.8266 4 57.9439 4 L318.468 4 C325.469 4 338.924 10.9666 342.965 16.6835 L980.554 918.684 C995.629 940.011 982.173 966 956.056 966 L956.056 966 Z " />
<glyph glyph-name="zero" unicode="0" horiz-adv-x="1082" d="M62 478 C62 213 278 -1 541 -1 C804 -1 1020 213 1020 478 C1020 741 804 956 541 956 C278 956 62 741 62 478 L62 478 Z M539 271 C462 271 358 327 358 468 C358 608 472 665 537 665 C608 665 726 625 734 466 C739 327 625 271 539 271 L539 271 Z " />
<glyph glyph-name="one" unicode="1" horiz-adv-x="792" d="M164 724 L238 724 C254.559 724 268 710.559 268 694 L268 285 C268 268.441 254.559 255 238 255 L164 255 C147.441 255 134 241.559 134 225 L134 32 C134 15.4409 147.441 2 164 2 L708 2 C724.559 2 738 15.4409 738 32 L738 225 C738 241.559 724.559 255 708 255 L627 255 C610.441 255 597 268.441 597 285 L597 919 C597 935.559 583.559 949 567 949 L164 949 C147.441 949 134 935.559 134 919 L134 754 C134 737.441 147.441 724 164 724 L164 724 Z " />
<glyph glyph-name="two" unicode="2" horiz-adv-x="960" d="M371.281 635.578 C373.031 670.797 385.5 742 473 742 C526 742 551 722 562 699 C569 687 573 673 573 656 C573 491 86 626 86 104 L86 30 C86 13.4409 99.4409 0 116 0 L817.738 0 C833.885 0 847.326 13.1114 847.728 29.2533 L852.235 210.253 C852.657 227.219 839.215 241 822.244 241 L432 241 C406.114 241 394.842 242.714 409.422 264.103 C468.846 351.273 865 352.175 865 638 C865 694 867 979 502 979 C275 979 174 887 134 795 C112.75 749.1 103.06 698.143 103.702 642.127 C103.897 625.075 116.989 612.496 134.028 613.2 L358.011 622.463 C364.804 622.744 370.944 628.787 371.281 635.578 L371.281 635.578 Z " />
<glyph glyph-name="three" unicode="3" horiz-adv-x="911" d="M56.285 291.843 C64.97 192.78 125.9 0 476 0 C739 0 817 168 817 307 C817 370.75 783.765 454.007 746.159 477.55 C746.159 477.55 746.197 486.12 746.197 486.12 L746.242 482.12 C746.242 482.12 746.28 490.689 746.28 490.689 C784.32 515.08 819 601.1 819 664 C819 797 740 948 476 948 C125.9 948 64.97 755.22 56.285 656.157 C54.7734 638.915 66.4413 626.517 83.7335 625.786 L326.511 615.528 C333.187 615.246 338.897 619.797 339.111 626.475 C340.109 657.578 349.625 715 438 715 C481 715 499 698 510 683 C516 674 519 663 519 651 C519 596.1 410.46 567.93 315.123 562.845 C299.468 562.01 284 547.677 284 532 L284 426 C284 410.642 295.732 397.036 311.078 396.414 C385.234 393.406 526 377 519 307 C518.996 306.962 518.961 304.465 518.96 304.427 C518.587 292.542 515.6 282.4 510 274 C499 259 481 243 438 243 C354 243 341.203 304.25 339.316 334.971 C338.951 340.927 333.489 345.515 327.544 344.992 L82.3693 323.409 C65.8799 321.958 54.8393 308.333 56.285 291.843 L56.285 291.843 Z " />
<glyph glyph-name="four" unicode="4" horiz-adv-x="844" d="M41 229 L324 229 C340.559 229 354 215.559 354 199 L354 34 C354 17.4409 367.441 4 384 4 L645 4 C661.559 4 675 17.4409 675 34 L675 199 C675 215.559 688.441 229 705 229 L758 229 C774.559 229 788 242.441 788 259 L788 457 C788 473.559 774.559 487 758 487 L705 487 C688.441 487 675 500.441 675 517 L675 957 C675 973.559 661.559 987 645 987 L379.773 987 C372.601 987 359.124 979.915 355.059 974.006 L16.2858 481.682 C14.6319 479.278 11 467.593 11 464.676 L11 259 C11 242.441 24.4409 229 41 229 L41 229 Z M303.562 491.046 L333.376 545.985 C342.989 563.699 370.349 556.136 369.5 536 L367.242 482.446 C366.556 466.195 352.797 453.322 336.537 453.719 L325 454 C304.852 454.491 293.949 473.333 303.562 491.046 L303.562 491.046 Z " />
<glyph glyph-name="five" unicode="5" horiz-adv-x="940" d="M79.2125 290.855 C79.6375 242.235 90.9 197.95 113 158 C159 79 257 0 486 0 C851 0 850 292 850 351 C850 530.55 715.527 648.73 414.86 643.809 C395.579 643.493 368.613 659.422 371.474 678.492 L374.168 696.45 C376.26 710.397 389.733 722 403.836 722 L791.873 722 C808.502 722 821.943 735.498 821.873 752.127 L821.126 929.127 C821.056 945.616 807.616 959 791.126 959 L193.881 959 C179.75 959 166.277 947.377 164.205 933.398 L94.0618 460.151 C91.2952 441.485 104.654 425.888 123.523 425.753 L369 424 C549 424 567 386 567 303 C567 302.703 566.591 300.764 566.535 300.472 C563.49 284.605 558.55 271.4 550 260 C534 237 506 217 453 217 C364.625 217 355.875 273.656 355.068 304.568 C354.893 311.285 349.219 316.021 342.5 316.045 L108.137 316.898 C91.3732 316.959 79.066 307.618 79.2125 290.855 L79.2125 290.855 Z " />
<glyph glyph-name="six" unicode="6" horiz-adv-x="909" d="M794.962 924.482 C662.438 957.827 543.45 965 438 946 C248 914 61 787 61 415 C60 334 75 263 104 200 C155 93 261 -10 488 3 C853 23 837 313 833 372 C822.55 550.6 629.795 638.047 373.91 564.038 C349.124 556.869 333.685 570.718 341.572 595.285 C371.5 688.5 467.75 713 564 713 C619.25 713 679.558 705.053 744.922 689.158 C762.443 684.897 782.364 695.698 785.05 713.528 L812.013 892.531 C814.241 907.319 809.466 920.833 794.962 924.482 L794.962 924.482 Z M444 218 C346 218 337.578 333.609 334.994 387.969 C334.51 398.154 338.364 408.336 348.219 410.953 C529.758 459.146 582.725 383.9 572 302 C567 260 539 218 444 218 L444 218 Z " />
<glyph glyph-name="seven" unicode="7" horiz-adv-x="832" d="M95.137 689.162 L437.585 679.307 C460.638 678.644 473.625 657.688 463.96 636.748 L190.648 44.5717 C180.801 23.2362 194.389 2 217.887 2 L446.533 2 C455.634 2 469.219 10.3622 473.318 18.4872 L797.784 661.626 C798.584 663.211 801 673.364 801 675.139 L801 919.713 C801 936.43 787.43 949.871 770.714 949.712 L95.7143 943.283 C79.3136 943.127 66 929.686 66 913.284 L66 719.149 C66 703.066 79.0609 689.624 95.137 689.162 L95.137 689.162 Z " />
<glyph glyph-name="eight" unicode="8" horiz-adv-x="963" d="M100 683 C100 627.725 120.419 577.214 156.764 534.837 C166.866 523.059 168.964 498.411 157.836 487.598 C104.625 435.891 74 372.125 74 303 C74 134 258 -1 483 -1 C709 -1 895 134 895 303 C895 373.875 862.078 438.625 806.283 490.551 C795.195 500.87 795.32 526.105 804.92 537.821 C839.581 580.122 860 630.2 860 683 C860 839 689 965 479 965 C270 965 100 839 100 683 L100 683 Z M484 212 C442 212 379 237 379 297 C379 355 447 381 483 381 C526 381 595 363 600 296 C603 237 535 212 484 212 L484 212 Z M479 610 C439 610 381 634 381 687 C381 744 442 767 478 767 C515 767 580 751 583 687 C586 633 525 610 479 610 L479 610 Z " />
<glyph glyph-name="nine" unicode="9" horiz-adv-x="898" d="M142.155 29.1483 C265.216 -1.18125 377.025 -7.425 476 12 C657 44 839 174 839 545 C839 626 824 697 795 760 C741 867 640 968 411 957 C47 937 62 647 66 588 C76.45 410.35 270.108 322.048 525.225 395.969 C549.814 403.094 565.16 388.826 557.703 364.336 C529.047 270.219 438.375 244.625 350 242 C299 241.15 242.942 247.525 181.213 262.353 C163.776 266.542 145.58 255.272 142.853 237.547 L116.066 63.4271 C113.772 48.5152 127.506 32.7587 142.155 29.1483 L142.155 29.1483 Z M455 742 C553.875 742 561.641 626.391 564.047 572.031 C564.496 561.886 560.664 551.665 550.852 549.047 C370.192 500.854 316.275 576.1 327 658 C332 701 361 742 455 742 L455 742 Z " />
<glyph glyph-name="colon" unicode="&#x3a;" horiz-adv-x="436" d="M76 145 C76 64 141 1 220 1 C299 1 363 64 363 145 C363 224 299 288 220 288 C141 288 76 224 76 145 L76 145 Z M76 623 C76 545 141 479 220 479 C299 479 363 545 363 623 C363 701 299 767 220 767 C141 767 76 701 76 623 L76 623 Z " />
<glyph glyph-name="semicolon" unicode="&#x3b;" horiz-adv-x="398" d="M75 623 C75 545 140 479 219 479 C298 479 362 545 362 623 C362 701 298 767 219 767 C140 767 75 701 75 623 L75 623 Z M128 -211 L215.354 -211 C225.998 -211 239.573 -201.658 243.375 -191.717 L343.093 69.0149 C343.456 69.9639 345.057 78.3208 345.07 79.3368 L346.6 195.605 C346.821 212.381 333.38 226 316.603 226 L128 226 C111.441 226 98 212.559 98 196 L98 -181 C98 -197.559 111.441 -211 128 -211 L128 -211 Z " />
<glyph glyph-name="less" unicode="&#x3c;" horiz-adv-x="553" d="M180.513 793.188 L28.7147 510.373 C25.1405 503.714 25.2241 488.331 28.8704 481.711 L180.448 206.526 C184.583 199.019 198.156 191 206.725 191 L413.079 191 C437.664 191 451.236 214.036 439.32 235.54 L302.953 481.646 C299.257 488.318 299.173 503.728 302.796 510.44 L440.106 764.747 C451.711 786.24 438.135 809 413.708 809 L206.946 809 C198.218 809 184.641 800.878 180.513 793.188 L180.513 793.188 Z " />
<glyph glyph-name="equal" unicode="&#x3d;" horiz-adv-x="1100" d="M936.094 380 L164.81 380 C148.356 380 134.915 366.644 134.811 350.19 L133.191 95.1182 C133.086 78.494 146.494 64.9676 163.119 64.9278 L936.833 63.0723 C953.484 63.0324 966.957 76.5159 966.905 93.1669 L966.094 350.095 C966.042 366.601 952.601 380 936.094 380 L936.094 380 Z M936.095 878 L164.81 878 C148.356 878 134.915 864.644 134.811 848.19 L133.191 593.154 C133.086 576.51 146.511 562.984 163.155 562.964 L936.869 562.036 C953.5 562.016 966.957 575.5 966.905 592.131 L966.095 848.095 C966.042 864.602 952.601 878 936.095 878 L936.095 878 Z " />
<glyph glyph-name="greater" unicode="&#x3e;" horiz-adv-x="553" d="M112.894 764.747 L250.204 510.44 C253.827 503.728 253.743 488.318 250.047 481.646 L113.68 235.54 C101.764 214.036 115.336 191 139.921 191 L345.325 191 C353.859 191 367.43 198.996 371.566 206.46 L524.047 481.646 C527.743 488.318 527.827 503.728 524.204 510.44 L371.502 793.253 C367.373 800.901 353.796 809 345.104 809 L139.292 809 C114.865 809 101.289 786.24 112.894 764.747 L112.894 764.747 Z " />
<glyph glyph-name="question" unicode="&#x3f;" horiz-adv-x="796" d="M288.068 626.008 C288.875 663.141 297.625 742 386 742 C439 742 463 722 475 699 C482 687 485 673 484 656 C484 561.95 244.838 557.247 220.921 403.542 C217.967 384.557 229.986 378.073 249.2 378.201 L503.5 379.897 C505.805 379.912 523.647 388.798 525.324 390.378 C561.99 424.92 746.4 491.7 768 633 C776 688 794 959 429 959 C202 959 99 871 56 785 C33.9 741.65 22.6375 693.965 21.5984 640.717 C21.2678 623.776 33.8108 612.044 50.7551 612.108 L275 612.951 C282.019 612.978 287.916 618.99 288.068 626.008 L288.068 626.008 Z M209 166 C209 75 284 1 373 1 C465 1 539 75 539 166 C539 256 465 331 373 331 C284 331 209 256 209 166 L209 166 Z " />
<glyph glyph-name="at" unicode="&#x40;" horiz-adv-x="1054" d="M568.332 320.894 C586.26 254.15 624.6 161 765 161 C965 161 1002 376 1002 513 C1002 644 971 953 533 953 C92 953 72 585 72 521 C72 397.175 84.3581 39.4963 549.333 21.6897 C566.614 21.0279 585.921 33.8901 585.815 51.184 L585.186 153.707 C585.09 169.373 568.135 183.748 552.487 184.496 C502.295 186.898 456.425 197.025 416 216 C332 254 248 339 248 520 C248 708 390 798 533 798 C680 798 831 701 831 518 C831 378 811 332 782 332 C770 332 760 347 753 364 L635.935 710.475 C632.301 721.229 618.687 730.939 607.336 730.872 L481.026 730.124 C470.117 730.06 456.605 720.47 452.943 710.194 L346.361 411.045 C343.906 404.156 346.144 389.036 350.489 383.153 L396.892 320.331 C400.966 314.815 414.472 308.086 421.329 308.156 L487.023 308.827 C496.107 308.919 505.86 316.671 508 325.5 C510.146 334.351 519.87 342 528.978 342 L539.404 342 C551.667 342 565.151 332.738 568.332 320.894 L568.332 320.894 Z " />
<glyph glyph-name="A" unicode="A" horiz-adv-x="1042" d="M320.194 21.5826 L341.78 80.3445 C345.521 90.5284 359.09 100 369.94 100 L667.169 100 C678.635 100 692.188 90.1372 695.715 79.2269 L714.285 21.7731 C717.812 10.8628 731.365 1 742.831 1 L968.223 1 C990.074 1 1003.63 19.8814 996.651 40.5863 L698.974 923.318 C695.312 934.18 681.637 943.872 670.176 943.73 L389.703 940.256 C379.019 940.124 365.562 930.589 361.896 920.552 L40.7731 41.4431 C33.1236 20.5016 46.7619 1.07234 69.0565 1.15002 L292.138 1.92731 C302.933 1.96492 316.471 11.4496 320.194 21.5826 L320.194 21.5826 Z M555.755 519.331 L595.664 393.039 C602.156 372.492 588.606 354 567.058 354 L481.685 354 C459.517 354 445.949 373.304 453.458 394.162 L498.923 520.453 C508.992 548.421 546.799 547.675 555.755 519.331 L555.755 519.331 Z " />
<glyph glyph-name="B" unicode="B" horiz-adv-x="1014" d="M903 659 C903 941 628 965 489 965 L163.884 964.084 C147.389 964.038 133.986 950.611 133.969 934.116 L133.031 34.0312 C133.014 17.7726 155.114 3.89457 171.37 3.58262 C428.672 -1.355 944 -43.25 944 256 C944 425.75 842.938 477.594 779.486 493.262 C777.729 493.696 778.495 501.127 780.247 501.584 C832.195 515.138 903 567.2 903 659 L903 659 Z M594 284 C594 259.95 592.289 215.365 484.394 208.813 C466.864 207.748 456 220.437 456 238 L456 338 C456 355.682 464.635 368.352 482.277 367.153 C582.877 360.313 594 313.6 594 284 L594 284 Z M594 634 C594 609.95 592.289 566.221 484.394 559.796 C466.882 558.754 456 571.457 456 589 L456 690 C456 707.724 464.596 720.368 482.277 719.121 C582.877 712.024 594 663.6 594 634 L594 634 Z " />
<glyph glyph-name="C" unicode="C" horiz-adv-x="947" d="M531 273 C453 273 351 329 351 470 C351 610 463 667 529 667 C567.25 667 615.615 655.44 657.514 621.88 C668.735 612.892 690.495 612.997 700.883 622.936 L865.771 780.689 C878.183 792.564 878.722 810.231 866.392 822.191 C779.304 906.663 663.425 958 533 958 C270 958 55 744 55 479 C55 216 270 1 533 1 C665.275 1 782.149 54.0488 869.375 138.777 C882.072 151.11 880.584 168.442 867.404 180.258 L710.16 321.236 C699.718 330.597 674.838 328.134 663.988 319.248 C624.967 287.293 573.9 273 531 273 L531 273 Z " />
<glyph glyph-name="D" unicode="D" horiz-adv-x="1092" d="M173.993 -0.0329219 C701.59 -0.780625 1021 -9.775 1021 467 C1021 1000.32 578.959 954.719 165.723 952.106 C149.286 952.002 133.986 938.468 133.969 922.032 L133.032 30.0315 C133.014 13.4785 157.44 -0.00946317 173.993 -0.0329219 L173.993 -0.0329219 Z M499.69 680.226 C679.242 670.517 700 571.1 700 478 C700 354.5 644.947 267.1 496.261 274.959 C480.679 275.782 471.945 288.044 471.868 303.647 L470.149 650.851 C470.062 668.386 482.181 681.173 499.69 680.226 L499.69 680.226 Z " />
<glyph glyph-name="E" unicode="E" horiz-adv-x="1075" d="M455.285 290.159 L455.724 336.773 C455.876 352.9 469.099 366.218 485.224 366.486 L847.499 372.509 C863.78 372.78 877 386.222 877 402.505 L877 584.929 C877 601.527 863.527 614.968 846.929 614.929 L486.071 614.071 C469.473 614.032 456 627.473 456 644.071 L456 682.062 C456 698.587 469.413 712.028 485.938 712.062 L911.062 712.938 C927.587 712.972 941 726.413 941 742.938 L941 913.074 C941 929.592 927.592 943.033 911.074 943.074 L165.043 944.925 C148.46 944.967 134.986 931.54 134.968 914.957 L134.032 30.1059 C134.014 13.4884 147.488 0.0332637 164.106 0.0742437 L914.172 1.92398 C931.134 1.96581 944.614 14.7838 944.159 31.74 C942.136 107.148 941.255 171.744 941.049 230.184 C940.991 246.616 927.556 258.055 911.123 258.123 L485.16 259.876 C468.513 259.944 455.127 273.512 455.285 290.159 L455.285 290.159 Z " />
<glyph glyph-name="F" unicode="F" horiz-adv-x="903" d="M164 2 L466 2 C482.559 2 496 15.4409 496 32 L496 324 C496 340.559 509.441 354 526 354 L751 354 C767.559 354 781 367.441 781 384 L781 544 C781 560.559 767.559 574 751 574 L526 574 C509.441 574 496 587.441 496 604 L496 662.772 C496 679.457 509.543 692.898 526.227 692.772 L862.773 690.228 C879.457 690.102 893 703.543 893 720.228 L893 917.039 C893 933.577 879.577 947.018 863.04 947.039 L164.04 947.96 C147.459 947.982 134 934.541 134 917.96 L134 32 C134 15.4409 147.441 2 164 2 L164 2 Z " />
<glyph glyph-name="G" unicode="G" horiz-adv-x="1119" d="M727.76 77.5727 L731.727 29.5313 C732.977 14.3864 746.429 2 761.625 2 L990 2 C1006.56 2 1020 15.4409 1020 32 L1020 505.063 C1020 521.587 1006.59 535.028 990.063 535.063 L573.361 535.936 C556.604 535.971 543.134 522.397 543.299 505.641 L544.707 362.704 C544.869 346.309 558.31 333 574.706 333 L694.542 333 C718.436 333 728.816 326.828 718.232 305.406 C694.457 257.288 613.75 232 567 232 C399 232 373 372 373 514 C373 631 433 725 560 725 C612.5 725 704.047 695.906 726.783 638.389 C730.633 628.65 751.131 612 761.603 612 L982 612 C1000.35 612 1012.17 627.776 1010.18 646.022 C987.315 855.627 753.9 954 562 954 C281 954 75 790 75 501 C75 177 213 4 543 4 C599.95 4 669.905 37.9575 708.034 84.9922 C713.656 91.9281 727.025 86.4711 727.76 77.5727 L727.76 77.5727 Z " />
<glyph glyph-name="H" unicode="H" horiz-adv-x="1160" d="M739.039 3 L997 3 C1013.56 3 1027 16.4409 1027 33 L1027 928 C1027 944.559 1013.56 958 997 958 L739.298 958 C723.131 958 709.689 944.873 709.306 928.711 L700.694 565.289 C700.311 549.127 686.869 536 670.702 536 L490.298 536 C474.131 536 460.689 549.127 460.306 565.289 L451.694 928.711 C451.311 944.873 437.869 958 421.702 958 L164 958 C147.441 958 134 944.559 134 928 L134 33 C134 16.4409 147.441 3 164 3 L421.961 3 C437.981 3 451.424 16.0118 451.945 32.0233 L460.055 280.977 C460.576 296.988 474.019 310 490.039 310 L670.961 310 C686.981 310 700.424 296.988 700.945 280.977 L709.055 32.0233 C709.576 16.0118 723.019 3 739.039 3 L739.039 3 Z " />
<glyph glyph-name="I" unicode="I" horiz-adv-x="872" d="M164 700 L242 700 C258.559 700 272 686.559 272 670 L272 285 C272 268.441 258.559 255 242 255 L164 255 C147.441 255 134 241.559 134 225 L134 32 C134 15.4409 147.441 2 164 2 L709 2 C725.559 2 739 15.4409 739 32 L739 225 C739 241.559 725.559 255 709 255 L632 255 C615.441 255 602 268.441 602 285 L602 670 C602 686.559 615.441 700 632 700 L709 700 C725.559 700 739 713.441 739 730 L739 923 C739 939.559 725.559 953 709 953 L164 953 C147.441 953 134 939.559 134 923 L134 730 C134 713.441 147.441 700 164 700 L164 700 Z " />
<glyph glyph-name="J" unicode="J" horiz-adv-x="937" d="M809.063 964 L569 964 C552.441 964 539 950.559 539 934 L539 483 C539 328 468 292 366 292 C307 292 265 316 236 341 C222.036 352.5 210.096 365.349 199.626 380.103 C196.271 384.829 189.123 386.183 184.993 382.117 L13.3662 213.158 C5.32574 205.243 2.27966 192.584 7.22063 182.44 C60.48 73.1025 252.95 0 366 0 C601 0 721 103 780 213 C838 328 840 448 840 490 L839.063 934.063 C839.028 950.587 825.587 964 809.063 964 L809.063 964 Z " />
<glyph glyph-name="K" unicode="K" horiz-adv-x="1129" d="M550.03 181.785 C635.065 55.7983 728.949 1.82783 974.528 0.929328 C991.148 0.868522 998 14.0995 998 30.7192 L998 265.011 C998 279.374 981.666 294.144 967.431 296.049 C855.437 311.037 821.096 362.813 769.95 460.756 C766.477 467.406 765.231 485.548 768.899 492.093 L999.802 904.044 C1011.9 925.622 998.201 948.85 973.465 948.712 L682.93 947.089 C675.646 947.048 662.198 939.81 658.151 933.753 L548.947 770.261 C532.101 745.041 494 756.596 494 786.924 L494 919 C494 935.559 480.559 949 464 949 L164 949 C147.441 949 134 935.559 134 919 L134 30 C134 13.4409 147.441 0 164 0 L464 0 C480.559 0 494 13.4409 494 30 L494 161.748 C494 191.373 533.456 206.34 550.03 181.785 L550.03 181.785 Z " />
<glyph glyph-name="L" unicode="L" horiz-adv-x="948" d="M164.062 0 L917 0 C933.559 0 947 13.4409 947 30 L947 238 C947 254.559 933.559 268 917 268 L492 268 C475.441 268 462 281.441 462 298 L462 938 C462 954.559 448.559 968 432 968 L165.938 968 C149.413 968 135.972 954.587 135.938 938.062 L134.062 30.062 C134.028 13.4687 147.469 0 164.062 0 L164.062 0 Z " />
<glyph glyph-name="M" unicode="M" horiz-adv-x="1334" d="M702.919 199.394 L867.921 398.084 C886.639 420.623 921 408.216 921 378.917 L921 32 C921 15.4409 934.441 2 951 2 L1172 2 C1188.56 2 1202 15.4409 1202 32 L1202 913.211 C1202 929.653 1188.65 943.094 1172.21 943.21 L932.293 944.899 C926.166 944.942 912.811 938.694 908.917 933.963 L702.979 683.708 C690.969 669.114 670.417 668.581 657.667 682.534 L425.093 937.049 C421.34 941.156 408.084 946.888 402.521 946.809 L163.575 943.419 C147.252 943.188 134 929.747 134 913.423 L134 32 C134 15.4409 147.441 2 164 2 L385 2 C401.559 2 415 15.4409 415 32 L415 385.107 C415 413.85 447.608 426.572 467.073 405.424 L657.766 198.243 C670.476 184.434 690.928 184.955 702.919 199.394 L702.919 199.394 Z " />
<glyph glyph-name="N" unicode="N" horiz-adv-x="1208" d="M438.138 38.8618 L439.578 351.442 C439.716 381.349 476.255 393.135 493.842 368.946 L748.015 19.3582 C752.026 13.841 765.458 7 772.279 7 L1042.13 7 C1058.62 7 1072.06 20.3837 1072.13 36.8721 L1075.87 914.872 C1075.94 931.502 1062.5 945 1045.87 945 L787.147 945 C770.507 945 757.066 931.493 757.147 914.854 L758.572 622.675 C758.717 593.028 723.228 580.691 704.951 604.034 L447.008 933.494 C443.093 938.495 429.738 945 423.387 945 L163.064 945 C146.47 945 133.029 931.53 133.064 914.936 L134.936 38.9359 C134.971 22.4122 148.412 9 164.936 9 L408.138 9 C424.621 9 438.062 22.3791 438.138 38.8618 L438.138 38.8618 Z " />
<glyph glyph-name="O" unicode="O" horiz-adv-x="1082" d="M62 478 C62 213 278 -1 541 -1 C804 -1 1020 213 1020 478 C1020 741 804 956 541 956 C278 956 62 741 62 478 L62 478 Z M538 271 C461 271 357 325 357 467 C357 607 471 664 536 664 C607 664 725 624 733 465 C738 325 624 271 538 271 L538 271 Z " />
<glyph glyph-name="P" unicode="P" horiz-adv-x="1017" d="M164 5 L428 5 C444.559 5 458 18.4409 458 35 L458 193.317 C458 208.783 473.733 222.705 489.165 223.726 C887.073 250.057 1004 426.8 1004 614 C1004 804 875 952 593 952 L164 952 C147.441 952 134 938.559 134 922 L134 35 C134 18.4409 147.441 5 164 5 L164 5 Z M688 608 C688 498.2 574.6 464.54 489.226 458.906 C471.678 457.748 461.953 470.299 461.886 487.886 L461.115 690.886 C461.05 707.887 476.328 721.045 493.324 720.656 C621.261 717.728 688 694.95 688 608 L688 608 Z " />
<glyph glyph-name="Q" unicode="Q" horiz-adv-x="1138" d="M984.887 291.826 C1008.31 349.078 1022 411.4 1022 478 C1022 741 808 956 544 956 C281 956 65 741 65 478 C65 213 281 -1 544 -1 C615.225 -1 681.316 13.5456 743.857 42.6369 C748.829 44.95 770.281 44.6584 775.326 42.5085 C838.384 15.6384 917.68 4.78973 1033.48 3.20714 C1050.26 2.97776 1065 16.2146 1065 33 L1065 240.5 C1065 248.741 1055.75 257.051 1047.54 257.835 C1026.35 259.86 1006.8 265.406 990.098 272.696 C983.262 275.679 982.063 284.923 984.887 291.826 L984.887 291.826 Z M542 271 C465 271 361 327 361 468 C361 608 474 665 540 665 C611 665 729 625 737 466 C742 327 628 271 542 271 L542 271 Z " />
<glyph glyph-name="R" unicode="R" horiz-adv-x="1104" d="M164 3 L426 3 C442.559 3 456 16.4409 456 33 L456 188.843 C456 200.532 466.005 214.078 477.177 217.516 L498.119 223.96 C510.033 227.626 529.268 216.7 535.766 206.062 C626.473 57.5537 713.973 5.73063 976.34 3.10594 C993.064 2.93863 998 16.2753 998 33 L998 227 C998 240.686 978.82 257.485 965.342 259.859 C901.005 271.194 857.014 313.16 847.799 329.9 C845.268 334.498 849.471 336.192 854.34 338.152 C961.024 381.094 1000 499.8 1000 609 C1000 799 880 945 603 945 L164 945 C147.441 945 134 931.559 134 915 L134 33 C134 16.4409 147.441 3 164 3 L164 3 Z M687 615 C687 523.2 572.79 483.24 487.254 476.166 C469.456 474.694 459.952 487.023 459.881 504.881 L459.12 696.881 C459.052 713.899 474.326 727.045 491.34 726.641 C619.406 723.595 687 700.1 687 615 L687 615 Z " />
<glyph glyph-name="S" unicode="S" horiz-adv-x="976" d="M886 639 C889 639 888 962 489 962 C80 962 84 694 84 609 C84 524 156 347 518 347 C573 347 596 329 596 309 C596 278 556 247 489 247 C434 247 407 263 394 278 C386.688 285.312 382.016 293.945 379.448 303.898 C378.656 306.969 374.595 311.012 371.424 311.023 L118.973 311.906 C103.191 311.961 90.6838 301.824 89.8881 286.062 C84.2375 174.125 123.55 3 488 3 C804 3 912 189 912 312 C912 350 896 589 571 589 C433 589 388 621 388 654 C389 687 422 707 489 707 C538 707 564 691 577 674 C583.067 665.333 586.88 655.916 588.44 646.398 C588.892 643.641 591.729 641.972 594.522 641.944 L886 639 L886 639 Z " />
<glyph glyph-name="T" unicode="T" horiz-adv-x="1049" d="M984.095 948 L65.8095 948 C49.3559 948 35.9149 934.644 35.8101 918.191 L34.1899 663.822 C34.0851 647.361 47.3606 633.836 63.8201 633.633 L329.464 630.364 C345.765 630.163 359.042 616.764 359.095 600.462 L360.905 36.6298 C360.957 20.2763 374.276 6.87783 390.629 6.72734 L656.724 4.27861 C673.435 4.12483 687 17.5659 687 34.2773 L687 600.182 C687 616.641 700.359 630.081 716.817 630.182 L985.088 631.818 C1001.6 631.918 1014.96 645.402 1014.91 661.912 L1014.09 918.095 C1014.04 934.602 1000.6 948 984.095 948 L984.095 948 Z " />
<glyph glyph-name="U" unicode="U" horiz-adv-x="1063" d="M105 413 C105 149 292 0 527 0 C985 0 956 367 956 433 L954.119 905.12 C954.053 921.613 940.612 935 924.119 935 L658 935 C641.441 935 628 921.559 628 905 L628 380 C628 312 583 264 530 264 C459 264 431 315 431 383 L431 907 C431 923.559 417.559 937 401 937 L134.696 937 C118.293 937 104.941 931.568 104.786 915.166 C102.148 635.081 105 500.75 105 413 L105 413 Z " />
<glyph glyph-name="V" unicode="V" horiz-adv-x="1028" d="M39.6466 910.743 L363.817 19.7429 C367.543 9.50216 381.112 0 392.009 0 L645.74 0 C656.812 0 670.376 9.61258 674.045 20.059 L986.972 911.059 C994.278 931.86 980.714 951 958.667 951 L679.24 951 C668.182 951 654.617 941.396 650.944 930.966 L544.219 627.957 C534.363 599.975 496.732 600.349 487.434 628.52 L387.798 930.403 C384.235 941.199 370.679 951 359.31 951 L67.8387 951 C45.618 951 32.0493 931.625 39.6466 910.743 L39.6466 910.743 Z " />
<glyph glyph-name="W" unicode="W" horiz-adv-x="1311" d="M294.351 4 L554.689 4 C567.817 4 581.318 14.9404 584.038 27.7828 L615.812 177.776 C622.413 208.937 668.798 208.381 674.65 177.071 L702.423 28.488 C704.906 15.2015 718.395 4 731.912 4 L994.39 4 C1007.06 4 1020.57 14.6366 1023.55 26.9487 L1238.04 913.949 C1242.85 933.827 1229.33 951 1208.88 951 L962.313 951 C949.184 951 935.683 940.058 932.964 927.214 L904.539 792.961 C897.935 761.771 851.397 762.428 845.677 793.791 L821.49 926.383 C819.052 939.75 805.565 951 791.977 951 L525.313 951 C512.184 951 498.683 940.058 495.964 927.214 L467.539 792.961 C460.935 761.771 414.397 762.428 408.677 793.791 L384.49 926.383 C382.052 939.75 368.565 951 354.977 951 L107.959 951 C87.9949 951 74.4949 934.368 78.6005 914.831 L264.992 27.8306 C267.697 14.958 281.197 4 294.351 4 L294.351 4 Z " />
<glyph glyph-name="X" unicode="X" horiz-adv-x="1180" d="M1028.86 953 L727.321 953 C719.757 953 706.242 945.647 702.134 939.298 L615.187 804.926 C602.505 785.326 577.495 785.326 564.813 804.926 L477.866 939.298 C473.758 945.647 460.243 953 452.679 953 L151.047 953 C125.513 953 111.996 928.198 125.836 906.74 L392.513 493.26 C397.786 485.084 397.786 468.916 392.513 460.74 L125.836 47.2602 C111.996 25.8019 125.513 1 151.047 1 L452.679 1 C460.243 1 473.758 8.3525 477.866 14.7025 L564.813 149.074 C577.495 168.674 602.505 168.674 615.187 149.074 L702.134 14.7025 C706.242 8.3525 719.757 1 727.321 1 L1028.86 1 C1054.41 1 1067.93 25.8424 1054.04 47.2975 L786.545 460.702 C781.236 468.908 781.236 485.092 786.545 493.298 L1054.04 906.702 C1067.93 928.158 1054.41 953 1028.86 953 L1028.86 953 Z " />
<glyph glyph-name="Y" unicode="Y" horiz-adv-x="999" d="M356 2 L650 2 C666.559 2 680 15.4409 680 32 L680 439.925 C680 442.162 682.93 453.049 684.053 454.984 L949.936 913.093 C962.4 934.568 948.907 958.079 924.078 958.152 L650.522 958.954 C643.528 958.975 630.053 952.053 625.997 946.355 L525.877 805.747 C512.341 786.737 487.365 787.842 475.561 807.973 L395.721 944.128 C391.562 951.221 377.982 958.975 369.76 958.953 L73.6756 958.144 C48.6687 958.076 35.1807 934.241 47.9973 912.769 L321.76 454.103 C322.96 452.094 326 441.068 326 438.728 L326 32 C326 15.4409 339.441 2 356 2 L356 2 Z " />
<glyph glyph-name="Z" unicode="Z" horiz-adv-x="1067" d="M164 655 L404.33 655 C432.008 655 445.146 625.366 426.561 604.855 L141.769 290.574 C138.89 287.396 134 274.718 134 270.429 L134 26 C134 9.4409 147.441 -4 164 -4 L905 -4 C921.559 -4 935 9.4409 935 26 L935 252 C935 268.559 921.559 282 905 282 L679.397 282 C652.037 282 638.811 310.831 656.658 331.569 L927.739 646.563 C930.353 649.601 935 662.124 935 666.132 L935 911 C935 927.559 921.559 941 905 941 L164 941 C147.441 941 134 927.559 134 911 L134 685 C134 668.441 147.441 655 164 655 L164 655 Z " />
<glyph glyph-name="bracketleft" unicode="&#x5b;" horiz-adv-x="758" d="M164 -137 L596 -137 C612.559 -137 626 -123.559 626 -107 L626 50 C626 66.5591 612.559 80 596 80 L459 80 C442.441 80 429 93.4409 429 110 L429 843 C429 859.559 442.441 873 459 873 L596 873 C612.559 873 626 886.441 626 903 L626 1060 C626 1076.56 612.559 1090 596 1090 L164 1090 C147.441 1090 134 1076.56 134 1060 L134 -107 C134 -123.559 147.441 -137 164 -137 L164 -137 Z " />
<glyph glyph-name="backslash" unicode="&#x5c;" horiz-adv-x="562" d="M164 -137 L401 -137 C417.559 -137 431 -123.559 431 -107 L431 1060 C431 1076.56 417.559 1090 401 1090 L164 1090 C147.441 1090 134 1076.56 134 1060 L134 -107 C134 -123.559 147.441 -137 164 -137 L164 -137 Z " />
<glyph glyph-name="bracketright" unicode="&#x5d;" horiz-adv-x="758" d="M596 1090 L164 1090 C147.441 1090 134 1076.56 134 1060 L134 903 C134 886.441 147.441 873 164 873 L301 873 C317.559 873 331 859.559 331 843 L331 110 C331 93.4409 317.559 80 301 80 L164 80 C147.441 80 134 66.5591 134 50 L134 -107 C134 -123.559 147.441 -137 164 -137 L596 -137 C612.559 -137 626 -123.559 626 -107 L626 1060 C626 1076.56 612.559 1090 596 1090 L596 1090 Z " />
<glyph glyph-name="asciicircum" unicode="&#x5e;" horiz-adv-x="746" d="M108.253 562.894 L362.56 700.204 C369.272 703.827 384.682 703.743 391.354 700.047 L637.46 563.68 C658.964 551.764 682 565.336 682 589.921 L682 776.325 C682 784.859 674.004 798.43 666.54 802.566 L391.354 955.047 C384.682 958.743 369.272 958.827 362.56 955.204 L79.7468 802.502 C72.0987 798.373 64 784.796 64 776.104 L64 589.292 C64 564.865 86.7597 551.289 108.253 562.894 L108.253 562.894 Z " />
<glyph glyph-name="underscore" unicode="&#x5f;" horiz-adv-x="1100" d="M936.095 321 L164.81 321 C148.356 321 134.915 307.644 134.81 291.191 L133.192 37.1188 C133.086 20.4942 146.494 6.96764 163.119 6.92777 L936.833 5.07234 C953.484 5.03241 966.957 18.5161 966.905 35.1672 L966.095 291.095 C966.042 307.602 952.601 321 936.095 321 L936.095 321 Z " />
<glyph glyph-name="grave" unicode="&#x60;" horiz-adv-x="491" d="M158.787 1469.79 L24.5141 1335.51 C12.6401 1323.64 12.7749 1304.5 24.8149 1292.79 L107.196 1212.7 C107.916 1212 114.925 1207.24 115.842 1206.83 L371.034 1092.5 C380.835 1088.11 397.065 1091.14 404.621 1098.77 L467.002 1161.79 C478.592 1173.5 478.544 1192.46 466.894 1204.11 L201.213 1469.79 C189.504 1481.5 170.496 1481.5 158.787 1469.79 L158.787 1469.79 Z " />
<glyph glyph-name="a" unicode="a" horiz-adv-x="1045" d="M358.958 24.3407 L371.039 69.6466 C374.221 81.5798 387.784 91.9611 400.134 91.9165 L633.128 91.0754 C643.93 91.0364 657.467 81.5454 661.185 71.4032 L679.787 20.6724 C683.525 10.4775 697.095 1 707.953 1 L972.197 1 C994.057 1 1007.62 19.8936 1000.62 40.6031 L698.982 933.335 C695.316 944.186 681.642 953.872 670.189 953.73 L389.764 950.257 C379.037 950.124 365.582 940.562 361.928 930.476 L40.519 43.0859 C32.9756 22.2593 46.4835 2.93736 68.634 2.86962 L329.879 2.07071 C342.22 2.03297 355.778 12.416 358.958 24.3407 L358.958 24.3407 Z M547.24 464.476 L579.75 360.992 C586.201 340.459 572.652 322 551.13 322 L480.156 322 C457.827 322 444.256 341.523 452.035 362.452 L490.499 465.936 C500.824 493.718 538.357 492.752 547.24 464.476 L547.24 464.476 Z " />
<glyph glyph-name="b" unicode="b" horiz-adv-x="1023" d="M912 658 C912 941 634 963 493 963 L164.885 962.083 C148.389 962.037 134.986 948.61 134.969 932.115 L134.031 34.0313 C134.014 17.7691 156.575 3.89104 172.834 3.5825 C433.16 -1.3575 953 -43.3 953 255 C953 424.75 850.406 476.594 786.572 492.262 C784.848 492.685 785.326 500.136 787.044 500.584 C839.027 514.137 912 566.2 912 658 L912 658 Z M599 663 C599 636.175 598.144 585.393 472.175 577.926 C454.667 576.888 439 589.461 439 607 L439 731 C439 748.695 451.827 761.22 469.48 760.006 C586.166 751.985 599 697.225 599 663 L599 663 Z M599 296 C599 269.175 598.144 218.392 472.175 210.926 C454.667 209.888 439 222.461 439 240 L439 364 C439 381.695 451.827 394.22 469.48 393.006 C586.166 384.985 599 330.225 599 296 L599 296 Z " />
<glyph glyph-name="c" unicode="c" horiz-adv-x="947" d="M531 273 C453 273 351 329 351 470 C351 610 463 667 529 667 C567.25 667 615.615 655.44 657.514 621.88 C668.735 612.892 690.495 612.997 700.883 622.936 L865.771 780.689 C878.183 792.564 878.722 810.231 866.392 822.191 C779.304 906.663 663.425 958 533 958 C270 958 55 744 55 479 C55 216 270 1 533 1 C665.275 1 782.149 54.0488 869.375 138.777 C882.072 151.11 880.584 168.442 867.404 180.258 L710.16 321.236 C699.718 330.597 674.838 328.134 663.988 319.248 C624.967 287.293 573.9 273 531 273 L531 273 Z " />
<glyph glyph-name="d" unicode="d" horiz-adv-x="1093" d="M174.993 -0.0329219 C702.59 -0.780625 1022 -9.775 1022 467 C1022 1000.32 579.959 954.719 166.723 952.106 C150.286 952.002 134.986 938.468 134.969 922.032 L134.032 30.0315 C134.014 13.4785 158.44 -0.00946317 174.993 -0.0329219 L174.993 -0.0329219 Z M500.555 680.226 C679.34 670.517 701 571.1 701 478 C701 354.5 645.948 267.1 497.261 274.959 C481.679 275.782 472.945 288.044 472.868 303.647 L471.149 650.851 C471.062 668.39 483.042 681.178 500.555 680.226 L500.555 680.226 Z " />
<glyph glyph-name="e" unicode="e" horiz-adv-x="1075" d="M455.285 290.159 L455.724 336.773 C455.876 352.9 469.099 366.218 485.224 366.486 L847.499 372.509 C863.78 372.78 877 386.222 877 402.505 L877 584.929 C877 601.527 863.527 614.968 846.929 614.929 L486.071 614.071 C469.473 614.032 456 627.473 456 644.071 L456 682.062 C456 698.587 469.413 712.028 485.938 712.062 L911.062 712.938 C927.587 712.972 941 726.413 941 742.938 L941 913.074 C941 929.592 927.592 943.033 911.074 943.074 L165.043 944.925 C148.46 944.967 134.986 931.54 134.968 914.957 L134.032 30.1059 C134.014 13.4884 147.488 0.0332637 164.106 0.0742437 L914.172 1.92398 C931.134 1.96581 944.614 14.7838 944.159 31.74 C942.136 107.148 941.255 171.744 941.049 230.184 C940.991 246.616 927.556 258.055 911.123 258.123 L485.16 259.876 C468.513 259.944 455.127 273.512 455.285 290.159 L455.285 290.159 Z " />
<glyph glyph-name="f" unicode="f" horiz-adv-x="903" d="M164 2 L466 2 C482.559 2 496 15.4409 496 32 L496 324 C496 340.559 509.441 354 526 354 L751 354 C767.559 354 781 367.441 781 384 L781 544 C781 560.559 767.559 574 751 574 L526 574 C509.441 574 496 587.441 496 604 L496 662.772 C496 679.457 509.543 692.898 526.227 692.772 L862.773 690.228 C879.457 690.102 893 703.543 893 720.228 L893 917.039 C893 933.577 879.577 947.018 863.04 947.039 L164.04 947.96 C147.459 947.982 134 934.541 134 917.96 L134 32 C134 15.4409 147.441 2 164 2 L164 2 Z " />
<glyph glyph-name="g" unicode="g" horiz-adv-x="1109" d="M993.936 536.936 L584.233 536.064 C567.546 536.029 554.133 522.455 554.298 505.769 L555.707 362.704 C555.869 346.309 569.31 333 585.706 333 L700 333 C721.03 333 731.881 323.515 726.203 303.266 C708.812 241.25 634 229 550 229 C371 229 390 437 390 572 C390 669 452 721 548 721 C603.125 721 690.406 698.031 712.035 640.035 C715.8 629.941 735.845 613 746.618 613 L985 613 C1002.97 613 1014.91 634.121 1013.38 652.023 C993.075 889.922 784.55 954 567 954 C278 954 80 854 80 542 C80 183 221 4 585 4 C977.925 4 1021.97 176.063 1023.93 510.921 C1024.02 527.612 1010.63 536.972 993.936 536.936 L993.936 536.936 Z " />
<glyph glyph-name="h" unicode="h" horiz-adv-x="1160" d="M720 3 L997 3 C1013.56 3 1027 16.4409 1027 33 L1027 928 C1027 944.559 1013.56 958 997 958 L720 958 C703.441 958 690 944.559 690 928 L690 634 C690 617.441 676.559 604 660 604 L501 604 C484.441 604 471 617.441 471 634 L471 928 C471 944.559 457.559 958 441 958 L164 958 C147.441 958 134 944.559 134 928 L134 33 C134 16.4409 147.441 3 164 3 L441 3 C457.559 3 471 16.4409 471 33 L471 319 C471 335.559 484.441 349 501 349 L660 349 C676.559 349 690 335.559 690 319 L690 33 C690 16.4409 703.441 3 720 3 L720 3 Z " />
<glyph glyph-name="i" unicode="i" horiz-adv-x="597" d="M164 2 L436 2 C452.559 2 466 15.4409 466 32 L466 923 C466 939.559 452.559 953 436 953 L164 953 C147.441 953 134 939.559 134 923 L134 32 C134 15.4409 147.441 2 164 2 L164 2 Z " />
<glyph glyph-name="j" unicode="j" horiz-adv-x="937" d="M809.063 964 L569 964 C552.441 964 539 950.559 539 934 L539 483 C539 328 468 292 366 292 C307 292 265 316 236 341 C222.036 352.5 210.096 365.349 199.626 380.103 C196.271 384.829 189.123 386.183 184.993 382.117 L13.3662 213.158 C5.32574 205.243 2.27966 192.584 7.22063 182.44 C60.48 73.1025 252.95 0 366 0 C601 0 721 103 780 213 C838 328 840 448 840 490 L839.063 934.063 C839.028 950.587 825.587 964 809.063 964 L809.063 964 Z " />
<glyph glyph-name="k" unicode="k" horiz-adv-x="1146" d="M164 0 L464 0 C480.559 0 494 13.4409 494 30 L494 175.226 C494 205.648 532.477 217.102 549.116 191.633 L664.065 15.6777 C668.208 9.33566 681.762 2.046 689.338 2.08576 L1000.52 3.71926 C1025.71 3.85149 1039.12 28.0644 1025.88 49.4928 L770.721 462.274 C765.928 470.028 765.906 485.985 770.678 493.753 L1022.75 904.015 C1035.99 925.572 1022.33 949.851 997.029 949.719 L680.973 948.073 C675.069 948.042 661.84 941.796 658.065 937.257 L547.065 803.8 C528.335 781.281 494 793.694 494 822.984 L494 920 C494 936.559 480.559 950 464 950 L164 950 C147.441 950 134 936.559 134 920 L134 30 C134 13.4409 147.441 0 164 0 L164 0 Z " />
<glyph glyph-name="l" unicode="l" horiz-adv-x="907" d="M164.062 0 L876 0 C892.559 0 906 13.4409 906 30 L906 240 C906 256.559 892.559 270 876 270 L475 270 C458.441 270 445 283.441 445 300 L445 943 C445 959.559 431.559 973 415 973 L165.938 973 C149.413 973 135.972 959.587 135.938 943.062 L134.062 30.0617 C134.028 13.4686 147.469 0 164.062 0 L164.062 0 Z " />
<glyph glyph-name="m" unicode="m" horiz-adv-x="1331" d="M918 387.543 L918 32 C918 15.4409 931.441 2 948 2 L1168 2 C1184.56 2 1198 15.4409 1198 32 L1198 915.107 C1198 931.607 1184.61 945.048 1168.11 945.107 L932.142 945.949 C926.121 945.971 912.81 939.754 908.962 935.123 L703.647 688.049 C691.786 673.776 671.491 673.136 658.755 686.633 L422.924 936.543 C419.329 940.353 406.235 945.972 400.998 945.954 L163.893 945.107 C147.393 945.048 134 931.607 134 915.107 L134 32 C134 15.4409 147.441 2 164 2 L384 2 C400.559 2 414 15.4409 414 32 L414 393.254 C414 421.201 444.344 434.253 464.632 415.033 L658.188 231.664 C670.227 220.258 689.243 220.787 700.631 232.844 L866.19 408.142 C885.826 428.933 918 416.141 918 387.543 L918 387.543 Z " />
<glyph glyph-name="n" unicode="n" horiz-adv-x="1208" d="M438.117 38.8828 L439.751 457.326 C439.857 484.428 468.111 497.605 488.942 480.268 L739.573 271.678 C743.894 268.081 750.217 255.059 750.371 249.439 L756.202 36.18 C756.642 20.0795 770.084 7 786.191 7 L1042.13 7 C1058.62 7 1072.06 20.3837 1072.13 36.8721 L1075.87 914.872 C1075.94 931.502 1062.5 945 1045.87 945 L787.221 945 C770.54 945 757.099 931.46 757.221 914.78 L758.52 737.524 C758.721 710.145 729.942 696.713 709.085 714.451 L446.404 937.853 C443.399 940.409 430.913 945 426.968 945 L163.064 945 C146.47 945 133.029 931.53 133.064 914.936 L134.936 38.9359 C134.971 22.4122 148.412 9 164.936 9 L408.117 9 C424.611 9 438.052 22.3885 438.117 38.8828 L438.117 38.8828 Z " />
<glyph glyph-name="o" unicode="o" horiz-adv-x="1082" d="M62 478 C62 213 278 -1 541 -1 C804 -1 1020 213 1020 478 C1020 741 804 956 541 956 C278 956 62 741 62 478 L62 478 Z M536 272 C459 272 355 328 355 469 C355 609 469 666 534 666 C605 666 726 626 731 467 C736 328 622 272 536 272 L536 272 Z " />
<glyph glyph-name="p" unicode="p" horiz-adv-x="1017" d="M164 5 L428 5 C444.559 5 458 18.4409 458 35 L458 193.317 C458 208.783 473.733 222.705 489.165 223.726 C887.073 250.057 1004 426.8 1004 614 C1004 804 875 952 593 952 L164 952 C147.441 952 134 938.559 134 922 L134 35 C134 18.4409 147.441 5 164 5 L164 5 Z M688 608 C688 498.2 574.6 464.54 489.226 458.906 C471.678 457.748 461.953 470.299 461.886 487.886 L461.115 690.886 C461.05 707.887 476.328 721.045 493.324 720.656 C621.261 717.728 688 694.95 688 608 L688 608 Z " />
<glyph glyph-name="q" unicode="q" horiz-adv-x="1128" d="M884.914 -28.0863 L1052.79 139.787 C1064.5 151.496 1064.5 170.504 1052.79 182.213 L978.972 256.028 C971.621 263.379 968.304 280.035 972.391 289.594 C996.61 346.24 1012 410.5 1012 478 C1012 741 798 956 533 956 C270 956 55 741 55 478 C55 213 270 -1 533 -1 C605.9 -1 673.94 14.39 736.391 44.441 C746.18 49.1515 765.052 47.1737 772.842 39.602 L842.791 -28.3857 C854.497 -39.763 873.371 -39.6289 884.914 -28.0863 L884.914 -28.0863 Z M531 271 C453 271 351 327 351 468 C351 608 463 665 529 665 C601 665 719 625 727 466 C732 327 616 271 531 271 L531 271 Z " />
<glyph glyph-name="r" unicode="r" horiz-adv-x="1096" d="M164 5 L426 5 C442.559 5 456 18.4409 456 35 L456 189.179 C456 201.318 466.294 214.851 477.994 218.091 L500.603 224.352 C511.431 227.35 528.939 218.663 535.259 209.373 C610.491 98.7987 633.859 35.4594 648.039 12.6172 C651.708 6.70739 656.969 5.02495 663.924 5.0834 L963.703 7.60255 C987.341 7.80118 1004.36 21.8125 994.072 43.0961 C904.341 228.781 869.536 294.982 852.598 325.365 C848.887 332.021 855.577 341.466 862.278 345.093 C962.095 399.1 1000 504.55 1000 610 C1000 802 880 947 603 947 L164 947 C147.441 947 134 933.559 134 917 L134 35 C134 18.4409 147.441 5 164 5 L164 5 Z M687 615 C687 524.1 572.79 484.23 487.254 477.165 C469.458 475.695 459.952 488.025 459.882 505.881 L459.119 698.881 C459.052 715.885 474.341 729.045 491.34 728.655 C619.406 725.723 687 702.875 687 615 L687 615 Z " />
<glyph glyph-name="s" unicode="s" horiz-adv-x="979" d="M886 639 C889 639 888 962 489 962 C80 962 81 691 81 607 C81 521 156 348 518 348 C573 348 596 330 596 310 C596 279 556 247 489 247 C434 247 407 263 394 278 C386.688 285.312 382.016 293.945 379.448 303.898 C378.656 306.969 374.595 311.012 371.424 311.023 L118.973 311.906 C103.191 311.961 90.6838 301.824 89.8881 286.062 C84.2375 174.125 123.55 3 488 3 C804 3 912 151 912 312 C912 350 896 590 571 590 C433 590 388 621 388 654 C389 687 422 707 489 707 C538 707 568 691 587 674 C596.059 665.765 602.405 656.851 606.038 647.818 C606.997 645.434 611.131 641.966 613.701 641.938 L886 639 L886 639 Z " />
<glyph glyph-name="t" unicode="t" horiz-adv-x="1045" d="M982.104 948 L63.7902 948 C47.3473 948 33.9063 934.653 33.791 918.211 L32.2094 692.841 C32.0938 676.37 45.3692 662.835 61.8395 662.633 L327.46 659.364 C343.763 659.163 357.041 645.762 357.091 629.458 L358.909 36.6348 C358.959 20.2785 372.278 6.87818 388.634 6.72813 L655.725 4.27775 C672.435 4.12445 686 17.5655 686 34.2765 L686 629.183 C686 645.641 699.359 659.082 715.817 659.182 L983.079 660.817 C999.595 660.918 1012.95 674.406 1012.9 690.921 L1012.1 918.105 C1012.05 934.606 998.606 948 982.104 948 L982.104 948 Z " />
<glyph glyph-name="u" unicode="u" horiz-adv-x="1105" d="M104 415 C104 149 302 0 548 0 C1026 0 998 369 998 435 L996.119 908.119 C996.053 924.612 982.612 938 966.119 938 L683 938 C666.441 938 653 924.559 653 908 L653 382 C653 314 605 266 551 266 C474 266 446 317 446 385 L446 910.912 C446 927.52 432.52 940.961 415.912 940.912 L133.912 940.087 C117.402 940.039 104 926.598 104 910.088 L104 415 L104 415 Z " />
<glyph glyph-name="v" unicode="v" horiz-adv-x="1028" d="M39.6466 910.743 L363.817 19.7429 C367.543 9.50216 381.112 0 392.009 0 L645.74 0 C656.812 0 670.376 9.61258 674.045 20.059 L986.972 911.059 C994.278 931.86 980.714 951 958.667 951 L679.24 951 C668.182 951 654.617 941.396 650.944 930.966 L544.219 627.957 C534.363 599.975 496.732 600.349 487.434 628.52 L387.798 930.403 C384.235 941.199 370.679 951 359.31 951 L67.8387 951 C45.618 951 32.0493 931.625 39.6466 910.743 L39.6466 910.743 Z " />
<glyph glyph-name="w" unicode="w" horiz-adv-x="1311" d="M294.351 4 L554.689 4 C567.817 4 581.318 14.9404 584.038 27.7828 L615.812 177.776 C622.413 208.937 668.798 208.381 674.65 177.071 L702.423 28.488 C704.906 15.2015 718.395 4 731.912 4 L994.39 4 C1007.06 4 1020.57 14.6366 1023.55 26.9487 L1238.04 913.949 C1242.85 933.827 1229.33 951 1208.88 951 L962.313 951 C949.184 951 935.683 940.058 932.964 927.214 L904.539 792.961 C897.935 761.771 851.397 762.428 845.677 793.791 L821.49 926.383 C819.052 939.75 805.565 951 791.977 951 L525.313 951 C512.184 951 498.683 940.058 495.964 927.214 L467.539 792.961 C460.935 761.771 414.397 762.428 408.677 793.791 L384.49 926.383 C382.052 939.75 368.565 951 354.977 951 L107.959 951 C87.9949 951 74.4949 934.368 78.6005 914.831 L264.992 27.8306 C267.697 14.958 281.197 4 294.351 4 L294.351 4 Z " />
<glyph glyph-name="x" unicode="x" horiz-adv-x="1180" d="M1028.86 953 L727.321 953 C719.757 953 706.242 945.647 702.134 939.298 L615.187 804.926 C602.505 785.326 577.495 785.326 564.813 804.926 L477.866 939.298 C473.758 945.647 460.243 953 452.679 953 L151.047 953 C125.513 953 111.996 928.198 125.836 906.74 L392.513 493.26 C397.786 485.084 397.786 468.916 392.513 460.74 L125.836 47.2602 C111.996 25.8019 125.513 1 151.047 1 L452.679 1 C460.243 1 473.758 8.3525 477.866 14.7025 L564.813 149.074 C577.495 168.674 602.505 168.674 615.187 149.074 L702.134 14.7025 C706.242 8.3525 719.757 1 727.321 1 L1028.86 1 C1054.41 1 1067.93 25.8424 1054.04 47.2975 L786.545 460.702 C781.236 468.908 781.236 485.092 786.545 493.298 L1054.04 906.702 C1067.93 928.158 1054.41 953 1028.86 953 L1028.86 953 Z " />
<glyph glyph-name="y" unicode="y" horiz-adv-x="999" d="M356 2 L650 2 C666.559 2 680 15.4409 680 32 L680 439.925 C680 442.162 682.93 453.049 684.053 454.984 L949.936 913.093 C962.4 934.568 948.907 958.079 924.078 958.152 L650.522 958.954 C643.528 958.975 630.053 952.053 625.997 946.355 L525.877 805.747 C512.341 786.737 487.365 787.842 475.561 807.973 L395.721 944.128 C391.562 951.221 377.982 958.975 369.76 958.953 L73.6756 958.144 C48.6687 958.076 35.1807 934.241 47.9973 912.769 L321.76 454.103 C322.96 452.094 326 441.068 326 438.728 L326 32 C326 15.4409 339.441 2 356 2 L356 2 Z " />
<glyph glyph-name="z" unicode="z" horiz-adv-x="1067" d="M164 655 L404.33 655 C432.008 655 445.146 625.366 426.561 604.855 L141.769 290.574 C138.89 287.396 134 274.718 134 270.429 L134 26 C134 9.4409 147.441 -4 164 -4 L905 -4 C921.559 -4 935 9.4409 935 26 L935 252 C935 268.559 921.559 282 905 282 L679.397 282 C652.037 282 638.811 310.831 656.658 331.569 L927.739 646.563 C930.353 649.601 935 662.124 935 666.132 L935 911 C935 927.559 921.559 941 905 941 L164 941 C147.441 941 134 927.559 134 911 L134 685 C134 668.441 147.441 655 164 655 L164 655 Z " />
<glyph glyph-name="braceleft" unicode="&#x7b;" horiz-adv-x="755" d="M142 2 C142 -67 178 -102 214 -119 C235 -130 260 -136 287 -137 L600.805 -137 C619.034 -137 632.49 -122.11 630.652 -103.974 L614.735 53.026 C613.233 67.8389 599.777 80 584.888 80 L443.47 80 C427.777 80 414.332 92.7596 413.511 108.431 L405 271 C403 300 398 328 391 355 C377.5 397.3 355.9 442.84 314.536 471.937 C308.785 475.983 300 491.722 300 498.753 L300 506.381 C300 513.192 309.301 529.466 314.807 533.476 C356.9 564.13 378.5 613.9 392 658 C399 687 404 717 405 748 L412.791 845.392 C414.007 860.582 427.457 873 442.696 873 L584.888 873 C599.777 873 613.233 885.161 614.735 899.974 L630.652 1056.97 C632.49 1075.11 619.034 1090 600.805 1090 L278 1090 C253 1089 230 1084 210 1074 C176 1058 142 1024 142 953 L131 720 C130 693 125 667 118 642 C106.3 603.3 85.69 560.55 45.964 532.704 C40.1874 528.655 32 513.332 32 506.278 L32 497.52 C32 491.434 41.2496 474.775 45.964 470.926 C85.69 438.49 106.3 387.1 118 343 C125 314 130 283 131 252 L142 2 L142 2 Z " />
<glyph glyph-name="bar" unicode="&#x7c;" horiz-adv-x="562" d="M164 -137 L401 -137 C417.559 -137 431 -123.559 431 -107 L431 1060 C431 1076.56 417.559 1090 401 1090 L164 1090 C147.441 1090 134 1076.56 134 1060 L134 -107 C134 -123.559 147.441 -137 164 -137 L164 -137 Z " />
<glyph glyph-name="braceright" unicode="&#x7d;" horiz-adv-x="754" d="M624 252 C625 283 630 314 637 343 C648.7 385.3 667.69 438.94 708.55 471.115 C713.511 475.022 723 491.844 723 498.158 L723 506.278 C723 513.357 714.813 528.651 709.009 532.704 C669.13 560.55 647.8 603.3 637 642 C630 667 625 693 624 720 L613 953 C613 1024 579 1058 545 1074 C525 1084 502 1089 477 1090 L154.195 1090 C135.966 1090 122.51 1075.11 124.348 1056.97 L140.265 899.974 C141.767 885.161 155.223 873 170.112 873 L312.304 873 C327.543 873 340.993 860.582 342.209 845.392 L350 748 C351 717 356 687 363 658 C376.5 613.9 397.29 564.13 439.95 533.476 C445.55 529.452 455 513.114 455 506.218 L455 498.919 C455 491.754 446.067 476.002 440.167 471.937 C397.93 442.84 375.7 397.3 364 355 C357 328 352 300 350 271 L341.489 108.431 C340.668 92.7596 327.223 80 311.53 80 L170.112 80 C155.223 80 141.767 67.8389 140.265 53.026 L124.348 -103.974 C122.51 -122.11 135.966 -137 154.195 -137 L468 -137 C495 -136 519 -130 540 -119 C576 -102 613 -67 613 2 L624 252 L624 252 Z " />
<glyph glyph-name="asciitilde" unicode="&#x7e;" horiz-adv-x="1033" d="M934.091 637.201 L923.68 644.324 C918.797 647.665 901.84 649.859 896.143 648.266 C858.203 637.656 796.625 630.875 696 644 L378 681 C331 686 288 688 249 687 C184 687 117 672 112 634 L87.285 436.28 C86.1602 427.281 92.7526 412.767 100.269 407.693 L111.829 399.891 C117.062 396.358 135.454 394.975 141.467 396.9 C183.344 410.312 249.625 420.375 345 409 L663 369 C784 354 849 366 885 382 C903.375 389.875 915.625 400.047 922.42 411.176 C923.223 412.491 925.371 419.266 925.546 420.797 L946.958 609.051 C947.954 617.808 941.364 632.224 934.091 637.201 L934.091 637.201 Z " />
<glyph glyph-name="uni00A0" unicode="&#xa0;" d="" />
<glyph glyph-name="exclamdown" unicode="&#xa1;" horiz-adv-x="550" d="M141 1 L410 1 C426.559 1 440 14.4409 440 31 L440 480 C440 496.559 426.559 510 410 510 L141 510 C124.441 510 111 496.559 111 480 L111 31 C111 14.4409 124.441 1 141 1 L141 1 Z M112 777 C112 689 189 612 276 612 C368 612 442 689 442 777 C442 868 368 942 276 942 C189 942 112 868 112 777 L112 777 Z " />
<glyph glyph-name="cent" unicode="&#xa2;" horiz-adv-x="910" d="M387 -71 L624 -71 C640.559 -71 654 -57.5591 654 -41 L654 -1.59335 C654 9.68689 662.647 23.4306 673.339 27.0266 C741.259 49.8706 800.219 87.6906 850.219 136.391 C862.854 148.697 863.734 168.349 850.63 180.155 L694.166 321.128 C683.717 330.542 658.869 328.159 647.988 319.248 C608.967 287.293 557.9 273 515 273 C437 273 334 329 334 470 C334 610 446 667 513 667 C548.7 667 600.295 655.44 641.378 621.88 C652.634 612.685 674.128 613.603 684.63 623.651 L848.721 780.642 C861.203 792.584 859.736 812.239 847.266 824.193 C797.466 871.931 739.346 908.388 672.906 931.006 C662.282 934.623 654 948.224 654 959.447 L654 981 C654 997.559 640.559 1011 624 1011 L387 1011 C370.441 1011 357 997.559 357 981 L357 951.79 C357 941.494 352.824 929.525 343.293 925.631 C166.334 853.327 38 683.75 38 479 C38 277.175 166.334 103.869 343.293 33.23 C352.971 29.3669 357 17.417 357 6.99694 L357 -41 C357 -57.5591 370.441 -71 387 -71 L387 -71 Z " />
<glyph glyph-name="sterling" unicode="&#xa3;" horiz-adv-x="934" d="M706 359 L706 481 C706 497.559 692.559 511 676 511 L473.443 511 C465.252 511 454.982 516.302 451.422 523.68 C439.392 548.612 430 579 430 613 C430 656 447 688 503 688 C627 688 709 591 709 591 C709 591 721.701 619.658 728.41 634.797 L816.303 833.119 C821.583 845.033 836.259 847.493 825.742 855.19 C819.053 860.086 682.675 958 475 958 C234 958 98 822 98 651 C98 600.85 106.67 560.815 120.939 527.824 C124.446 519.717 118.834 511 110 511 C99.5126 511 91 502.487 91 492 L91 359 C91 342.441 104.441 329 121 329 L184.063 329 C207.779 329 218.369 320.992 208.117 299.606 C189.366 260.487 139 253 139 253 C139 253 138.826 244.203 138.499 227.647 L134.605 30.5928 C134.271 13.7098 147.712 0 164.599 0 L807 0 C823.559 0 837 13.4409 837 30 L837 238 C837 254.559 823.559 268 807 268 L524.382 268 C520.062 268 517.049 271.331 518.216 275.49 C521.52 287.269 524.692 301.385 527.14 316.357 C528.127 322.391 534.483 329 540.597 329 L676 329 C692.559 329 706 342.441 706 359 L706 359 Z " />
<glyph glyph-name="yen" unicode="&#xa5;" horiz-adv-x="1078" d="M926.247 391.097 L741.484 398.143 C729.082 398.616 719 409.09 719 421.5 C719 433.908 729.083 444.425 741.48 444.949 L927.161 452.783 C943.067 453.454 955.953 466.944 955.896 482.865 L955.095 704.654 C955.043 719.075 943.169 732.498 928.863 734.309 L915.5 736 C895.695 738.507 886.499 757.848 897.058 774.791 L977.503 903.877 C990.643 924.963 977.87 948.902 953.039 949.727 L690.094 958.465 C682.691 958.711 668.956 951.917 664.66 945.883 L564.877 805.747 C551.341 786.737 526.365 787.842 514.561 807.973 L435.007 943.639 C430.643 951.082 416.826 958.717 408.202 958.45 L124.38 949.68 C98.9959 948.896 86.2322 923.957 100.443 902.908 L180.201 784.77 C192.04 767.234 184.012 746.193 163.5 741 L146.468 736.688 C134.468 733.65 123.921 720.202 123.831 707.824 L122.21 484.881 C122.094 468.951 134.938 455.414 150.853 454.694 L342.024 446.04 C354.693 445.467 365 434.682 365 422 C365 409.314 354.694 398.615 342.016 398.142 L152.672 391.071 C136.862 390.48 123.907 377.13 123.792 361.309 L122.21 143 C122.094 127.002 134.991 113.465 150.976 112.808 L338.923 105.073 C353.178 104.486 366.154 92.2247 367.547 78.0256 L372.346 29.0729 C373.804 14.2008 387.259 2 402.203 2 L681.824 2 C696.751 2 710.207 14.1892 711.678 29.0442 L716.423 76.97 C717.832 91.2039 730.845 103.45 745.138 103.993 L927.034 110.9 C943.013 111.507 955.953 124.996 955.896 140.986 L955.104 361.226 C955.046 377.095 942.104 390.492 926.247 391.097 L926.247 391.097 Z " />
<glyph glyph-name="section" unicode="&#xa7;" horiz-adv-x="913" d="M812.718 885.127 C805.409 888.407 656.6 954 446 954 C230 954 100 857 102 734 C102.825 686.15 115.221 651.913 139.748 622.303 C146.487 614.169 146.628 592.66 140.236 584.251 C115.716 551.992 100.35 514.475 102 479 C104 315 296 271 438 249 C523 233 547 229 547 217 C547 200 516 192 457 192 C300 192 182 278 182 278 C182 278 173.768 265.277 164.772 251.375 L85.9574 129.571 C78.2238 117.619 61.4784 117.135 72.2272 107.801 C78.1394 102.667 199.6 -0.025 457 -1 C686 -2 820 84 820 212 C820 259.025 807.749 296.521 782.685 327.296 C776.266 335.177 776.084 356.261 782.685 363.99 C807.749 393.337 820 427.925 820 470 C820 615 706 669 494 703 L467 709 C427 717 373 729 373 739 C373 752 392 762 446 762 C612 762 719 701 719 701 C719 701 725.755 714.223 733.289 728.969 L798.742 857.091 C806.656 872.582 828.589 878.006 812.718 885.127 L812.718 885.127 Z M574 474 C574 455.475 543.58 443.604 483.667 440.242 C483.234 440.218 475.475 440.613 475.047 440.688 C423.001 449.802 346 465.475 346 484 C346 499.6 375.469 513.299 438.116 513.974 C438.428 513.977 449.494 512.797 449.801 512.74 C536.926 496.547 574 487.65 574 474 L574 474 Z " />
<glyph glyph-name="dieresis" unicode="&#xa8;" horiz-adv-x="1071" d="M156 1100 C234 1022 359 1022 437 1100 C511 1177 512 1303 437 1381 C356 1460 236 1459 156 1381 C79 1304 80 1176 156 1100 L156 1100 Z M635 1100 C710 1022 837 1021 916 1100 C989 1179 990 1301 916 1381 C835 1460 713 1459 635 1381 C556 1305 557 1175 635 1100 L635 1100 Z " />
<glyph glyph-name="copyright" unicode="&#xa9;" horiz-adv-x="1074" d="M550 364 C515 364 468 390 468 454 C468 518 519 544 549 544 C564.743 544 588.038 539.194 606.37 524.463 C611.556 520.296 622.999 519.683 627.829 524.259 L690.902 584.012 C704.026 596.446 706.472 611.077 692.886 623.005 C654.742 656.492 605.4 676 551 676 C431 676 333 578 333 458 C333 338 431 240 551 240 C604.625 240 652.805 258.377 690.486 290.077 C704.818 302.134 704.97 319.332 691.139 331.96 L632.016 385.942 C626.979 390.541 615.953 390.042 610.741 385.644 C592.5 370.25 569.167 364 550 364 L550 364 Z M62 474 C62 210 277 -1 538 -1 C800 -1 1013 212 1013 474 C1013 735 799 949 538 949 C277 949 62 735 62 474 L62 474 Z M529 136 C400 136 229 227 229 463 C229 698 417 792 526 792 C643 792 844 724 855 460 C866 228 670 136 529 136 L529 136 Z " />
<glyph glyph-name="ordfeminine" unicode="&#xaa;" horiz-adv-x="638" d="M567.761 611.882 C565.888 610.964 553.462 605 547 605 C527 605 521 613 521 639 L521 769 C521 879 460 942 315 942 C187 942 113 913 113 913 C113 913 114.645 904.656 117.849 888.41 L135.287 799.972 C138.283 784.778 127.406 763.815 141.097 771.052 C143.615 772.382 194.9 799 269 799 C324 799 346 785 346 735 L346 728.099 C346 725.421 344.121 723.383 341.478 723.813 C331.054 725.508 315.273 727 298 727 C146 727 85 668 85 594 C85 504 144 457 223 457 C293.875 457 336.039 496.812 353.512 520.164 C356.262 523.839 362.64 522.139 364.95 518.172 C389.344 476.267 437.525 466 481 466 C541 466 585 499 585 499 C585 499 584.798 500.34 582.335 516.715 L569.164 604.261 C568.557 608.299 571.428 613.678 567.761 611.882 L567.761 611.882 Z M341.032 598.529 C330.513 589.982 314.296 582 293 582 C274 582 262 594 262 612 C262 641 281 651 309 651 C323.824 651 334.578 648.965 341.821 647.13 C343.769 646.637 346 644.369 346 642.36 L346 610.071 C346 606.59 343.734 600.724 341.032 598.529 L341.032 598.529 Z " />
<glyph glyph-name="guillemotleft" unicode="&#xab;" horiz-adv-x="1047" d="M223.498 793.253 L70.7964 510.44 C67.1728 503.728 67.2568 488.318 70.9534 481.646 L223.434 206.46 C227.57 198.996 241.141 191 249.675 191 L456.079 191 C480.664 191 494.236 214.036 482.32 235.54 L345.953 481.646 C342.257 488.318 342.173 503.728 345.796 510.44 L483.106 764.747 C494.711 786.24 481.135 809 456.708 809 L249.896 809 C241.204 809 227.627 800.901 223.498 793.253 L223.498 793.253 Z M653.498 793.253 L500.796 510.44 C497.173 503.728 497.257 488.318 500.953 481.646 L653.434 206.46 C657.57 198.996 671.141 191 679.675 191 L886.079 191 C910.664 191 924.236 214.036 912.32 235.54 L775.953 481.646 C772.257 488.318 772.173 503.728 775.796 510.44 L913.106 764.747 C924.711 786.24 911.135 809 886.708 809 L679.896 809 C671.204 809 657.627 800.901 653.498 793.253 L653.498 793.253 Z " />
<glyph glyph-name="logicalnot" unicode="&#xac;" horiz-adv-x="555" d="M423 268 L423 484 C423 500.559 409.559 514 393 514 L37 514 C20.4409 514 7 500.559 7 484 L7 396 C7 379.441 20.4409 366 37 366 L248 366 C264.559 366 278 352.559 278 336 L278 268 C278 251.441 291.441 238 308 238 L393 238 C409.559 238 423 251.441 423 268 L423 268 Z " />
<glyph glyph-name="registered" unicode="&#xae;" horiz-adv-x="1074" d="M62 474 C62 210 277 -1 538 -1 C800 -1 1013 212 1013 474 C1013 735 799 949 538 949 C277 949 62 735 62 474 L62 474 Z M529 136 C400 136 229 227 229 463 C229 698 417 792 526 792 C643 792 844 724 855 460 C866 228 670 136 529 136 L529 136 Z M378 250 L467 250 C483.559 250 497 263.441 497 280 L497 331.818 C497 339.821 503.856 349.128 511.5 351.5 C519.037 353.839 528.85 351.301 533.131 344.672 C574.412 280.749 611.519 254.265 718.816 250.482 C735.948 249.878 748 262.857 748 280 L748 346.5 C748 355.461 735.642 368.424 726.954 370.618 C696.377 378.342 678 400.7 678 404 C730 423 749 480 749 531 C749 618 695 687 564 687 L378 687 C361.441 687 348 673.559 348 657 L348 280 C348 263.441 361.441 250 378 250 L378 250 Z M604 534 C604 494.9 556.315 476.03 518.059 471.249 C506.042 469.747 498.936 477.39 498.832 489.499 L498.261 555.741 C498.109 573.338 509.952 586.26 527.523 585.308 C578.712 582.535 604 570.55 604 534 L604 534 Z " />
<glyph glyph-name="degree" unicode="&#xb0;" horiz-adv-x="534" d="M65 762 C65 650 157 559 268 559 C379 559 471 650 471 762 C471 873 379 964 268 964 C157 964 65 873 65 762 L65 762 Z M269 697 C245 697 213 714 213 757 C213 800 248 817 268 817 C288 817 326 806 329 757 C329 714 294 697 269 697 L269 697 Z " />
<glyph glyph-name="plusminus" unicode="&#xb1;" horiz-adv-x="1080" d="M975.095 321 L737 321 C720.441 321 707 334.441 707 351 L707 383.201 C707 399.649 720.351 413.09 736.799 413.2 L975.107 414.799 C991.607 414.91 1004.96 428.393 1004.91 444.894 L1004.09 701.095 C1004.04 717.602 990.601 731 974.095 731 L737 731 C720.441 731 707 744.441 707 761 L707 918 C707 934.559 693.559 948 677 948 L409 948 C392.441 948 379 934.559 379 918 L379 761 C379 744.441 365.559 731 349 731 L104.81 731 C88.3559 731 74.9149 717.644 74.8101 701.191 L73.1898 446.799 C73.085 430.351 86.3504 416.825 102.797 416.61 L349.392 413.387 C365.733 413.173 379 399.732 379 383.39 L379 351 C379 334.441 365.559 321 349 321 L105.81 321 C89.3559 321 75.9149 307.644 75.8101 291.191 L74.1919 37.1264 C74.086 20.4977 87.4979 6.97103 104.127 6.93535 L975.84 5.06472 C992.487 5.029 1005.96 18.5126 1005.9 35.1596 L1005.09 291.095 C1005.04 307.602 991.601 321 975.095 321 L975.095 321 Z " />
<glyph glyph-name="acute" unicode="&#xb4;" horiz-adv-x="491" d="M24.2476 1161.75 L87.3631 1098.64 C94.9162 1091.08 111.137 1088.11 120.879 1092.49 L375.18 1206.83 C376.089 1207.24 383.075 1211.99 383.789 1212.68 L466.247 1292.85 C478.253 1304.52 478.415 1323.64 466.608 1335.51 L333.179 1469.7 C321.489 1481.46 302.469 1481.5 290.727 1469.8 L24.282 1204.21 C12.535 1192.5 12.5196 1173.48 24.2476 1161.75 L24.2476 1161.75 Z " />
<glyph glyph-name="mu" unicode="&#xb5;" horiz-adv-x="1086" d="M1052.87 269.939 C1050.79 268.981 1024.56 257 1014 257 C976 257 967 271 967 318 L967 894.75 C967 915.255 949.766 928.772 929.852 923.886 L667.852 859.606 C655.602 856.601 645 843.084 645 830.471 L645 345.472 C645 339.767 638.763 326.443 634.455 322.703 C608.875 300.5 576.5 276 538 276 C489 276 454 309 454 420 L454 894.75 C454 915.255 436.766 928.772 416.852 923.886 L154.852 859.606 C142.602 856.601 132 843.084 132 830.471 L132 -428 C132 -444.559 145.441 -458 162 -458 L424 -458 C440.559 -458 454 -444.559 454 -428 L454 -36.8673 C454 -24.1364 467.995 -8.86043 480.381 -5.91725 C571.181 15.6587 629.981 72.8188 656.781 108.219 C661.641 114.638 671.132 113.041 674.755 105.851 C708.977 37.9363 772.825 2 894 2 C1003 2 1083 62 1083 62 C1083 62 1082.82 63.2188 1080.46 79.6083 L1055.2 254.723 C1054.04 262.781 1060.26 273.345 1052.87 269.939 L1052.87 269.939 Z " />
<glyph glyph-name="paragraph" unicode="&#xb6;" horiz-adv-x="1397" d="M352 608 C352 694.95 418.739 717.728 546.676 720.656 C563.672 721.045 578.95 707.887 578.885 690.886 L578.114 487.886 C578.047 470.299 568.322 457.748 550.774 458.906 C465.4 464.54 352 498.2 352 608 L352 608 Z M1247.62 696.321 L1255.38 696.679 C1271.16 697.407 1284 710.852 1284 726.647 L1284 922.964 C1284 939.543 1270.54 952.984 1253.96 952.964 L447 952 C166 952 36 804 36 614 C36 426.8 152.927 250.057 550.835 223.726 C566.267 222.705 582 208.783 582 193.317 L582 34.883 C582 18.3886 595.389 4.9477 611.883 4.88327 L807.883 4.11765 C824.506 4.05271 838 17.4936 838 34.1174 L838 694 C838 710.559 851.441 724 868 724 L936 724 C952.559 724 966 710.559 966 694 L966 32.8817 C966 16.388 979.388 2.94708 995.881 2.88189 L1188.88 2.11905 C1205.51 2.05334 1219 15.4943 1219 32.1188 L1219 666.353 C1219 682.148 1231.84 695.593 1247.62 696.321 L1247.62 696.321 Z " />
<glyph glyph-name="periodcentered" unicode="&#xb7;" horiz-adv-x="833" d="" />
<glyph glyph-name="cedilla" unicode="&#xb8;" horiz-adv-x="428" d="M193 -67 C223 -67 262 -87 262 -142 C262 -192 218 -215 194 -215 C181.586 -215 162.323 -210.891 147.548 -198.704 C143.411 -195.292 134.14 -194.673 130.275 -198.389 L78.6015 -248.076 C67.5574 -258.695 67.7179 -272.843 79.4872 -282.652 C110.314 -308.346 149.275 -324 193 -324 C293 -324 372 -244 372 -145 C372 -45 293 34 193 34 C149.275 34 109.634 18.3456 78.5684 -7.34797 C66.7528 -17.1204 66.6859 -31.151 77.9701 -41.5325 L126.092 -85.8051 C130.16 -89.5473 139.026 -89.0434 143.185 -85.4028 C157.861 -72.5556 177.167 -67 193 -67 L193 -67 Z " />
<glyph glyph-name="ordmasculine" unicode="&#xba;" horiz-adv-x="628" d="M560 698 C560 832 474 942 314 942 C155 942 69 832 69 698 C69 569 158 457 314 457 C471 457 560 569 560 698 L560 698 Z M314 602 C273 602 246 643 246 699 C246 753 265 797 314 797 C363 797 383 752 383 699 C383 643 355 602 314 602 L314 602 Z " />
<glyph glyph-name="guillemotright" unicode="&#xbb;" horiz-adv-x="1047" d="M563.894 764.747 L701.204 510.44 C704.827 503.728 704.743 488.318 701.047 481.646 L564.68 235.54 C552.764 214.036 566.336 191 590.921 191 L796.325 191 C804.859 191 818.43 198.996 822.566 206.46 L975.047 481.646 C978.743 488.318 978.827 503.728 975.204 510.44 L822.502 793.253 C818.373 800.901 804.796 809 796.104 809 L590.292 809 C565.865 809 552.289 786.24 563.894 764.747 L563.894 764.747 Z M133.894 764.747 L271.204 510.44 C274.827 503.728 274.743 488.318 271.047 481.646 L134.68 235.54 C122.764 214.036 136.336 191 160.921 191 L367.325 191 C375.859 191 389.43 198.996 393.566 206.46 L546.047 481.646 C549.743 488.318 549.827 503.728 546.204 510.44 L393.502 793.253 C389.373 800.901 375.796 809 367.104 809 L160.292 809 C135.865 809 122.289 786.24 133.894 764.747 L133.894 764.747 Z " />
<glyph glyph-name="questiondown" unicode="&#xbf;" horiz-adv-x="798" d="M508.932 333.992 C508.125 296.859 499.375 218 411 218 C358 218 334 238 322 261 C315 273 312 287 312 304 C312 398.05 552.065 402.752 576.072 556.458 C579.038 575.451 567.023 581.927 547.8 581.799 L293.5 580.103 C291.182 580.088 273.359 571.188 271.676 569.595 C235.01 534.9 50.6 467.4 29 327 C21 271 2 1 368 1 C594 1 697 87 741 174 C763.1 217.35 774.362 265.757 774.787 319.222 C774.921 335.975 762.436 347.956 745.683 347.893 L522 347.049 C514.981 347.023 509.084 341.01 508.932 333.992 L508.932 333.992 Z M588 794 C588 884 513 959 424 959 C332 959 258 884 258 794 C258 703 332 629 424 629 C513 629 588 703 588 794 L588 794 Z " />
<glyph glyph-name="Agrave" unicode="&#xc0;" horiz-adv-x="1013" d="M315.084 21.8363 L335.889 80.0901 C339.586 90.4395 353.152 100 364.142 100 L661.958 100 C673.568 100 687.117 90.045 690.587 78.9647 L708.413 22.0353 C711.883 10.955 725.432 1 737.042 1 L962.265 1 C984.101 1 997.659 19.8618 990.702 40.5592 L693.961 923.292 C690.304 934.17 676.631 943.872 665.155 943.73 L383.725 940.256 C373.025 940.124 359.569 930.579 355.907 920.525 L35.7204 41.4164 C28.0955 20.4815 41.7334 1.07224 64.0134 1.14987 L286.937 1.92661 C297.872 1.96471 311.406 11.538 315.084 21.8363 L315.084 21.8363 Z M550.059 519.441 L590.474 393.143 C597.059 372.565 583.507 354 561.901 354 L476.524 354 C454.412 354 440.846 373.229 448.262 394.061 L493.224 520.359 C503.193 548.362 541 547.751 550.059 519.441 L550.059 519.441 Z M427.787 1477.79 L293.613 1343.61 C281.686 1331.69 281.865 1312.5 294.014 1300.79 L377.245 1220.62 C377.944 1219.94 384.87 1215.26 385.755 1214.86 L640.223 1100.44 C649.894 1096.09 666.096 1099.02 673.631 1106.48 L736.571 1168.79 C748.399 1180.5 748.447 1199.55 736.679 1211.32 L470.213 1477.79 C458.504 1489.5 439.496 1489.5 427.787 1477.79 L427.787 1477.79 Z " />
<glyph glyph-name="Aacute" unicode="&#xc1;" horiz-adv-x="1014" d="M302.084 21.8363 L322.889 80.0901 C326.586 90.4395 340.152 100 351.142 100 L648.958 100 C660.568 100 674.117 90.045 677.587 78.9647 L695.413 22.0353 C698.883 10.955 712.432 1 724.042 1 L949.265 1 C971.101 1 984.659 19.8618 977.702 40.5592 L680.962 923.291 C677.304 934.17 663.63 943.872 652.154 943.729 L371.703 940.256 C361.019 940.124 347.562 930.589 343.896 920.552 L22.7731 41.4431 C15.1236 20.5016 28.7619 1.07234 51.0565 1.15002 L273.937 1.92661 C284.872 1.96471 298.406 11.538 302.084 21.8363 L302.084 21.8363 Z M537.755 519.331 L577.664 393.039 C584.156 372.492 570.606 354 549.058 354 L463.685 354 C441.517 354 427.949 373.304 435.458 394.162 L480.923 520.453 C490.992 548.421 528.799 547.675 537.755 519.331 L537.755 519.331 Z M281.179 1168.82 L343.384 1106.62 C350.923 1099.08 367.134 1096.09 376.863 1100.45 L632.158 1214.83 C633.075 1215.24 640.084 1220 640.804 1220.7 L723.185 1300.79 C735.225 1312.5 735.36 1331.64 723.486 1343.51 L589.248 1477.75 C577.52 1489.48 558.496 1489.47 546.787 1477.72 L281.144 1211.21 C269.473 1199.5 269.489 1180.51 281.179 1168.82 L281.179 1168.82 Z " />
<glyph glyph-name="Acircumflex" unicode="&#xc2;" horiz-adv-x="1049" d="M325.194 21.5826 L346.78 80.3445 C350.521 90.5284 364.09 100 374.94 100 L672.169 100 C683.635 100 697.188 90.1372 700.715 79.2269 L719.285 21.7731 C722.812 10.8628 736.365 1 747.831 1 L973.223 1 C995.074 1 1008.63 19.8814 1001.65 40.5863 L703.974 923.318 C700.312 934.18 686.637 943.872 675.176 943.73 L394.703 940.256 C384.019 940.124 370.562 930.589 366.896 920.552 L45.7731 41.4431 C38.1236 20.5016 51.7619 1.07234 74.0565 1.15002 L297.138 1.92731 C307.933 1.96492 321.471 11.4496 325.194 21.5826 L325.194 21.5826 Z M560.755 519.331 L600.664 393.039 C607.156 372.492 593.606 354 572.058 354 L486.685 354 C464.517 354 450.949 373.304 458.458 394.162 L503.923 520.453 C513.992 548.421 551.799 547.675 560.755 519.331 L560.755 519.331 Z M261.288 1063.99 L514.548 1201.17 C521.271 1204.81 536.689 1204.74 543.377 1201.03 L789.46 1064.68 C810.964 1052.76 834 1066.34 834 1090.92 L834 1277.33 C834 1285.86 826.004 1299.43 818.54 1303.57 L543.377 1456.03 C536.689 1459.74 521.271 1459.81 514.548 1456.17 L232.712 1303.51 C225.086 1299.38 217 1285.8 217 1277.13 L217 1090.37 C217 1065.92 239.793 1052.35 261.288 1063.99 L261.288 1063.99 Z " />
<glyph glyph-name="Atilde" unicode="&#xc3;" horiz-adv-x="1142" d="M378.084 21.8363 L398.889 80.0901 C402.586 90.4395 416.152 100 427.142 100 L724.958 100 C736.568 100 750.117 90.045 753.587 78.9647 L771.413 22.0353 C774.883 10.955 788.432 1 800.042 1 L1025.27 1 C1047.1 1 1060.66 19.8618 1053.7 40.5592 L756.962 923.291 C753.304 934.17 739.63 943.872 728.154 943.729 L447.703 940.256 C437.019 940.124 423.562 930.589 419.896 920.552 L98.7731 41.4431 C91.1236 20.5016 104.762 1.07234 127.057 1.15002 L349.937 1.92661 C360.872 1.96471 374.406 11.538 378.084 21.8363 L378.084 21.8363 Z M613.755 519.331 L653.664 393.039 C660.156 372.492 646.606 354 625.058 354 L539.685 354 C517.517 354 503.949 373.304 511.458 394.162 L556.923 520.453 C566.992 548.421 604.799 547.675 613.755 519.331 L613.755 519.331 Z M996.49 1328.31 L986.406 1335.47 C981.142 1339.22 964.031 1341.54 957.855 1339.65 C919.438 1327.89 858.625 1321.88 758 1335 L439 1372 C392 1378 349 1380 311 1379 C243 1376 179 1365 174 1325 L148.411 1127.6 C147.215 1118.37 153.891 1103.8 161.662 1098.69 L173.568 1090.85 C178.848 1087.37 197.427 1086.19 203.424 1088.19 C245.109 1102.09 310.625 1111.5 406 1101 L725 1061 C845 1046 911 1058 946 1073 C965.25 1081.25 978.618 1092.02 984.564 1103.77 C985.018 1104.67 986.324 1109.73 986.442 1110.73 L1008.91 1300.32 C1009.92 1308.89 1003.52 1323.32 996.49 1328.31 L996.49 1328.31 Z " />
<glyph glyph-name="Adieresis" unicode="&#xc4;" horiz-adv-x="1042" d="M320.194 21.5826 L341.78 80.3445 C345.521 90.5284 359.09 100 369.94 100 L667.169 100 C678.635 100 692.188 90.1372 695.715 79.2269 L714.285 21.7731 C717.812 10.8628 731.365 1 742.831 1 L968.223 1 C990.074 1 1003.63 19.8814 996.651 40.5863 L698.974 923.318 C695.312 934.18 681.637 943.872 670.176 943.73 L389.703 940.256 C379.019 940.124 365.562 930.589 361.896 920.552 L40.7731 41.4431 C33.1236 20.5016 46.7619 1.07234 69.0565 1.15002 L292.138 1.92731 C302.933 1.96492 316.471 11.4496 320.194 21.5826 L320.194 21.5826 Z M555.755 519.331 L595.664 393.039 C602.156 372.492 588.606 354 567.058 354 L481.685 354 C459.517 354 445.949 373.304 453.458 394.162 L498.923 520.453 C508.992 548.421 546.799 547.675 555.755 519.331 L555.755 519.331 Z M158 1108 C236 1030 361 1030 439 1108 C513 1185 514 1311 439 1389 C358 1468 238 1467 158 1389 C81 1312 82 1184 158 1108 L158 1108 Z M637 1108 C712 1030 839 1029 918 1108 C991 1187 992 1309 918 1389 C837 1468 715 1467 637 1389 C558 1313 559 1183 637 1108 L637 1108 Z " />
<glyph glyph-name="Aring" unicode="&#xc5;" horiz-adv-x="1042" d="M320.194 21.5826 L341.78 80.3445 C345.521 90.5284 359.09 100 369.94 100 L667.169 100 C678.635 100 692.188 90.1372 695.715 79.2269 L714.285 21.7731 C717.812 10.8628 731.365 1 742.831 1 L968.223 1 C990.074 1 1003.63 19.8814 996.651 40.5863 L698.974 923.318 C695.312 934.18 681.637 943.872 670.176 943.73 L389.703 940.256 C379.019 940.124 365.562 930.589 361.896 920.552 L40.7731 41.4431 C33.1236 20.5016 46.7619 1.07234 69.0565 1.15002 L292.138 1.92731 C302.933 1.96492 316.471 11.4496 320.194 21.5826 L320.194 21.5826 Z M555.755 519.331 L595.664 393.039 C602.156 372.492 588.606 354 567.058 354 L481.685 354 C459.517 354 445.949 373.304 453.458 394.162 L498.923 520.453 C508.992 548.421 546.799 547.675 555.755 519.331 L555.755 519.331 Z M320 1291 C320 1179 412 1088 523 1088 C634 1088 726 1179 726 1291 C726 1402 634 1493 523 1493 C412 1493 320 1402 320 1291 L320 1291 Z M524 1227 C500 1227 468 1243 468 1286 C468 1329 503 1347 523 1347 C543 1347 581 1336 584 1286 C584 1243 549 1227 524 1227 L524 1227 Z " />
<glyph glyph-name="AE" unicode="&#xc6;" horiz-adv-x="1342" d="M370.122 24.0407 L382.874 69.9469 C386.135 81.6871 399.703 91.9614 411.888 91.9174 L643.999 91.0794 C655.581 91.0376 669.095 81.0516 672.536 69.9916 L687.439 22.088 C690.897 10.9735 704.445 1 716.085 1 L1179 1 C1195.56 1 1209 14.4409 1209 31 L1209 210 C1209 226.559 1195.56 240 1179 240 L965.518 240 C954.268 240 940.708 249.726 937.101 260.382 L913.409 330.382 C906.398 351.096 919.958 370 941.826 370 L1179 370 C1195.56 370 1209 383.441 1209 400 L1209 577 C1209 593.559 1195.56 607 1179 607 L841.557 607 C830.28 607 816.721 616.743 813.124 627.431 L798.316 671.431 C791.35 692.131 804.909 711 826.749 711 L1179 711 C1195.56 711 1209 724.441 1209 741 L1209 917.108 C1209 933.608 1195.61 947.049 1179.11 947.108 L402.122 949.923 C391.146 949.963 377.545 940.46 373.807 930.14 L52.5188 43.0855 C44.9755 22.259 58.4833 2.93717 80.6336 2.86922 L341.125 2.07017 C353.301 2.03282 366.864 12.3088 370.122 24.0407 L370.122 24.0407 Z M559.24 464.476 L591.75 360.992 C598.201 340.459 584.652 322 563.13 322 L492.156 322 C469.827 322 456.256 341.523 464.035 362.452 L502.499 465.936 C512.824 493.718 550.357 492.752 559.24 464.476 L559.24 464.476 Z " />
<glyph glyph-name="Ccedilla" unicode="&#xc7;" horiz-adv-x="879" d="M419 -67 C449 -67 487 -87 487 -142 C487 -192 444 -215 420 -215 C406.759 -215 388.038 -210.891 372.907 -198.704 C368.542 -195.188 359.088 -194.723 355.047 -198.608 L304.096 -247.6 C292.933 -258.333 293.251 -272.903 305.283 -282.652 C336.995 -308.346 375.275 -324 419 -324 C517 -324 598 -244 598 -145 C598 -94.675 577.581 -49.1144 544.043 -17.3024 C537.95 -11.5227 542.718 2.51695 551.065 3.44491 C663.448 15.9388 762.014 65.0274 837.549 139.656 C850.013 151.97 847.701 168.378 834.685 180.106 L678.166 321.128 C667.717 330.542 642.869 328.159 631.988 319.248 C592.967 287.293 541.9 273 499 273 C422 273 318 329 318 470 C318 610 431 667 497 667 C533.3 667 581.851 656.11 621.878 624.784 C633.054 616.038 658.376 613.84 668.63 623.651 L832.89 780.803 C845.256 792.634 845.823 810.228 833.585 822.191 C747.166 906.663 630.5 958 501 958 C238 958 22 744 22 479 C22 271.325 156.038 93.1194 342.551 27.8005 C347.366 26.114 348.275 19.543 343.637 17.4155 C324.875 8.80886 308.454 -2.1385 294.374 -15.4266 C288.238 -21.2172 289.212 -28.8748 295.421 -34.587 L350.86 -85.5911 C355.109 -89.5001 364.146 -89.1518 368.537 -85.4028 C383.583 -72.5556 402.333 -67 419 -67 L419 -67 Z " />
<glyph glyph-name="Egrave" unicode="&#xc8;" horiz-adv-x="912" d="M390.285 290.159 L390.724 336.773 C390.876 352.9 404.099 366.218 420.224 366.486 L782.499 372.509 C798.78 372.78 812 386.222 812 402.505 L812 584.929 C812 601.527 798.527 614.968 781.929 614.929 L421.071 614.071 C404.473 614.032 391 627.473 391 644.071 L391 682.062 C391 698.587 404.413 712.028 420.938 712.062 L846.062 712.938 C862.587 712.972 876 726.413 876 742.938 L876 913.074 C876 929.592 862.592 943.033 846.074 943.074 L99.0425 944.926 C82.46 944.967 68.9858 931.54 68.9682 914.957 L68.0319 30.1058 C68.0143 13.4884 81.4884 0.0332226 98.1057 0.0741521 L849.172 1.92407 C866.134 1.96585 879.614 14.7837 879.159 31.74 C877.136 107.148 876.255 171.744 876.049 230.184 C875.991 246.616 862.556 258.055 846.123 258.123 L420.16 259.876 C403.513 259.944 390.127 273.512 390.285 290.159 L390.285 290.159 Z M384.787 1477.79 L250.613 1343.61 C238.686 1331.69 238.865 1312.5 251.014 1300.79 L334.245 1220.62 C334.944 1219.94 341.87 1215.26 342.755 1214.86 L597.223 1100.44 C606.894 1096.09 623.096 1099.02 630.631 1106.48 L693.571 1168.79 C705.399 1180.5 705.447 1199.55 693.679 1211.32 L427.213 1477.79 C415.504 1489.5 396.496 1489.5 384.787 1477.79 L384.787 1477.79 Z " />
<glyph glyph-name="Eacute" unicode="&#xc9;" horiz-adv-x="912" d="M371.285 290.159 L371.724 336.773 C371.876 352.9 385.099 366.218 401.224 366.486 L763.499 372.509 C779.78 372.78 793 386.222 793 402.505 L793 584.929 C793 601.527 779.527 614.968 762.929 614.929 L402.071 614.071 C385.473 614.032 372 627.473 372 644.071 L372 682.062 C372 698.587 385.413 712.028 401.938 712.062 L827.062 712.938 C843.587 712.972 857 726.413 857 742.938 L857 913.074 C857 929.592 843.592 943.033 827.074 943.074 L81.0426 944.925 C64.46 944.967 50.9858 931.54 50.9682 914.957 L50.0319 30.1059 C50.0143 13.4884 63.4884 0.0332637 80.1058 0.0742437 L830.172 1.92398 C847.134 1.96581 860.614 14.7838 860.159 31.74 C858.136 107.148 857.255 171.744 857.049 230.184 C856.991 246.616 843.556 258.055 827.123 258.123 L401.16 259.876 C384.513 259.944 371.127 273.512 371.285 290.159 L371.285 290.159 Z M232.429 1168.79 L295.369 1106.48 C302.904 1099.02 319.106 1096.09 328.777 1100.44 L583.18 1214.83 C584.089 1215.24 591.075 1219.99 591.789 1220.68 L674.247 1300.85 C686.253 1312.52 686.415 1331.64 674.608 1343.51 L541.213 1477.67 C529.504 1489.44 510.469 1489.47 498.727 1477.73 L232.321 1211.32 C220.553 1199.55 220.601 1180.5 232.429 1168.79 L232.429 1168.79 Z " />
<glyph glyph-name="Ecircumflex" unicode="&#xca;" horiz-adv-x="969" d="M409.285 290.159 L409.724 336.773 C409.876 352.9 423.099 366.218 439.224 366.486 L801.499 372.509 C817.78 372.78 831 386.222 831 402.505 L831 584.929 C831 601.527 817.527 614.968 800.929 614.929 L440.071 614.071 C423.473 614.032 410 627.473 410 644.071 L410 682.062 C410 698.587 423.413 712.028 439.938 712.062 L866.062 712.938 C882.587 712.972 896 726.413 896 742.938 L896 913.074 C896 929.592 882.592 943.033 866.074 943.074 L119.043 944.926 C102.46 944.967 88.9858 931.54 88.9682 914.957 L88.0319 30.1059 C88.0143 13.4884 101.488 0.0332637 118.106 0.0742437 L868.172 1.92398 C885.104 1.96573 898.61 14.8136 898.187 31.74 C896.304 107.148 896.042 171.744 896.006 230.184 C895.996 246.664 882.604 258.055 866.123 258.123 L439.16 259.876 C422.513 259.945 409.127 273.512 409.285 290.159 L409.285 290.159 Z M227.288 1063.99 L480.548 1201.17 C487.271 1204.81 502.689 1204.74 509.377 1201.03 L755.46 1064.68 C776.964 1052.76 800 1066.34 800 1090.92 L800 1277.33 C800 1285.86 792.004 1299.43 784.54 1303.57 L509.377 1456.03 C502.689 1459.74 487.271 1459.81 480.548 1456.17 L198.712 1303.51 C191.086 1299.38 183 1285.8 183 1277.13 L183 1090.37 C183 1065.92 205.793 1052.35 227.288 1063.99 L227.288 1063.99 Z " />
<glyph glyph-name="Edieresis" unicode="&#xcb;" horiz-adv-x="1083" d="M459.285 290.159 L459.724 336.773 C459.876 352.9 473.099 366.218 489.224 366.486 L851.499 372.509 C867.78 372.78 881 386.222 881 402.505 L881 584.929 C881 601.527 867.527 614.968 850.929 614.929 L490.071 614.071 C473.473 614.032 460 627.473 460 644.071 L460 682.062 C460 698.587 473.413 712.028 489.938 712.062 L915.062 712.938 C931.587 712.972 945 726.413 945 742.938 L945 913.074 C945 929.592 931.592 943.033 915.074 943.074 L169.043 944.925 C152.46 944.967 138.986 931.54 138.968 914.957 L138.032 30.1059 C138.014 13.4884 151.488 0.0332637 168.106 0.0742437 L918.172 1.92398 C935.134 1.96581 948.614 14.7838 948.159 31.74 C946.136 107.148 945.255 171.744 945.049 230.184 C944.991 246.616 931.556 258.055 915.123 258.123 L489.16 259.876 C472.513 259.944 459.127 273.512 459.285 290.159 L459.285 290.159 Z M163 1107 C240 1030 365 1031 444 1107 C519 1187 519 1309 444 1389 C364 1467 242 1468 163 1389 C86 1309 86 1187 163 1107 L163 1107 Z M642 1107 C718 1031 844 1030 923 1107 C997 1189 997 1307 923 1389 C842 1468 720 1467 642 1389 C564 1311 564 1185 642 1107 L642 1107 Z " />
<glyph glyph-name="Igrave" unicode="&#xcc;" horiz-adv-x="716" d="M101 700 L180 700 C196.559 700 210 686.559 210 670 L210 285 C210 268.441 196.559 255 180 255 L101 255 C84.4409 255 71 241.559 71 225 L71 32 C71 15.4409 84.4409 2 101 2 L647 2 C663.559 2 677 15.4409 677 32 L677 225 C677 241.559 663.559 255 647 255 L569 255 C552.441 255 539 268.441 539 285 L539 670 C539 686.559 552.441 700 569 700 L647 700 C663.559 700 677 713.441 677 730 L677 923 C677 939.559 663.559 953 647 953 L101 953 C84.4409 953 71 939.559 71 923 L71 730 C71 713.441 84.4409 700 101 700 L101 700 Z M286.752 1477.75 L152.514 1343.51 C140.64 1331.64 140.775 1312.5 152.815 1300.79 L235.196 1220.7 C235.916 1220 242.925 1215.24 243.842 1214.83 L499.137 1100.45 C508.866 1096.09 525.077 1099.08 532.616 1106.62 L594.821 1168.82 C606.511 1180.51 606.527 1199.5 594.856 1211.21 L329.213 1477.72 C317.504 1489.47 298.48 1489.48 286.752 1477.75 L286.752 1477.75 Z " />
<glyph glyph-name="Iacute" unicode="&#xcd;" horiz-adv-x="716" d="M70 700 L149 700 C165.559 700 179 686.559 179 670 L179 285 C179 268.441 165.559 255 149 255 L70 255 C53.4409 255 40 241.559 40 225 L40 32 C40 15.4409 53.4409 2 70 2 L616 2 C632.559 2 646 15.4409 646 32 L646 225 C646 241.559 632.559 255 616 255 L538 255 C521.441 255 508 268.441 508 285 L508 670 C508 686.559 521.441 700 538 700 L616 700 C632.559 700 646 713.441 646 730 L646 923 C646 939.559 632.559 953 616 953 L70 953 C53.4409 953 40 939.559 40 923 L40 730 C40 713.441 53.4409 700 70 700 L70 700 Z M121.179 1168.82 L183.384 1106.62 C190.923 1099.08 207.134 1096.09 216.863 1100.45 L472.158 1214.83 C473.075 1215.24 480.084 1220 480.804 1220.7 L563.185 1300.79 C575.225 1312.5 575.36 1331.64 563.486 1343.51 L429.248 1477.75 C417.52 1489.48 398.496 1489.47 386.787 1477.72 L121.144 1211.21 C109.473 1199.5 109.489 1180.51 121.179 1168.82 L121.179 1168.82 Z " />
<glyph glyph-name="Icircumflex" unicode="&#xce;" horiz-adv-x="812" d="M133 700 L211 700 C227.559 700 241 686.559 241 670 L241 285 C241 268.441 227.559 255 211 255 L133 255 C116.441 255 103 241.559 103 225 L103 32 C103 15.4409 116.441 2 133 2 L678 2 C694.559 2 708 15.4409 708 32 L708 225 C708 241.559 694.559 255 678 255 L600 255 C583.441 255 570 268.441 570 285 L570 670 C570 686.559 583.441 700 600 700 L678 700 C694.559 700 708 713.441 708 730 L708 923 C708 939.559 694.559 953 678 953 L133 953 C116.441 953 103 939.559 103 923 L103 730 C103 713.441 116.441 700 133 700 L133 700 Z M140.288 1063.99 L393.548 1201.17 C400.271 1204.81 415.689 1204.74 422.377 1201.03 L668.46 1064.68 C689.964 1052.76 713 1066.34 713 1090.92 L713 1277.33 C713 1285.86 705.004 1299.43 697.54 1303.57 L422.377 1456.03 C415.689 1459.74 400.271 1459.81 393.548 1456.17 L111.712 1303.51 C104.086 1299.38 96 1285.8 96 1277.13 L96 1090.37 C96 1065.92 118.793 1052.35 140.288 1063.99 L140.288 1063.99 Z " />
<glyph glyph-name="Idieresis" unicode="&#xcf;" horiz-adv-x="1005" d="M230 700 L309 700 C325.559 700 339 686.559 339 670 L339 285 C339 268.441 325.559 255 309 255 L230 255 C213.441 255 200 241.559 200 225 L200 32 C200 15.4409 213.441 2 230 2 L776 2 C792.559 2 806 15.4409 806 32 L806 225 C806 241.559 792.559 255 776 255 L698 255 C681.441 255 668 268.441 668 285 L668 670 C668 686.559 681.441 700 698 700 L776 700 C792.559 700 806 713.441 806 730 L806 923 C806 939.559 792.559 953 776 953 L230 953 C213.441 953 200 939.559 200 923 L200 730 C200 713.441 213.441 700 230 700 L230 700 Z M124 1107 C201 1030 326 1031 405 1107 C480 1187 480 1309 405 1389 C325 1467 203 1468 124 1389 C47 1309 47 1187 124 1107 L124 1107 Z M603 1107 C679 1031 805 1030 884 1107 C957 1188 957 1308 884 1389 C803 1468 681 1467 603 1389 C525 1311 525 1185 603 1107 L603 1107 Z " />
<glyph glyph-name="Ntilde" unicode="&#xd1;" horiz-adv-x="1174" d="M424.138 38.8618 L425.577 351.209 C425.715 381.131 462.308 392.904 479.868 368.676 L733.017 19.3946 C737.032 13.8551 750.466 7 757.308 7 L1028.13 7 C1044.62 7 1058.06 20.3837 1058.13 36.8721 L1061.87 914.872 C1061.94 931.502 1048.5 945 1031.87 945 L772.147 945 C755.507 945 742.066 931.493 742.147 914.854 L743.571 622.892 C743.716 593.23 708.173 580.904 689.922 604.287 L433.008 933.458 C429.089 938.48 415.73 945 409.359 945 L148.064 945 C131.47 945 118.029 931.53 118.064 914.936 L119.936 38.9359 C119.971 22.4122 133.412 9 149.936 9 L394.138 9 C410.621 9 424.062 22.3791 424.138 38.8618 L424.138 38.8618 Z M1006.57 1328.25 L996.56 1335.37 C991.271 1339.12 974.304 1341.56 968.104 1339.65 C930 1327.89 867.875 1321.88 769 1335 L450 1372 C403 1378 360 1380 321 1379 C255 1376 190 1365 185 1325 L159.38 1127.36 C158.206 1118.3 164.775 1103.75 172.347 1098.64 L183.628 1091.03 C188.94 1087.44 207.665 1086.19 213.754 1088.19 C256.109 1102.09 321.625 1111.5 417 1101 L735 1061 C856 1046 922 1058 957 1073 C975.375 1080.88 987.625 1091.05 994.42 1102.18 C995.223 1103.49 997.371 1110.27 997.546 1111.8 L1019 1300.41 C1019.97 1308.91 1013.54 1323.3 1006.57 1328.25 L1006.57 1328.25 Z " />
<glyph glyph-name="Ograve" unicode="&#xd2;" horiz-adv-x="1003" d="M28 478 C28 213 243 -1 507 -1 C770 -1 985 213 985 478 C985 741 770 956 507 956 C243 956 28 741 28 478 L28 478 Z M505 271 C428 271 324 327 324 468 C324 608 437 665 503 665 C574 665 692 625 700 466 C705 327 590 271 505 271 L505 271 Z M418.787 1477.67 L285.392 1343.51 C273.585 1331.64 273.747 1312.52 285.753 1300.85 L368.211 1220.68 C368.925 1219.99 375.911 1215.24 376.82 1214.83 L631.223 1100.44 C640.894 1096.09 657.096 1099.02 664.631 1106.48 L727.571 1168.79 C739.399 1180.5 739.447 1199.55 727.679 1211.32 L461.273 1477.73 C449.531 1489.47 430.496 1489.44 418.787 1477.67 L418.787 1477.67 Z " />
<glyph glyph-name="Oacute" unicode="&#xd3;" horiz-adv-x="1003" d="M19 478 C19 213 233 -1 497 -1 C761 -1 976 213 976 478 C976 741 761 956 497 956 C233 956 19 741 19 478 L19 478 Z M495 271 C418 271 314 327 314 468 C314 608 428 665 493 665 C566 665 682 625 690 466 C695 327 581 271 495 271 L495 271 Z M275.394 1168.82 L338.369 1106.48 C345.904 1099.02 362.106 1096.09 371.777 1100.44 L626.18 1214.83 C627.089 1215.24 634.075 1219.99 634.789 1220.68 L717.185 1300.79 C729.225 1312.5 729.36 1331.64 717.486 1343.51 L583.248 1477.75 C571.52 1489.48 552.496 1489.47 540.787 1477.72 L275.252 1211.32 C263.522 1199.55 263.585 1180.51 275.394 1168.82 L275.394 1168.82 Z " />
<glyph glyph-name="Ocircumflex" unicode="&#xd4;" horiz-adv-x="1037" d="M40 478 C40 213 254 -1 519 -1 C782 -1 997 213 997 478 C997 741 782 956 519 956 C254 956 40 741 40 478 L40 478 Z M517 271 C439 271 336 327 336 468 C336 608 448 665 515 665 C585 665 704 625 712 466 C717 327 602 271 517 271 L517 271 Z M254.288 1063.99 L507.548 1201.17 C514.271 1204.81 529.689 1204.74 536.377 1201.03 L782.46 1064.68 C803.964 1052.76 827 1066.34 827 1090.92 L827 1277.33 C827 1285.86 819.004 1299.43 811.54 1303.57 L536.377 1456.03 C529.689 1459.74 514.271 1459.81 507.548 1456.17 L225.712 1303.51 C218.086 1299.38 210 1285.8 210 1277.13 L210 1090.37 C210 1065.92 232.793 1052.35 254.288 1063.99 L254.288 1063.99 Z " />
<glyph glyph-name="Otilde" unicode="&#xd5;" horiz-adv-x="1099" d="M74 478 C74 213 288 -1 553 -1 C816 -1 1031 213 1031 478 C1031 741 816 956 553 956 C288 956 74 741 74 478 L74 478 Z M551 271 C473 271 370 327 370 468 C370 608 482 665 549 665 C620 665 738 625 746 466 C751 327 636 271 551 271 L551 271 Z M969.568 1328.25 L959.56 1335.37 C954.258 1339.13 937.356 1341.57 931.143 1339.65 C893.203 1327.89 831.625 1321.88 731 1335 L413 1372 C366 1378 323 1380 284 1379 C219 1376 152 1365 147 1325 L122.285 1127.28 C121.16 1118.28 127.753 1103.77 135.269 1098.69 L146.487 1091.12 C151.835 1087.51 170.343 1086.16 176.467 1088.19 C218.344 1102.09 284.625 1111.5 380 1101 L698 1061 C819 1046 885 1058 920 1073 C938.375 1080.88 950.625 1091.05 957.42 1102.18 C958.223 1103.49 960.371 1110.27 960.546 1111.8 L981.999 1300.41 C982.966 1308.91 976.541 1323.3 969.568 1328.25 L969.568 1328.25 Z " />
<glyph glyph-name="Odieresis" unicode="&#xd6;" horiz-adv-x="1104" d="M74 478 C74 213 288 -1 553 -1 C816 -1 1031 213 1031 478 C1031 741 816 956 553 956 C288 956 74 741 74 478 L74 478 Z M551 271 C473 271 370 327 370 468 C370 608 482 665 549 665 C620 665 738 625 746 466 C751 327 636 271 551 271 L551 271 Z M174 1107 C250 1031 376 1031 455 1107 C529 1189 529 1307 455 1389 C374 1467 252 1467 174 1389 C97 1309 97 1187 174 1107 L174 1107 Z M652 1107 C731 1031 852 1031 934 1107 C934.097 1107.09 939.253 1113.05 939.338 1113.15 C1006.95 1193.98 1005.17 1310.02 934 1389 C933.915 1389.09 927.735 1394.62 927.639 1394.7 C844.173 1466.95 730.975 1465.05 652 1389 C576 1310 576 1186 652 1107 L652 1107 Z " />
<glyph glyph-name="Oslash" unicode="&#xd8;" horiz-adv-x="1147" d="M1015.04 966 L754.913 966 C747.641 966 734.154 958.846 730.075 952.825 L728.5 950.5 C723.213 942.695 710.484 937.248 701.363 939.635 C662.234 949.875 621 956 579 956 C315 956 101 741 101 478 C101 378.1 129.236 288.467 180.167 211.477 C185.972 202.701 186.694 184.039 180.639 175.434 L93.2604 51.2648 C78.2465 29.9293 91.7059 4 117.795 4 L378.884 4 C385.783 4 398.62 10.7945 402.5 16.5 C406.868 22.9232 419.576 25.9445 426.963 23.543 C475.05 7.91 525 -1 579 -1 C843 -1 1058 213 1058 478 C1058 586.225 1022.06 685.038 960.48 765.733 C953.435 774.964 951.701 794.475 958.405 803.956 L1039.53 918.678 C1054.62 940.005 1041.16 966 1015.04 966 L1015.04 966 Z M753 466 C757.25 358.9 689.972 301.652 619.949 280.133 C603.126 274.962 596.411 291.019 606.553 305.403 L744.156 500.548 C745.766 502.832 748.829 502.312 749.343 499.565 C751.333 488.917 752.167 478.5 753 466 L753 466 Z M377 468 C377 570 435.522 626.483 492.997 650.958 C504.783 655.977 511.13 644.089 503.771 633.605 L381.309 459.139 C379.942 457.192 377 458.122 377 460.5 L377 468 L377 468 Z " />
<glyph glyph-name="Ugrave" unicode="&#xd9;" horiz-adv-x="937" d="M50 413 C50 149 235 0 472 0 C928 0 900 367 900 433 L898.119 905.12 C898.053 921.613 884.612 935 868.119 935 L602 935 C585.441 935 572 921.559 572 905 L572 380 C572 312 528 264 475 264 C403 264 375 315 375 383 L375 907 C375 923.559 361.559 937 345 937 L79.6965 937 C63.2933 937 49.9406 931.568 49.7861 915.166 C47.1481 635.081 50 500.75 50 413 L50 413 Z M389.787 1477.79 L255.613 1343.61 C243.686 1331.69 243.865 1312.5 256.014 1300.79 L339.245 1220.62 C339.944 1219.94 346.87 1215.26 347.755 1214.86 L602.223 1100.44 C611.894 1096.09 628.096 1099.02 635.631 1106.48 L698.571 1168.79 C710.399 1180.5 710.447 1199.55 698.679 1211.32 L432.213 1477.79 C420.504 1489.5 401.496 1489.5 389.787 1477.79 L389.787 1477.79 Z " />
<glyph glyph-name="Uacute" unicode="&#xda;" horiz-adv-x="937" d="M35 413 C35 149 222 0 457 0 C913 0 886 367 886 433 L884.119 905.12 C884.053 921.613 870.612 935 854.119 935 L588 935 C571.441 935 558 921.559 558 905 L558 380 C558 312 513 264 460 264 C388 264 360 315 360 383 L360 907 C360 923.559 346.559 937 330 937 L64.6965 937 C48.2933 937 34.9406 931.568 34.7861 915.166 C32.1481 635.081 35 500.75 35 413 L35 413 Z M242.179 1168.82 L304.384 1106.62 C311.923 1099.08 328.134 1096.09 337.863 1100.45 L593.158 1214.83 C594.075 1215.24 601.084 1220 601.804 1220.7 L684.185 1300.79 C696.225 1312.5 696.36 1331.64 684.486 1343.51 L550.248 1477.75 C538.52 1489.48 519.496 1489.47 507.787 1477.72 L242.144 1211.21 C230.473 1199.5 230.489 1180.51 242.179 1168.82 L242.179 1168.82 Z " />
<glyph glyph-name="Ucircumflex" unicode="&#xdb;" horiz-adv-x="988" d="M67 413 C67 149 254 0 489 0 C946 0 918 367 918 433 L916.119 905.12 C916.053 921.613 902.612 935 886.119 935 L620 935 C603.441 935 590 921.559 590 905 L590 380 C590 312 545 264 492 264 C420 264 393 315 393 383 L393 907 C393 923.559 379.559 937 363 937 L96.6965 937 C80.2933 937 66.9406 931.568 66.7861 915.166 C64.1481 635.081 67 500.75 67 413 L67 413 Z M231.288 1063.99 L484.548 1201.17 C491.271 1204.81 506.689 1204.74 513.377 1201.03 L759.46 1064.68 C780.964 1052.76 804 1066.34 804 1090.92 L804 1277.33 C804 1285.86 796.004 1299.43 788.54 1303.57 L513.377 1456.03 C506.689 1459.74 491.271 1459.81 484.548 1456.17 L202.712 1303.51 C195.086 1299.38 187 1285.8 187 1277.13 L187 1090.37 C187 1065.92 209.793 1052.35 231.288 1063.99 L231.288 1063.99 Z " />
<glyph glyph-name="Udieresis" unicode="&#xdc;" horiz-adv-x="1073" d="M108 413 C108 149 295 0 530 0 C987 0 959 367 959 433 L957.119 905.12 C957.053 921.613 943.612 935 927.119 935 L661 935 C644.441 935 631 921.559 631 905 L631 380 C631 312 586 264 533 264 C461 264 434 315 434 383 L434 907 C434 923.559 420.559 937 404 937 L137.696 937 C121.293 937 107.941 931.568 107.786 915.166 C105.148 635.081 108 500.75 108 413 L108 413 Z M158 1107 C235 1030 360 1031 439 1107 C514 1187 514 1309 439 1389 C359 1467 237 1468 158 1389 C82 1310 82 1186 158 1107 L158 1107 Z M637 1107 C713 1031 839 1030 918 1107 C992 1189 992 1307 918 1389 C837 1468 715 1467 637 1389 C559 1311 559 1185 637 1107 L637 1107 Z " />
<glyph glyph-name="germandbls" unicode="&#xdf;" horiz-adv-x="1080" d="M425 35 L425 669 C425 709 449 735 500 735 C538 735 565 712 565 672 C565 617 545 612 523 585 C504 562 484 539 484 502 C484 389 539 358 609 320 C638 305 642 303 660 289 C674 279 672 240 649 240 C570 240 519 279 519 279 C519 279 515.294 257.997 513.421 247.387 L475.383 31.8358 C472.961 18.1121 457.943 11.5267 471.11 6.96128 C473.989 5.96312 534 -14 729 -14 C945 -14 1036 59 1036 169 C1036 319 950 361 872 416 C821 451 797 476 797 514 C797 587 883 588 883 691 C883 870 737 958 505 958 C269 958 121 883 121 679 L121 35 C121 18.4409 134.441 5 151 5 L395 5 C411.559 5 425 18.4409 425 35 L425 35 Z " />
<glyph glyph-name="agrave" unicode="&#xe0;" horiz-adv-x="1017" d="M352.958 24.3409 L365.039 69.6466 C368.221 81.5798 381.784 91.9611 394.134 91.9165 L627.344 91.0746 C637.995 91.0361 651.536 81.6407 655.3 71.6768 L674.672 20.398 C678.456 10.3818 692.029 1 702.736 1 L966.239 1 C988.084 1 1001.64 19.8742 994.669 40.5763 L693.969 933.309 C690.309 944.177 676.635 953.872 665.168 953.73 L383.785 950.257 C373.044 950.124 359.588 940.553 355.939 930.449 L35.467 43.0593 C27.9481 22.2395 41.4555 2.93725 63.5914 2.86935 L323.879 2.07092 C336.22 2.03307 349.778 12.4161 352.958 24.3409 L352.958 24.3409 Z M542.074 463.818 L573.959 360.876 C580.308 340.378 566.76 322 545.302 322 L475.156 322 C452.827 322 439.256 341.523 447.035 362.452 L485.297 465.394 C495.637 493.213 533.293 492.168 542.074 463.818 L542.074 463.818 Z M428.821 1469.82 L294.613 1335.61 C282.686 1323.69 282.865 1304.5 295.014 1292.79 L378.245 1212.62 C378.944 1211.94 385.87 1207.26 386.755 1206.86 L641.121 1092.49 C650.863 1088.11 667.084 1091.08 674.637 1098.64 L737.752 1161.75 C749.48 1173.48 749.465 1192.5 737.718 1204.21 L471.213 1469.86 C459.504 1481.53 440.511 1481.51 428.821 1469.82 L428.821 1469.82 Z " />
<glyph glyph-name="aacute" unicode="&#xe1;" horiz-adv-x="1018" d="M339.958 24.3409 L352.039 69.6469 C355.221 81.5799 368.784 91.9612 381.134 91.9168 L615.127 91.0751 C625.93 91.0362 639.467 81.5453 643.186 71.4029 L661.787 20.6724 C665.525 10.4775 679.095 1 689.953 1 L953.239 1 C975.084 1 988.643 19.8742 981.669 40.5763 L680.97 933.308 C677.309 944.176 663.635 953.872 652.168 953.73 L371.764 950.257 C361.037 950.124 347.582 940.562 343.928 930.476 L22.5188 43.0855 C14.9755 22.259 28.4833 2.93717 50.6336 2.86922 L310.879 2.07092 C323.22 2.03307 336.778 12.4161 339.958 24.3409 L339.958 24.3409 Z M529.074 463.818 L560.959 360.876 C567.308 340.378 553.76 322 532.302 322 L462.156 322 C439.827 322 426.256 341.523 434.035 362.452 L472.297 465.394 C482.637 493.213 520.293 492.168 529.074 463.818 L529.074 463.818 Z M281.998 1161.79 L344.379 1098.77 C351.935 1091.14 368.165 1088.11 377.966 1092.5 L633.158 1206.83 C634.075 1207.24 641.084 1212 641.804 1212.7 L724.185 1292.79 C736.225 1304.5 736.36 1323.64 724.486 1335.51 L590.213 1469.79 C578.504 1481.5 559.496 1481.5 547.787 1469.79 L282.106 1204.11 C270.456 1192.46 270.408 1173.5 281.998 1161.79 L281.998 1161.79 Z " />
<glyph glyph-name="acircumflex" unicode="&#xe2;" horiz-adv-x="1052" d="M363.122 24.0407 L375.874 69.9469 C379.135 81.6871 392.703 91.9614 404.888 91.9174 L638.128 91.0754 C648.93 91.0364 662.467 81.5454 666.185 71.4032 L684.787 20.6724 C688.525 10.4775 702.095 1 712.953 1 L977.197 1 C999.057 1 1012.62 19.8936 1005.62 40.6031 L703.982 933.335 C700.316 944.186 686.642 953.872 675.189 953.73 L394.764 950.257 C384.037 950.124 370.582 940.562 366.928 930.476 L45.5188 43.0855 C37.9755 22.259 51.4833 2.93717 73.6336 2.86922 L334.125 2.07017 C346.301 2.03282 359.864 12.3088 363.122 24.0407 L363.122 24.0407 Z M552.24 464.476 L584.75 360.992 C591.201 340.459 577.652 322 556.13 322 L485.156 322 C462.827 322 449.256 341.523 457.035 362.452 L495.499 465.936 C505.824 493.718 543.357 492.752 552.24 464.476 L552.24 464.476 Z M263.288 1055.99 L516.548 1193.17 C523.271 1196.81 538.689 1196.74 545.377 1193.03 L791.46 1056.68 C812.964 1044.76 836 1058.34 836 1082.92 L836 1269.33 C836 1277.86 828.004 1291.43 820.54 1295.57 L545.377 1448.03 C538.689 1451.74 523.271 1451.81 516.548 1448.17 L234.712 1295.51 C227.086 1291.38 219 1277.8 219 1269.13 L219 1082.37 C219 1057.92 241.793 1044.35 263.288 1055.99 L263.288 1055.99 Z " />
<glyph glyph-name="atilde" unicode="&#xe3;" horiz-adv-x="1144" d="M415.122 24.0407 L427.874 69.9469 C431.135 81.6871 444.703 91.9614 456.888 91.9174 L690.128 91.0754 C700.93 91.0364 714.467 81.5454 718.185 71.4032 L736.787 20.6724 C740.525 10.4775 754.095 1 764.953 1 L1028.24 1 C1050.08 1 1063.64 19.8742 1056.67 40.5763 L755.97 933.308 C752.309 944.176 738.635 953.872 727.168 953.73 L446.764 950.257 C436.037 950.124 422.582 940.562 418.928 930.476 L97.5188 43.0855 C89.9755 22.259 103.483 2.93717 125.634 2.86922 L386.125 2.07017 C398.301 2.03282 411.864 12.3088 415.122 24.0407 L415.122 24.0407 Z M604.074 463.818 L635.959 360.876 C642.308 340.378 628.76 322 607.302 322 L537.156 322 C514.827 322 501.256 341.523 509.035 362.452 L547.297 465.394 C557.637 493.213 595.293 492.168 604.074 463.818 L604.074 463.818 Z M996.012 1321.25 L986.289 1327.91 C981.15 1331.42 963.81 1333.47 957.855 1331.65 C919.438 1319.89 858.625 1313.88 758 1327 L439 1364 C392 1370 349 1372 311 1371 C243 1368 179 1358 174 1317 L148.378 1120.26 C147.208 1111.27 153.723 1096.73 161.208 1091.61 L173.449 1083.25 C178.893 1079.54 197.178 1078.12 203.424 1080.23 C245.109 1094.31 310.625 1104.38 406 1093 L725 1053 C845 1038 911 1050 946 1065 C965.32 1073.28 978.715 1084.1 984.628 1096.68 C984.989 1097.45 986.299 1102.52 986.399 1103.37 L1008.86 1292.97 C1009.91 1301.79 1003.34 1316.24 996.012 1321.25 L996.012 1321.25 Z " />
<glyph glyph-name="adieresis" unicode="&#xe4;" horiz-adv-x="1155" d="M414.122 24.0407 L426.874 69.9469 C430.135 81.6871 443.703 91.9614 455.888 91.9174 L689.128 91.0754 C699.93 91.0364 713.467 81.5454 717.185 71.4032 L735.787 20.6724 C739.525 10.4775 753.095 1 763.953 1 L1027.24 1 C1049.08 1 1062.64 19.8742 1055.67 40.5763 L754.97 933.308 C751.309 944.176 737.635 953.872 726.168 953.73 L445.764 950.257 C435.037 950.124 421.582 940.562 417.928 930.476 L96.5188 43.0855 C88.9755 22.259 102.483 2.93717 124.634 2.86922 L385.125 2.07017 C397.301 2.03282 410.864 12.3088 414.122 24.0407 L414.122 24.0407 Z M603.074 463.818 L634.959 360.876 C641.308 340.378 627.76 322 606.302 322 L536.156 322 C513.827 322 500.256 341.523 508.035 362.452 L546.297 465.394 C556.637 493.213 594.293 492.168 603.074 463.818 L603.074 463.818 Z M199 1100 C277 1022 402 1022 480 1100 C554 1177 555 1303 480 1381 C399 1460 279 1459 199 1381 C122 1304 123 1176 199 1100 L199 1100 Z M678 1100 C753 1022 880 1021 959 1100 C1032 1179 1033 1301 959 1381 C878 1460 756 1459 678 1381 C599 1305 600 1175 678 1100 L678 1100 Z " />
<glyph glyph-name="aring" unicode="&#xe5;" horiz-adv-x="1028" d="M351.958 24.3409 L364.039 69.6466 C367.221 81.5798 380.784 91.9611 393.134 91.9165 L626.344 91.0746 C636.995 91.0361 650.536 81.6407 654.3 71.6768 L673.672 20.398 C677.456 10.3818 691.029 1 701.736 1 L965.239 1 C987.084 1 1000.64 19.8742 993.669 40.5763 L692.969 933.309 C689.309 944.177 675.635 953.872 664.168 953.73 L382.785 950.257 C372.044 950.124 358.588 940.553 354.939 930.449 L34.467 43.0593 C26.9481 22.2395 40.4555 2.93725 62.5914 2.86935 L322.879 2.07092 C335.22 2.03307 348.778 12.4161 351.958 24.3409 L351.958 24.3409 Z M541.074 463.818 L572.959 360.876 C579.308 340.378 565.76 322 544.302 322 L474.156 322 C451.827 322 438.256 341.523 446.035 362.452 L484.297 465.394 C494.637 493.213 532.293 492.168 541.074 463.818 L541.074 463.818 Z M313 1283 C313 1171 405 1080 516 1080 C628 1080 719 1171 719 1283 C719 1394 628 1485 516 1485 C405 1485 313 1394 313 1283 L313 1283 Z M517 1219 C493 1219 461 1235 461 1278 C461 1321 496 1339 516 1339 C536 1339 574 1328 577 1278 C577 1235 542 1219 517 1219 L517 1219 Z " />
<glyph glyph-name="ae" unicode="&#xe6;" horiz-adv-x="1342" d="M370.122 24.0407 L382.874 69.9469 C386.135 81.6871 399.703 91.9614 411.888 91.9174 L643.999 91.0794 C655.581 91.0376 669.095 81.0516 672.536 69.9916 L687.439 22.088 C690.897 10.9735 704.445 1 716.085 1 L1179 1 C1195.56 1 1209 14.4409 1209 31 L1209 210 C1209 226.559 1195.56 240 1179 240 L965.518 240 C954.268 240 940.708 249.726 937.101 260.382 L913.409 330.382 C906.398 351.096 919.958 370 941.826 370 L1179 370 C1195.56 370 1209 383.441 1209 400 L1209 577 C1209 593.559 1195.56 607 1179 607 L841.557 607 C830.28 607 816.721 616.743 813.124 627.431 L798.316 671.431 C791.35 692.131 804.909 711 826.749 711 L1179 711 C1195.56 711 1209 724.441 1209 741 L1209 917.108 C1209 933.608 1195.61 947.049 1179.11 947.108 L402.122 949.923 C391.146 949.963 377.545 940.46 373.807 930.14 L52.5188 43.0855 C44.9755 22.259 58.4833 2.93717 80.6336 2.86922 L341.125 2.07017 C353.301 2.03282 366.864 12.3088 370.122 24.0407 L370.122 24.0407 Z M559.24 464.476 L591.75 360.992 C598.201 340.459 584.652 322 563.13 322 L492.156 322 C469.827 322 456.256 341.523 464.035 362.452 L502.499 465.936 C512.824 493.718 550.357 492.752 559.24 464.476 L559.24 464.476 Z " />
<glyph glyph-name="ccedilla" unicode="&#xe7;" horiz-adv-x="879" d="M419 -67 C449 -67 487 -87 487 -142 C487 -192 444 -215 420 -215 C406.759 -215 388.038 -210.891 372.907 -198.704 C368.542 -195.188 359.088 -194.723 355.047 -198.608 L304.096 -247.6 C292.933 -258.333 293.251 -272.903 305.283 -282.652 C336.995 -308.346 375.275 -324 419 -324 C517 -324 598 -244 598 -145 C598 -94.675 577.581 -49.1144 544.043 -17.3024 C537.95 -11.5227 542.718 2.51695 551.065 3.44491 C663.448 15.9388 762.014 65.0274 837.549 139.656 C850.013 151.97 847.701 168.378 834.685 180.106 L678.166 321.128 C667.717 330.542 642.869 328.159 631.988 319.248 C592.967 287.293 541.9 273 499 273 C422 273 318 329 318 470 C318 610 431 667 497 667 C533.3 667 581.851 656.11 621.878 624.784 C633.054 616.038 658.376 613.84 668.63 623.651 L832.89 780.803 C845.256 792.634 845.823 810.228 833.585 822.191 C747.166 906.663 630.5 958 501 958 C238 958 22 744 22 479 C22 271.325 156.038 93.1194 342.551 27.8005 C347.366 26.114 348.275 19.543 343.637 17.4155 C324.875 8.80886 308.454 -2.1385 294.374 -15.4266 C288.238 -21.2172 289.212 -28.8748 295.421 -34.587 L350.86 -85.5911 C355.109 -89.5001 364.146 -89.1518 368.537 -85.4028 C383.583 -72.5556 402.333 -67 419 -67 L419 -67 Z " />
<glyph glyph-name="egrave" unicode="&#xe8;" horiz-adv-x="913" d="M391.285 290.159 L391.724 336.774 C391.876 352.9 405.098 366.218 421.223 366.487 L782.5 372.508 C798.781 372.78 812 386.221 812 402.504 L812 584.928 C812 601.527 798.527 614.968 781.929 614.928 L422.071 614.072 C405.473 614.032 392 627.473 392 644.072 L392 682.062 C392 698.587 405.413 712.028 421.938 712.062 L847.062 712.938 C863.587 712.972 877 726.413 877 742.938 L877 913.074 C877 929.592 863.592 943.033 847.074 943.074 L100.043 944.926 C83.46 944.967 69.9858 931.54 69.9682 914.957 L69.0319 30.1058 C69.0143 13.4884 82.4884 0.0332226 99.1057 0.0741521 L850.172 1.92407 C867.134 1.96585 880.614 14.7837 880.159 31.74 C878.136 107.148 877.255 171.744 877.049 230.184 C876.991 246.616 863.556 258.055 847.123 258.123 L421.16 259.876 C404.513 259.944 391.127 273.512 391.285 290.159 L391.285 290.159 Z M385.821 1469.82 L251.613 1335.61 C239.686 1323.69 239.865 1304.5 252.014 1292.79 L335.245 1212.62 C335.944 1211.94 342.87 1207.26 343.755 1206.86 L598.121 1092.49 C607.863 1088.11 624.084 1091.08 631.637 1098.64 L694.752 1161.75 C706.48 1173.48 706.465 1192.5 694.718 1204.21 L428.213 1469.86 C416.504 1481.53 397.511 1481.51 385.821 1469.82 L385.821 1469.82 Z " />
<glyph glyph-name="eacute" unicode="&#xe9;" horiz-adv-x="914" d="M372.285 290.159 L372.724 336.773 C372.876 352.9 386.099 366.218 402.224 366.486 L764.499 372.509 C780.78 372.78 794 386.222 794 402.505 L794 584.929 C794 601.527 780.527 614.968 763.929 614.929 L403.071 614.071 C386.473 614.032 373 627.473 373 644.071 L373 682.062 C373 698.587 386.413 712.028 402.938 712.062 L828.062 712.938 C844.587 712.972 858 726.413 858 742.938 L858 913.074 C858 929.592 844.592 943.033 828.074 943.074 L82.0426 944.925 C65.46 944.967 51.9858 931.54 51.9682 914.957 L51.0319 30.1059 C51.0143 13.4884 64.4884 0.0332637 81.1058 0.0742437 L831.172 1.92398 C848.134 1.96581 861.614 14.7838 861.159 31.74 C859.136 107.148 858.255 171.744 858.049 230.184 C857.991 246.616 844.556 258.055 828.123 258.123 L402.16 259.876 C385.513 259.944 372.127 273.512 372.285 290.159 L372.285 290.159 Z M233.248 1161.75 L296.363 1098.64 C303.916 1091.08 320.137 1088.11 329.879 1092.49 L584.18 1206.83 C585.089 1207.24 592.075 1211.99 592.789 1212.68 L675.247 1292.85 C687.253 1304.52 687.415 1323.64 675.608 1335.51 L542.179 1469.7 C530.489 1481.46 511.469 1481.5 499.727 1469.8 L233.282 1204.21 C221.535 1192.5 221.52 1173.48 233.248 1161.75 L233.248 1161.75 Z " />
<glyph glyph-name="ecircumflex" unicode="&#xea;" horiz-adv-x="970" d="M410.285 290.159 L410.724 336.773 C410.876 352.9 424.099 366.218 440.224 366.486 L802.499 372.509 C818.78 372.78 832 386.222 832 402.505 L832 584.929 C832 601.527 818.527 614.968 801.929 614.929 L441.071 614.071 C424.473 614.032 411 627.473 411 644.071 L411 682.062 C411 698.587 424.413 712.028 440.938 712.062 L866.062 712.938 C882.587 712.972 896 726.413 896 742.938 L896 913.074 C896 929.592 882.592 943.033 866.074 943.074 L120.043 944.925 C103.46 944.967 89.9858 931.54 89.9682 914.957 L89.0319 30.1059 C89.0143 13.4884 102.488 0.0332637 119.106 0.0742437 L869.172 1.92398 C886.134 1.96581 899.614 14.7838 899.159 31.74 C897.136 107.148 896.255 171.744 896.049 230.184 C895.991 246.616 882.556 258.055 866.123 258.123 L440.16 259.876 C423.513 259.944 410.127 273.512 410.285 290.159 L410.285 290.159 Z M228.288 1055.99 L481.548 1193.17 C488.271 1196.81 503.689 1196.74 510.377 1193.03 L756.46 1056.68 C777.964 1044.76 801 1058.34 801 1082.92 L801 1269.33 C801 1277.86 793.004 1291.43 785.54 1295.57 L510.377 1448.03 C503.689 1451.74 488.271 1451.81 481.548 1448.17 L199.712 1295.51 C192.086 1291.38 184 1277.8 184 1269.13 L184 1082.37 C184 1057.92 206.793 1044.35 228.288 1055.99 L228.288 1055.99 Z " />
<glyph glyph-name="edieresis" unicode="&#xeb;" horiz-adv-x="1083" d="M459.285 290.159 L459.724 336.773 C459.876 352.9 473.099 366.218 489.224 366.486 L851.499 372.509 C867.78 372.78 881 386.222 881 402.505 L881 584.929 C881 601.527 867.527 614.968 850.929 614.929 L490.071 614.071 C473.473 614.032 460 627.473 460 644.071 L460 682.062 C460 698.587 473.413 712.028 489.938 712.062 L915.062 712.938 C931.587 712.972 945 726.413 945 742.938 L945 913.074 C945 929.592 931.592 943.033 915.074 943.074 L169.043 944.925 C152.46 944.967 138.986 931.54 138.968 914.957 L138.032 30.1059 C138.014 13.4884 151.488 0.0332637 168.106 0.0742437 L918.172 1.92398 C935.134 1.96581 948.614 14.7838 948.159 31.74 C946.136 107.148 945.255 171.744 945.049 230.184 C944.991 246.616 931.556 258.055 915.123 258.123 L489.16 259.876 C472.513 259.944 459.127 273.512 459.285 290.159 L459.285 290.159 Z M163 1100 C239 1022 366 1022 444 1100 C518 1177 519 1303 444 1381 C364 1459 242 1460 163 1381 C85 1303 86 1177 163 1100 L163 1100 Z M642 1100 C717 1022 844 1021 923 1100 C996 1179 997 1301 923 1381 C842 1460 720 1459 642 1381 C563 1305 564 1175 642 1100 L642 1100 Z " />
<glyph glyph-name="igrave" unicode="&#xec;" horiz-adv-x="548" d="M209.821 1469.7 L76.3924 1335.51 C64.5852 1323.64 64.7469 1304.52 76.7532 1292.85 L159.211 1212.68 C159.925 1211.99 166.911 1207.24 167.82 1206.83 L422.121 1092.49 C431.863 1088.11 448.084 1091.08 455.637 1098.64 L518.752 1161.75 C530.48 1173.48 530.465 1192.5 518.718 1204.21 L252.273 1469.8 C240.531 1481.5 221.511 1481.46 209.821 1469.7 L209.821 1469.7 Z M134 2 L406 2 C422.559 2 436 15.4409 436 32 L436 923 C436 939.559 422.559 953 406 953 L134 953 C117.441 953 104 939.559 104 923 L104 32 C104 15.4409 117.441 2 134 2 L134 2 Z " />
<glyph glyph-name="iacute" unicode="&#xed;" horiz-adv-x="547" d="M64.2476 1161.75 L127.363 1098.64 C134.916 1091.08 151.137 1088.11 160.879 1092.49 L415.18 1206.83 C416.089 1207.24 423.075 1211.99 423.789 1212.68 L506.247 1292.85 C518.253 1304.52 518.415 1323.64 506.608 1335.51 L373.179 1469.7 C361.489 1481.46 342.469 1481.5 330.727 1469.8 L64.282 1204.21 C52.535 1192.5 52.5196 1173.48 64.2476 1161.75 L64.2476 1161.75 Z M107 2 L379 2 C395.559 2 409 15.4409 409 32 L409 923 C409 939.559 395.559 953 379 953 L107 953 C90.4409 953 77 939.559 77 923 L77 32 C77 15.4409 90.4409 2 107 2 L107 2 Z " />
<glyph glyph-name="icircumflex" unicode="&#xee;" horiz-adv-x="671" d="M70.2532 1055.89 L324.56 1193.2 C331.272 1196.83 346.682 1196.74 353.354 1193.05 L599.46 1056.68 C620.964 1044.76 644 1058.34 644 1082.92 L644 1269.33 C644 1277.86 636.004 1291.43 628.54 1295.57 L353.354 1448.05 C346.682 1451.74 331.272 1451.83 324.56 1448.2 L41.7468 1295.5 C34.0987 1291.37 26 1277.8 26 1269.1 L26 1082.29 C26 1057.87 48.7597 1044.29 70.2532 1055.89 L70.2532 1055.89 Z M201 2 L473 2 C489.559 2 503 15.4409 503 32 L503 923 C503 939.559 489.559 953 473 953 L201 953 C184.441 953 171 939.559 171 923 L171 32 C171 15.4409 184.441 2 201 2 L201 2 Z " />
<glyph glyph-name="idieresis" unicode="&#xef;" horiz-adv-x="930" d="M87 1100 C162 1022 290 1022 368 1100 C442 1177 443 1303 368 1381 C287 1459 165 1459 87 1381 C9 1303 10 1177 87 1100 L87 1100 Z M565 1100 C643 1022 766 1022 847 1100 C920 1178 920 1302 847 1381 C763 1459 646 1459 565 1381 C488 1304 489 1176 565 1100 L565 1100 Z M326 2 L598 2 C614.559 2 628 15.4409 628 32 L628 923 C628 939.559 614.559 953 598 953 L326 953 C309.441 953 296 939.559 296 923 L296 32 C296 15.4409 309.441 2 326 2 L326 2 Z " />
<glyph glyph-name="ntilde" unicode="&#xf1;" horiz-adv-x="1174" d="M424.117 38.8828 L425.751 457.195 C425.857 484.317 454.159 497.489 474.978 480.106 L724.609 271.676 C728.909 268.085 735.217 255.068 735.37 249.468 L741.202 36.18 C741.642 20.0795 755.084 7 771.191 7 L1028.13 7 C1044.62 7 1058.06 20.3837 1058.13 36.8721 L1061.87 914.872 C1061.94 931.502 1048.5 945 1031.87 945 L772.221 945 C755.54 945 742.099 931.46 742.221 914.78 L743.519 737.657 C743.72 710.26 714.893 696.832 694.049 714.614 L432.413 937.823 C429.399 940.394 416.903 945 412.942 945 L148.064 945 C131.47 945 118.029 931.53 118.064 914.936 L119.936 38.9359 C119.971 22.4122 133.412 9 149.936 9 L394.117 9 C410.611 9 424.052 22.3885 424.117 38.8828 L424.117 38.8828 Z M1006.09 1321.2 L996.443 1327.8 C991.279 1331.34 974.083 1333.49 968.104 1331.65 C930 1319.89 867.875 1313.88 769 1327 L450 1364 C403 1370 360 1372 321 1371 C255 1368 190 1358 185 1317 L159.348 1120.03 C158.199 1111.21 164.606 1096.68 171.893 1091.58 L183.513 1083.44 C188.987 1079.61 207.413 1078.12 213.754 1080.23 C256.109 1094.31 321.625 1104.38 417 1093 L735 1053 C856 1038 922 1050 957 1065 C976.25 1073.25 988.778 1084.02 995.354 1096.54 C995.875 1097.54 997.371 1103.26 997.498 1104.38 L1018.96 1293.05 C1019.95 1301.81 1013.36 1316.22 1006.09 1321.2 L1006.09 1321.2 Z " />
<glyph glyph-name="ograve" unicode="&#xf2;" horiz-adv-x="1004" d="M28 478 C28 213 243 -1 507 -1 C770 -1 985 213 985 478 C985 741 770 956 507 956 C243 956 28 741 28 478 L28 478 Z M505 271 C428 271 324 327 324 468 C324 608 437 665 503 665 C574 665 692 625 700 466 C705 327 590 271 505 271 L505 271 Z M418.821 1469.7 L285.392 1335.51 C273.585 1323.64 273.747 1304.52 285.753 1292.85 L368.211 1212.68 C368.925 1211.99 375.911 1207.24 376.82 1206.83 L631.121 1092.49 C640.863 1088.11 657.084 1091.08 664.637 1098.64 L727.752 1161.75 C739.48 1173.48 739.465 1192.5 727.718 1204.21 L461.273 1469.8 C449.531 1481.5 430.511 1481.46 418.821 1469.7 L418.821 1469.7 Z " />
<glyph glyph-name="oacute" unicode="&#xf3;" horiz-adv-x="1003" d="M19 478 C19 213 233 -1 497 -1 C761 -1 976 213 976 478 C976 741 761 956 497 956 C233 956 19 741 19 478 L19 478 Z M495 271 C418 271 314 327 314 468 C314 608 428 665 493 665 C566 665 682 625 690 466 C695 327 581 271 495 271 L495 271 Z M275.213 1161.79 L338.363 1098.64 C345.916 1091.08 362.137 1088.11 371.879 1092.49 L626.18 1206.83 C627.089 1207.24 634.075 1211.99 634.789 1212.68 L717.185 1292.79 C729.225 1304.5 729.36 1323.64 717.486 1335.51 L583.213 1469.79 C571.504 1481.5 552.496 1481.5 540.787 1469.79 L275.213 1204.21 C263.504 1192.5 263.504 1173.5 275.213 1161.79 L275.213 1161.79 Z " />
<glyph glyph-name="ocircumflex" unicode="&#xf4;" horiz-adv-x="1038" d="M41 478 C41 213 255 -1 520 -1 C783 -1 998 213 998 478 C998 741 783 956 520 956 C255 956 41 741 41 478 L41 478 Z M518 271 C440 271 337 327 337 468 C337 608 449 665 516 665 C586 665 705 625 713 466 C718 327 603 271 518 271 L518 271 Z M255.288 1055.99 L508.548 1193.17 C515.271 1196.81 530.689 1196.74 537.377 1193.03 L783.46 1056.68 C804.964 1044.76 828 1058.34 828 1082.92 L828 1269.33 C828 1277.86 820.004 1291.43 812.54 1295.57 L537.377 1448.03 C530.689 1451.74 515.271 1451.81 508.548 1448.17 L226.712 1295.51 C219.086 1291.38 211 1277.8 211 1269.13 L211 1082.37 C211 1057.92 233.793 1044.35 255.288 1055.99 L255.288 1055.99 Z " />
<glyph glyph-name="otilde" unicode="&#xf5;" horiz-adv-x="1100" d="M74 478 C74 213 288 -1 553 -1 C816 -1 1031 213 1031 478 C1031 741 816 956 553 956 C288 956 74 741 74 478 L74 478 Z M551 271 C473 271 370 327 370 468 C370 608 482 665 549 665 C620 665 738 625 746 466 C751 327 636 271 551 271 L551 271 Z M969.091 1321.2 L959.443 1327.8 C954.266 1331.34 937.135 1333.51 931.143 1331.65 C893.203 1319.89 831.625 1313.88 731 1327 L413 1364 C366 1370 323 1372 284 1371 C219 1368 152 1358 147 1317 L122.253 1119.94 C121.154 1111.19 127.584 1096.69 134.816 1091.63 L146.372 1083.54 C151.883 1079.68 170.09 1078.09 176.467 1080.23 C218.344 1094.31 284.625 1104.38 380 1093 L698 1053 C819 1038 885 1050 920 1065 C939.25 1073.25 951.778 1084.02 958.354 1096.54 C958.875 1097.54 960.371 1103.26 960.498 1104.38 L981.958 1293.05 C982.954 1301.81 976.364 1316.22 969.091 1321.2 L969.091 1321.2 Z " />
<glyph glyph-name="odieresis" unicode="&#xf6;" horiz-adv-x="1104" d="M74 478 C74 213 288 -1 553 -1 C816 -1 1031 213 1031 478 C1031 741 816 956 553 956 C288 956 74 741 74 478 L74 478 Z M551 271 C473 271 370 327 370 468 C370 608 482 665 549 665 C620 665 738 625 746 466 C751 327 636 271 551 271 L551 271 Z M174 1100 C249 1022 377 1022 455 1100 C528 1179 529 1301 455 1381 C374 1459 252 1459 174 1381 C96 1303 97 1177 174 1100 L174 1100 Z M652 1100 C730 1022 853 1022 934 1100 C1007 1178 1007 1302 934 1381 C850 1459 733 1459 652 1381 C575 1304 576 1176 652 1100 L652 1100 Z " />
<glyph glyph-name="divide" unicode="&#xf7;" horiz-adv-x="530" d="M417 188 C417 267 349 331 264 331 C180 331 112 267 112 188 C112 111 180 48 264 48 C349 48 417 111 417 188 L417 188 Z M417 771 C417 849 349 913 264 913 C180 913 112 849 112 771 C112 693 180 630 264 630 C349 630 417 693 417 771 L417 771 Z M507 409 L507 557 C507 573.559 493.559 587 477 587 L56 587 C39.4409 587 26 573.559 26 557 L26 409 C26 392.441 39.4409 379 56 379 L477 379 C493.559 379 507 392.441 507 409 L507 409 Z " />
<glyph glyph-name="oslash" unicode="&#xf8;" horiz-adv-x="1146" d="M1021.13 966 L760.545 966 C753.535 966 740.078 959.027 736.036 953.3 L733 949 C727.036 940.551 709.624 935.599 699.651 938.335 C658.955 949.497 616.2 956 572 956 C309 956 94 741 94 478 C94 375.325 124.802 282.062 179.284 204.542 C185.584 195.579 186.533 176.805 180.231 167.844 L98.2365 51.2581 C83.2305 29.9215 96.6903 4 122.775 4 L385.8 4 C391.595 4 403.488 9.88993 407 14.5 C411.054 19.8214 419.677 23.4539 426.076 21.5029 C471.822 7.55625 520.2 -1 572 -1 C837 -1 1051 213 1051 478 C1051 582.525 1017.63 679.349 959.598 757.393 C952.798 766.537 951.65 785.429 958.217 794.741 L1045.65 918.71 C1060.69 940.041 1047.23 966 1021.13 966 L1021.13 966 Z M766 466 C770.25 355.5 697.192 298.465 626.05 278.928 C608.746 274.176 601.843 290.175 612.198 304.83 L755.586 507.754 C757.371 510.28 760.684 510.556 761.224 507.51 C763.551 494.408 765.143 480.571 766 466 L766 466 Z M390 468 C390 565.75 444.188 621.595 499.134 647.817 C509.717 652.868 515.81 641.687 509.059 632.098 L390 463 L390 468 L390 468 Z " />
<glyph glyph-name="ugrave" unicode="&#xf9;" horiz-adv-x="979" d="M48 415 C48 149 244 0 491 0 C970 0 941 369 941 435 L939.119 908.119 C939.053 924.612 925.612 938 909.119 938 L627 938 C610.441 938 597 924.559 597 908 L597 382 C597 314 549 266 494 266 C418 266 390 317 390 385 L390 910.912 C390 927.52 376.52 940.961 359.912 940.912 L77.6096 940.087 C61.2549 940.039 47.9401 934.518 47.7861 918.164 C45.1481 638.031 48 502.75 48 415 L48 415 Z M412.787 1469.79 L278.514 1335.51 C266.64 1323.64 266.775 1304.5 278.815 1292.79 L361.196 1212.7 C361.916 1212 368.925 1207.24 369.842 1206.83 L625.034 1092.5 C634.835 1088.11 651.065 1091.14 658.621 1098.77 L721.002 1161.79 C732.592 1173.5 732.544 1192.46 720.894 1204.11 L455.213 1469.79 C443.504 1481.5 424.496 1481.5 412.787 1469.79 L412.787 1469.79 Z " />
<glyph glyph-name="uacute" unicode="&#xfa;" horiz-adv-x="979" d="M35 415 C35 149 232 0 479 0 C956 0 929 369 929 435 L927.119 908.119 C927.053 924.612 913.612 938 897.119 938 L614 938 C597.441 938 584 924.559 584 908 L584 382 C584 314 536 266 481 266 C406 266 377 317 377 385 L377 910.912 C377 927.52 363.52 940.961 346.912 940.912 L64.6096 940.087 C48.2549 940.039 34.9401 934.518 34.7861 918.164 C32.1481 638.031 35 502.75 35 415 L35 415 Z M264.248 1161.75 L327.363 1098.64 C334.916 1091.08 351.137 1088.11 360.879 1092.49 L615.245 1206.86 C616.13 1207.26 623.056 1211.94 623.755 1212.62 L706.986 1292.79 C719.135 1304.5 719.314 1323.69 707.387 1335.61 L573.179 1469.82 C561.489 1481.51 542.496 1481.53 530.787 1469.86 L264.282 1204.21 C252.535 1192.5 252.52 1173.48 264.248 1161.75 L264.248 1161.75 Z " />
<glyph glyph-name="ucircumflex" unicode="&#xfb;" horiz-adv-x="1027" d="M65 415 C65 149 263 0 509 0 C987 0 959 369 959 435 L957.119 908.119 C957.053 924.612 943.612 938 927.119 938 L644 938 C627.441 938 614 924.559 614 908 L614 382 C614 314 566 266 512 266 C435 266 407 317 407 385 L407 910.912 C407 927.52 393.52 940.961 376.912 940.912 L94.6096 940.087 C78.2549 940.039 64.9401 934.518 64.7861 918.164 C62.1481 638.031 65 502.75 65 415 L65 415 Z M251.253 1055.89 L505.537 1193.19 C512.265 1196.82 527.683 1196.73 534.366 1193.01 L779.423 1056.78 C800.929 1044.83 824 1058.4 824 1083 L824 1269.35 C824 1277.87 816.017 1291.44 808.577 1295.57 L534.366 1448.01 C527.683 1451.73 512.265 1451.82 505.537 1448.19 L222.747 1295.5 C215.099 1291.37 207 1277.8 207 1269.1 L207 1082.29 C207 1057.87 229.76 1044.29 251.253 1055.89 L251.253 1055.89 Z " />
<glyph glyph-name="udieresis" unicode="&#xfc;" horiz-adv-x="1102" d="M104 415 C104 149 300 0 547 0 C1025 0 997 369 997 435 L995.119 908.119 C995.053 924.612 981.612 938 965.119 938 L682 938 C665.441 938 652 924.559 652 908 L652 382 C652 314 604 266 550 266 C473 266 445 317 445 385 L445 910.912 C445 927.52 431.52 940.96 414.912 940.912 L133.609 940.087 C117.255 940.039 103.94 934.518 103.786 918.164 C101.148 638.031 104 502.75 104 415 L104 415 Z M170 1100 C245 1022 373 1022 451 1100 C525 1177 526 1303 451 1381 C370 1459 248 1459 170 1381 C92 1303 93 1177 170 1100 L170 1100 Z M648 1100 C726 1022 849 1022 930 1100 C1003 1178 1003 1302 930 1381 C846 1459 729 1459 648 1381 C571 1304 572 1176 648 1100 L648 1100 Z " />
<glyph glyph-name="ydieresis" unicode="&#xff;" horiz-adv-x="1007" d="M360 2 L654 2 C670.559 2 684 15.4409 684 32 L684 439.948 C684 442.174 686.917 453.043 688.031 454.97 L953.047 913.132 C965.468 934.606 951.974 958.079 927.166 958.152 L654.523 958.954 C647.529 958.975 634.053 952.053 629.996 946.355 L529.877 805.747 C516.341 786.737 491.365 787.842 479.561 807.973 L399.721 944.128 C395.562 951.221 381.982 958.975 373.76 958.953 L77.6756 958.144 C52.6687 958.076 39.1807 934.241 51.9973 912.769 L325.76 454.103 C326.96 452.094 330 441.068 330 438.728 L330 32 C330 15.4409 343.441 2 360 2 L360 2 Z M125 1100 C201 1022 328 1022 406 1100 C480 1177 481 1303 406 1381 C326 1459 204 1460 125 1381 C47 1303 48 1177 125 1100 L125 1100 Z M604 1100 C680 1022 805 1022 885 1100 C958 1178 958 1302 885 1381 C802 1459 683 1460 604 1381 C525 1305 526 1175 604 1100 L604 1100 Z " />
<glyph glyph-name="OE" unicode="&#x152;" horiz-adv-x="1696" d="M1084.28 290.159 L1084.72 336.773 C1084.88 352.9 1098.1 366.218 1114.22 366.486 L1476.5 372.509 C1492.78 372.78 1506 386.222 1506 402.505 L1506 584.929 C1506 601.527 1492.53 614.968 1475.93 614.929 L1115.07 614.071 C1098.47 614.032 1085 627.473 1085 644.071 L1085 682.062 C1085 698.587 1098.41 712.028 1114.94 712.062 L1540.06 712.938 C1556.59 712.972 1570 726.413 1570 742.938 L1570 913.074 C1570 929.592 1556.59 943.033 1540.07 943.074 L780.5 944.959 C771.393 944.982 764 937.607 764 928.5 C764 920.456 757.538 915.089 750.159 918.288 C692.783 943.166 629.675 956 564 956 C301 956 86 741 86 478 C86 213 301 -1 564 -1 C627.9 -1 688.56 10.34 744.522 33.749 C753.886 37.666 763 31.1503 763 21 C763 9.40867 772.409 0.0232026 784 0.0517878 L1543.17 1.92398 C1560.13 1.96581 1573.61 14.7838 1573.16 31.74 C1571.14 107.148 1570.25 171.744 1570.05 230.184 C1569.99 246.616 1556.56 258.055 1540.12 258.123 L1114.16 259.876 C1097.51 259.944 1084.13 273.512 1084.28 290.159 L1084.28 290.159 Z M562 271 C486 271 382 327 382 468 C382 608 494 665 561 665 C631 665 750 625 758 466 C763 327 649 271 562 271 L562 271 Z " />
<glyph glyph-name="oe" unicode="&#x153;" horiz-adv-x="1696" d="M1084.28 290.159 L1084.72 336.773 C1084.88 352.9 1098.1 366.218 1114.22 366.486 L1476.5 372.509 C1492.78 372.78 1506 386.222 1506 402.505 L1506 584.929 C1506 601.527 1492.53 614.968 1475.93 614.929 L1115.07 614.071 C1098.47 614.032 1085 627.473 1085 644.071 L1085 682.062 C1085 698.587 1098.41 712.028 1114.94 712.062 L1540.06 712.938 C1556.59 712.972 1570 726.413 1570 742.938 L1570 913.074 C1570 929.592 1556.59 943.033 1540.07 943.074 L780.5 944.959 C771.393 944.982 764 937.607 764 928.5 C764 920.456 757.538 915.089 750.159 918.288 C692.783 943.166 629.675 956 564 956 C301 956 86 741 86 478 C86 213 301 -1 564 -1 C627.9 -1 688.56 10.34 744.522 33.749 C753.886 37.666 763 31.1503 763 21 C763 9.40867 772.409 0.0232026 784 0.0517878 L1543.17 1.92398 C1560.13 1.96581 1573.61 14.7838 1573.16 31.74 C1571.14 107.148 1570.25 171.744 1570.05 230.184 C1569.99 246.616 1556.56 258.055 1540.12 258.123 L1114.16 259.876 C1097.51 259.944 1084.13 273.512 1084.28 290.159 L1084.28 290.159 Z M562 271 C486 271 382 327 382 468 C382 608 494 665 561 665 C631 665 750 625 758 466 C763 327 649 271 562 271 L562 271 Z " />
<glyph glyph-name="Ydieresis" unicode="&#x178;" horiz-adv-x="1007" d="M360 2 L654 2 C670.559 2 684 15.4409 684 32 L684 439.948 C684 442.174 686.917 453.043 688.031 454.97 L953.047 913.132 C965.468 934.606 951.974 958.079 927.166 958.152 L654.523 958.954 C647.529 958.975 634.053 952.053 629.996 946.355 L529.877 805.747 C516.341 786.737 491.365 787.842 479.561 807.973 L399.721 944.128 C395.562 951.221 381.982 958.975 373.76 958.953 L77.6756 958.144 C52.6687 958.076 39.1807 934.241 51.9973 912.769 L325.76 454.103 C326.96 452.094 330 441.068 330 438.728 L330 32 C330 15.4409 343.441 2 360 2 L360 2 Z M125 1107 C202 1030 327 1031 406 1107 C481 1187 481 1309 406 1389 C326 1467 204 1468 125 1389 C48 1309 48 1187 125 1107 L125 1107 Z M604 1107 C681 1030 804 1031 885 1107 C958 1188 958 1308 885 1389 C802 1467 683 1468 604 1389 C526 1311 526 1185 604 1107 L604 1107 Z " />
<glyph glyph-name="florin" unicode="&#x192;" horiz-adv-x="910" d="M683 812 C690.273 840.182 698.372 865.058 705.044 876.11 C705.912 877.549 708.63 880.314 710.042 881.226 C716.101 885.136 724.692 888 734 888 C755.45 888 784.387 881.194 821.934 867.581 C835.418 862.692 850.41 870.111 854.297 883.918 L897.465 1037.24 C901.745 1052.44 892.386 1068.65 877.4 1073.63 C795.5 1100.85 721.7 1113 656 1113 C498 1113 424 1036 399 913 C393.225 880 385.408 844.278 377.795 809.763 C375.361 798.727 363.313 788 352.012 788 L269.615 788 C256.29 788 242.795 776.927 240.193 763.858 L207.14 597.858 C203.275 578.447 216.77 562 236.562 562 L287.014 562 C306.99 562 320.49 545.356 316.369 525.81 L227 102 C220.933 75.1333 214.116 56.5289 208.5 46.8376 C207.41 44.9581 204.466 41.8927 202.567 40.838 C195.923 37.1479 187.462 35 179 35 C161.675 35 132.099 41.8062 91.3943 53.7342 C76.3712 58.1366 60.4258 49.3671 56.1639 34.3035 L13.9717 -114.824 C9.4792 -130.703 18.8159 -147.003 34.679 -151.55 C119.45 -175.85 192.8 -188 254 -188 C405 -188 483 -125 510 -5 L623.997 538.162 C626.7 551.039 640.199 562 653.357 562 L734.016 562 C746.93 562 760.437 572.799 763.28 585.396 L800.74 751.396 C805.187 771.105 791.68 788 771.476 788 L689.369 788 C682.746 788 678.394 793.574 680 800 L683 812 L683 812 Z " />
<glyph glyph-name="circumflex" unicode="&#x2c6;" horiz-adv-x="748" d="M109.253 1055.89 L363.56 1193.2 C370.272 1196.83 385.682 1196.74 392.354 1193.05 L638.46 1056.68 C659.964 1044.76 683 1058.34 683 1082.92 L683 1269.33 C683 1277.86 675.004 1291.43 667.54 1295.57 L392.354 1448.05 C385.682 1451.74 370.272 1451.83 363.56 1448.2 L80.7468 1295.5 C73.0987 1291.37 65 1277.8 65 1269.1 L65 1082.29 C65 1057.87 87.7597 1044.29 109.253 1055.89 L109.253 1055.89 Z " />
<glyph glyph-name="caron" unicode="&#x2c7;" horiz-adv-x="742" d="M77.7468 656.498 L360.56 503.796 C367.272 500.173 382.682 500.257 389.354 503.953 L664.54 656.434 C672.004 660.57 680 674.141 680 682.675 L680 869.079 C680 893.664 656.964 907.236 635.46 895.32 L389.354 758.953 C382.682 755.257 367.272 755.173 360.56 758.796 L106.253 896.106 C84.7597 907.711 62 894.135 62 869.708 L62 682.896 C62 674.204 70.0987 660.627 77.7468 656.498 L77.7468 656.498 Z " />
<glyph glyph-name="ring" unicode="&#x2da;" horiz-adv-x="534" d="M65 1283 C65 1171 157 1080 268 1080 C379 1080 471 1171 471 1283 C471 1394 379 1485 268 1485 C157 1485 65 1394 65 1283 L65 1283 Z M269 1219 C245 1219 213 1235 213 1278 C213 1321 248 1339 268 1339 C288 1339 326 1328 329 1278 C329 1235 294 1219 269 1219 L269 1219 Z " />
<glyph glyph-name="ogonek" unicode="&#x2db;" horiz-adv-x="428" d="M236 -67 C252.667 -67 271.417 -72.5556 286.463 -85.4028 C290.854 -89.1518 299.891 -89.5001 304.14 -85.5911 L352.03 -41.5325 C363.351 -31.1171 363.241 -17.1079 351.35 -7.34797 C320.047 18.3456 279.725 34 236 34 C137 34 58 -45 58 -145 C58 -244 137 -324 236 -324 C279.725 -324 319.366 -308.346 350.432 -282.652 C362.278 -272.854 362.48 -258.731 351.399 -248.076 L299.953 -198.608 C295.912 -194.723 286.458 -195.188 282.093 -198.704 C266.962 -210.891 248.241 -215 235 -215 C212 -215 168 -192 168 -142 C168 -87 207 -67 236 -67 L236 -67 Z " />
<glyph glyph-name="tilde" unicode="&#x2dc;" horiz-adv-x="1033" d="M934.091 1321.2 L924.443 1327.8 C919.266 1331.34 902.135 1333.51 896.143 1331.65 C858.203 1319.89 796.625 1313.88 696 1327 L378 1364 C331 1370 288 1372 249 1371 C184 1368 117 1358 112 1317 L87.2534 1119.94 C86.1535 1111.19 92.5841 1096.69 99.8158 1091.63 L111.372 1083.54 C116.883 1079.68 135.09 1078.09 141.467 1080.23 C183.344 1094.31 249.625 1104.38 345 1093 L663 1053 C784 1038 849 1050 885 1065 C904.25 1073.25 916.778 1084.02 923.354 1096.54 C923.875 1097.54 925.371 1103.26 925.498 1104.38 L946.958 1293.05 C947.954 1301.81 941.364 1316.22 934.091 1321.2 L934.091 1321.2 Z " />
<glyph glyph-name="pi" unicode="&#x3c0;" horiz-adv-x="1337" d="M1133 38 L1133 607 C1133 623.559 1146.44 637 1163 637 L1224 637 C1240.56 637 1254 650.441 1254 667 L1254 909 C1254 925.559 1240.56 939 1224 939 L197 939 C180.441 939 167 925.559 167 909 L167 667 C167 650.441 180.441 637 197 637 L254 637 C270.559 637 284 623.559 284 607 L284 347 C284 295 255 278 213 278 C187 278 138 293 138 293 C138 293 136.039 279.676 134.269 267.651 L106.752 80.6986 C105.364 71.2652 96.2348 67.1335 104.188 61.8746 C109.077 58.6425 208.6 -6 349 -6 C565 -6 604 104 604 280 L604 607 C604 623.559 617.441 637 634 637 L783 637 C799.559 637 813 623.559 813 607 L813 38 C813 21.4409 826.441 8 843 8 L1103 8 C1119.56 8 1133 21.4409 1133 38 L1133 38 Z " />
<glyph glyph-name="endash" unicode="&#x2013;" horiz-adv-x="1100" d="M936.094 644 L164.81 644 C148.356 644 134.915 630.644 134.811 614.19 L133.191 359.118 C133.086 342.494 146.494 328.968 163.119 328.928 L936.833 327.072 C953.484 327.032 966.957 340.516 966.905 357.167 L966.094 614.095 C966.042 630.601 952.601 644 936.094 644 L936.094 644 Z " />
<glyph glyph-name="emdash" unicode="&#x2014;" horiz-adv-x="1314" d="M1151.09 644 L164.81 644 C148.356 644 134.915 630.644 134.811 614.19 L133.191 359.133 C133.086 342.501 146.501 328.974 163.134 328.943 L1151.85 327.057 C1168.49 327.026 1181.96 340.509 1181.9 357.152 L1181.09 614.095 C1181.04 630.601 1167.6 644 1151.09 644 L1151.09 644 Z " />
<glyph glyph-name="quoteleft" unicode="&#x2018;" horiz-adv-x="417" d="M257 949 L168.713 949 C158.022 949 144.449 939.628 140.66 929.631 L41.874 668.945 C41.5203 668.012 39.9432 659.71 39.93 658.712 L38.4026 543.397 C38.1804 526.62 51.6216 513 68.4 513 L257 513 C273.559 513 287 526.441 287 543 L287 919 C287 935.559 273.559 949 257 949 L257 949 Z " />
<glyph glyph-name="quoteright" unicode="&#x2019;" horiz-adv-x="419" d="M164 513 L251.354 513 C261.998 513 275.573 522.342 279.375 532.283 L379.094 793.016 C379.457 793.965 381.057 802.32 381.071 803.335 L382.597 918.603 C382.82 935.38 369.378 949 352.6 949 L164 949 C147.441 949 134 935.559 134 919 L134 543 C134 526.441 147.441 513 164 513 L164 513 Z " />
<glyph glyph-name="quotesinglbase" unicode="&#x201a;" horiz-adv-x="419" d="M164 -211 L251.354 -211 C261.998 -211 275.573 -201.658 279.375 -191.717 L379.093 69.0149 C379.456 69.9639 381.057 78.3208 381.07 79.3368 L382.6 195.605 C382.821 212.381 369.38 226 352.603 226 L164 226 C147.441 226 134 212.559 134 196 L134 -181 C134 -197.559 147.441 -211 164 -211 L164 -211 Z " />
<glyph glyph-name="quotedblleft" unicode="&#x201c;" horiz-adv-x="809" d="M321 766 L276.817 766 C271.423 766 268.922 770.28 272.632 774.194 C284.453 786.668 304.817 800.145 335.261 817.084 C349.405 824.953 354.493 843.153 346.853 857.422 L305.901 933.906 C298.496 947.735 279.788 952.485 265.588 945.82 C204.188 917 160.875 885.5 139 854 C113 816 99 767 99 706 L99 557 C99 540.441 112.441 527 129 527 L321 527 C337.559 527 351 540.441 351 557 L351 736 C351 752.559 337.559 766 321 766 L321 766 Z M660 766 L617.548 766 C612.145 766 609.657 770.279 613.192 774.363 C624.384 787.293 644.323 801.908 675.471 817.594 C689.467 824.643 695.353 842.699 688.086 856.583 L647.956 933.248 C640.542 947.412 621.421 952.125 607.01 945.205 C544.625 915.25 502.625 884.625 479 854 C478.94 853.923 477.268 851.213 477.217 851.129 C454.259 813.543 440 765.475 440 706 L440 557 C440 540.441 453.441 527 470 527 L660 527 C676.559 527 690 540.441 690 557 L690 736 C690 752.559 676.559 766 660 766 L660 766 Z " />
<glyph glyph-name="quotedblright" unicode="&#x201d;" horiz-adv-x="808" d="M488 720 L531.489 720 C537.147 720 539.935 715.581 536.04 711.477 C523.888 698.672 503.831 685.503 473.101 668.279 C458.847 660.289 453.591 641.87 461.392 627.511 L502.887 551.136 C510.397 537.312 529.23 532.698 543.412 539.51 C604.812 569 648.125 600.5 670 632 C695 669 710 719 710 779 L710 928 C710 944.559 696.559 958 680 958 L488 958 C471.441 958 458 944.559 458 928 L458 750 C458 733.441 471.441 720 488 720 L488 720 Z M148 720 L190.023 720 C195.769 720 198.514 715.7 194.808 711.308 C183.617 698.048 163.677 683.74 132.529 667.768 C118.378 660.512 112.711 642.367 120.172 628.323 L160.832 551.787 C168.353 537.629 187.598 533.059 201.988 540.125 C264.359 570.75 306.25 601.375 329 632 C354 669 368 719 368 779 L368 928 C368 944.559 354.559 958 338 958 L148 958 C131.441 958 118 944.559 118 928 L118 750 C118 733.441 131.441 720 148 720 L148 720 Z " />
<glyph glyph-name="quotedblbase" unicode="&#x201e;" horiz-adv-x="808" d="M164 -211 L251.354 -211 C261.998 -211 275.573 -201.658 279.375 -191.717 L379.093 69.0149 C379.456 69.9639 381.057 78.3208 381.07 79.3368 L382.6 195.605 C382.821 212.381 369.38 226 352.603 226 L164 226 C147.441 226 134 212.559 134 196 L134 -181 C134 -197.559 147.441 -211 164 -211 L164 -211 Z M504 -211 L591.354 -211 C601.998 -211 615.573 -201.658 619.375 -191.717 L719.093 69.0149 C719.456 69.9639 721.057 78.3208 721.07 79.3368 L722.6 195.605 C722.821 212.381 709.38 226 692.603 226 L504 226 C487.441 226 474 212.559 474 196 L474 -181 C474 -197.559 487.441 -211 504 -211 L504 -211 Z " />
<glyph glyph-name="dagger" unicode="&#x2020;" horiz-adv-x="846" d="M809.094 644 L601 644 C584.441 644 571 657.441 571 674 L571 1060 C571 1076.56 557.559 1090 541 1090 L304 1090 C287.441 1090 274 1076.56 274 1060 L274 674 C274 657.441 260.559 644 244 644 L37.8101 644 C21.3562 644 7.9152 630.644 7.81073 614.19 L6.19097 359.078 C6.08556 342.476 19.4761 328.95 36.0784 328.888 L244.112 328.112 C260.609 328.05 274 314.609 274 298.112 L274 -107 C274 -123.559 287.441 -137 304 -137 L541 -137 C557.559 -137 571 -123.559 571 -107 L571 297 C571 313.559 584.441 327 601 327 L809.905 327 C826.517 327 839.957 340.483 839.905 357.095 L839.094 614.095 C839.042 630.601 825.601 644 809.094 644 L809.094 644 Z " />
<glyph glyph-name="bullet" unicode="&#x2022;" horiz-adv-x="522" d="M63 437 C63 330 154 239 262 239 C370 239 460 330 460 437 C460 546 370 636 262 636 C154 636 63 546 63 437 L63 437 Z " />
<glyph glyph-name="ellipsis" unicode="&#x2026;" horiz-adv-x="1338" d="M113 145 C113 64 179 1 257 1 C336 1 400 64 400 145 C400 224 336 288 257 288 C179 288 113 224 113 145 L113 145 Z M525 145 C525 64 591 1 669 1 C748 1 812 64 812 145 C812 224 748 288 669 288 C591 288 525 224 525 145 L525 145 Z M937 145 C937 64 1003 1 1081 1 C1159 1 1225 64 1225 145 C1225 224 1159 288 1081 288 C1003 288 937 224 937 145 L937 145 Z " />
<glyph glyph-name="perthousand" unicode="&#x2030;" horiz-adv-x="1626" d="M171.481 -1 L420.856 -1 C427.581 -1 440.999 5.77332 444.993 11.1844 L1082.71 875.184 C1098.38 896.419 1084.96 923 1058.57 923 L810.131 923 C803.415 923 789.998 916.233 786.006 910.832 L147.357 46.8325 C131.663 25.601 145.079 -1 171.481 -1 L171.481 -1 Z M169 582 C247 504 371 504 449 582 C526 659 525 787 449 863 C373 942 245 942 169 863 C92 786 91 660 169 582 L169 582 Z M781 57 C859 -21 984 -21 1062 57 C1136 134 1137 260 1062 338 C981 417 861 416 781 338 C704 261 705 133 781 57 L781 57 Z M1260 57 C1335 -21 1462 -22 1541 57 C1614 136 1615 258 1541 338 C1460 417 1338 416 1260 338 C1181 262 1182 132 1260 57 L1260 57 Z " />
<glyph glyph-name="guilsinglleft" unicode="&#x2039;" horiz-adv-x="553" d="M180.513 793.188 L28.7147 510.373 C25.1405 503.714 25.2241 488.331 28.8704 481.711 L180.448 206.526 C184.583 199.019 198.156 191 206.725 191 L413.079 191 C437.664 191 451.236 214.036 439.32 235.54 L302.953 481.646 C299.257 488.318 299.173 503.728 302.796 510.44 L440.106 764.747 C451.711 786.24 438.135 809 413.708 809 L206.946 809 C198.218 809 184.641 800.878 180.513 793.188 L180.513 793.188 Z " />
<glyph glyph-name="guilsinglright" unicode="&#x203a;" horiz-adv-x="553" d="M112.894 764.747 L250.204 510.44 C253.827 503.728 253.743 488.318 250.047 481.646 L113.68 235.54 C101.764 214.036 115.336 191 139.921 191 L345.325 191 C353.859 191 367.43 198.996 371.566 206.46 L524.047 481.646 C527.743 488.318 527.827 503.728 524.204 510.44 L371.502 793.253 C367.373 800.901 353.796 809 345.104 809 L139.292 809 C114.865 809 101.289 786.24 112.894 764.747 L112.894 764.747 Z " />
<glyph glyph-name="fraction" unicode="&#x2044;" horiz-adv-x="1014" d="M956.056 974 L695.532 974 C688.531 974 675.076 967.033 671.035 961.316 L33.4462 59.3165 C18.3708 37.9893 31.8266 12 57.9439 12 L318.468 12 C325.469 12 338.924 18.9666 342.965 24.6835 L980.554 926.684 C995.629 948.011 982.173 974 956.056 974 L956.056 974 Z " />
<glyph glyph-name="Euro" unicode="&#x20ac;" horiz-adv-x="986" d="M58.0474 495.53 L77.4232 487.932 C83.7878 485.436 90.247 476.332 90.5 469.5 C90.7626 462.411 84.9741 453.798 78.3112 451.364 L58.7042 444.2 C48.4886 440.467 39 426.898 39 416.022 L39 361.048 C39 348.756 49.3927 335.229 61.2701 332.061 L98.4699 322.141 C105.18 320.352 116.577 310.442 119.016 303.94 C187.019 122.68 363.25 1 568 1 C700.275 1 817.149 54.0488 904.375 138.777 C917.043 151.082 915.63 168.442 902.509 180.264 L745.885 321.38 C735.522 330.718 710.403 328.011 699.549 319.248 C659.967 287.293 608.9 273 566 273 C530.525 273 490.966 285.251 457.431 310.315 C447.735 317.562 450.957 329.682 462.975 331.13 L576.589 344.818 C591.062 346.562 603 360.024 603 374.602 L603 417.357 C603 433.15 590.164 446.594 574.387 447.325 L400.486 455.376 C393.05 455.72 387 462.056 387 469.5 C387 476.944 393.05 483.28 400.486 483.624 L574.387 491.675 C590.164 492.406 603 505.85 603 521.643 L603 565.294 C603 579.936 591.017 593.397 576.473 595.092 L467.392 607.807 C454.777 609.278 451.123 621.844 461.27 629.481 C495.752 655.429 534.3 667 564 667 C602.25 667 650.615 655.44 692.514 621.88 C703.735 612.892 725.495 612.997 735.883 622.936 L900.771 780.689 C913.183 792.564 913.722 810.231 901.392 822.191 C814.304 906.663 698.425 958 568 958 C355.45 958 176.172 825.863 112.656 635.738 C110.333 628.785 99.0315 618.53 91.9637 616.584 L61.0356 608.068 C49.309 604.839 39 591.307 39 579.144 L39 523.46 C39 512.946 48.2595 499.369 58.0474 495.53 L58.0474 495.53 Z " />
<glyph glyph-name="trademark" unicode="&#x2122;" horiz-adv-x="958" d="M380 948 L110.716 948 C94.3142 948 80.8732 934.686 80.717 918.286 L80.2832 872.735 C80.1269 856.323 93.3212 842.756 109.731 842.454 L159.69 841.538 C175.864 841.241 189.063 827.862 189.14 811.686 L189.859 660.587 C189.937 644.257 203.257 630.879 219.586 630.731 L269.727 630.275 C286.436 630.123 300 643.564 300 660.274 L300 811.271 C300 827.68 313.319 841.121 329.727 841.27 L380.273 841.73 C396.681 841.879 410 855.32 410 871.729 L410 918 C410 934.559 396.559 948 380 948 L380 948 Z M671.938 713.6 L690 735.5 C704.048 752.533 730 743.212 730 721.133 L730 660 C730 643.441 743.441 630 760 630 L795 630 C811.559 630 825 643.441 825 660 L825 916.311 C825 932.697 811.698 946.139 795.312 946.309 L743.355 946.85 C737.185 946.915 723.799 940.68 719.878 935.915 L671.934 877.653 C659.945 863.085 639.419 862.532 626.664 876.434 L570.172 938.003 C566.371 942.147 553.058 947.833 547.436 947.714 L495.369 946.618 C479.162 946.277 466 932.835 466 916.625 L466 660 C466 643.441 479.441 630 496 630 L531 630 C547.559 630 561 643.441 561 660 L561 718.178 C561 742.741 588.894 753.599 605.5 735.5 L626.689 712.406 C639.432 698.517 659.945 699.059 671.938 713.6 L671.938 713.6 Z " />
<glyph glyph-name="partialdiff" unicode="&#x2202;" horiz-adv-x="875" d="M207.122 665.114 C210.277 668.061 274.7 727 380 727 C466.025 727 517.825 676.518 543.315 587.426 C545.934 578.269 537.13 570.439 528.341 574.11 C495.589 587.791 461.475 598 426 598 C199 598 67 478 67 277 C67 119 189 5 377 5 C689 5 809 261 809 533 C809 778 677 950 421 950 C237 950 123 874 123 874 C123 874 125.918 866.741 132.093 851.376 L190.491 706.076 C198.894 685.168 190.654 649.734 207.122 665.114 L207.122 665.114 Z M526.708 361.05 C503.531 277.626 462.6 228 396 228 C353 228 325 264 325 311 C325 373 357 413 412 413 C448.3 413 481.878 404.152 512.733 390.948 C523.996 386.128 529.988 372.854 526.708 361.05 L526.708 361.05 Z " />
<glyph glyph-name="Delta" unicode="&#x2206;" horiz-adv-x="1047" d="M1001.62 40.6031 L699.982 933.335 C696.316 944.186 682.642 953.872 671.189 953.73 L390.779 950.257 C380.042 950.124 366.587 940.556 362.937 930.457 L41.5287 41.1974 C33.9868 20.3307 47.5546 1 69.7424 1 L973.197 1 C995.057 1 1008.62 19.8936 1001.62 40.6031 L1001.62 40.6031 Z M550.188 464.153 L608.891 287.458 C615.758 266.789 602.201 248 580.421 248 L461.842 248 C439.968 248 426.409 266.912 433.429 287.628 L493.305 464.323 C502.859 492.515 540.803 492.402 550.188 464.153 L550.188 464.153 Z " />
<glyph glyph-name="summation" unicode="&#x2211;" horiz-adv-x="1077" d="M593 308 L710.646 352.654 C720.633 356.445 730 370.019 730 380.701 L730 582.749 C730 593.815 720.391 607.379 709.952 611.05 L593.5 652 C568.36 660.841 575.044 700.243 601.693 700.298 L913.062 700.938 C929.587 700.972 943 714.413 943 730.938 L943 898.074 C943 914.592 929.592 928.033 913.074 928.074 L165.074 929.926 C148.474 929.967 135 916.526 135 899.926 L135 599.987 C135 589.105 144.492 575.536 154.715 571.805 L334.599 506.154 C361.806 496.224 362.238 460.635 335.28 450.048 L153.034 378.475 C143.255 374.635 134 361.057 134 350.551 L134 30.0739 C134 13.4741 147.474 0.0331464 164.074 0.0739823 L916.163 1.92414 C933.13 1.96588 946.62 14.4504 946.159 31.412 C944.136 105.905 943.255 169.106 943.049 226.602 C942.99 243.033 929.555 254.055 913.123 254.123 L602.535 255.398 C573.523 255.517 565.875 297.705 593 308 L593 308 Z " />
<glyph glyph-name="infinity" unicode="&#x221e;" horiz-adv-x="1234" d="M466 744 C416 775 365 786 317 786 C246 786 185 761.5 138 706.5 C89 650.5 66 581 66 494 C66 405 90 335 140 279 C186 229 250 200 317 200 C365 200 418 214 466 242 C490.75 256.025 518.223 276.856 543.364 300.002 C551.105 307.128 563.936 308.717 570.727 300.68 C646.095 211.467 741.95 151 836 151 C922 151 996 185 1054 245 C1111 309 1142 391 1142 494 C1142 597 1110 679 1054 742 C997 801 920 837 836 837 C737.2 837 645.62 781.947 569.834 688.133 C563.188 679.905 550.398 680.859 542.672 688.082 C518.408 710.768 493.225 728.825 466 744.5 L466 744 Z M778.404 598.523 C802.29 613.508 821.645 621 841 621 C863 621 883.5 609.5 898.5 593.5 C918.5 568.5 927 537 927 497 C927 460.925 917.494 425.801 903.116 400.895 C903.004 400.702 900.844 397.55 900.703 397.378 C886.602 380.224 864.182 368 838 368 C819 368 806 372 791 379 C775.727 386.636 765.01 397.006 753.631 408.37 C753.573 408.427 750.983 411.237 750.931 411.3 C739.336 425.436 721.501 448.084 702.546 475.148 C696.051 484.423 695.851 501.608 702.596 510.703 C730.765 548.688 756.135 579.447 774.406 595.612 C774.573 595.759 778.216 598.405 778.404 598.523 L778.404 598.523 Z M353.641 426.809 C347.782 422.502 337.267 421 326 421 C298 421 275 447 275 498 C275 546 298 572 326 572 C351.375 572 382.109 552.859 416.193 515.248 C424.636 505.931 425.059 491.125 416.581 481.84 C395.718 458.993 376.763 440.891 360.18 431.258 C360.126 431.226 353.691 426.846 353.641 426.809 L353.641 426.809 Z " />
<glyph glyph-name="integral" unicode="&#x222b;" horiz-adv-x="776" d="M234 160 C230 119 215 91 187 91 C146 91 90 122 90 122 C90 122 84.1205 106.298 78.7771 92.0284 L13.6599 -81.8729 C8.9195 -94.5326 -6.42825 -98.1038 5.14569 -105.088 C8.92625 -107.37 86 -153 203 -153 C364 -153 479 -77 496 145 L541 773 C545 813 563 842 588 842 C631 842 686 811 686 811 C686 811 691.855 826.567 697.113 840.547 L762.275 1013.8 C767.053 1026.51 782.484 1030.1 770.851 1037.09 C766.975 1039.42 688 1086 571 1086 C410 1086 298 1010 280 788 L234 160 L234 160 Z " />
<glyph glyph-name="approxequal" unicode="&#x2248;" horiz-adv-x="1059" d="M948.012 803.255 L937.545 810.417 C932.696 813.734 915.518 815.829 909.855 814.266 C871.438 803.656 810.625 796.875 710 810 L392 847 C344 852 301 855 263 854 C195 851 132 839 126 800 L101.285 602.28 C100.16 593.281 106.753 578.767 114.269 573.693 L125.829 565.891 C131.076 562.349 149.397 560.961 155.424 562.9 C197.109 576.312 262.625 586.375 358 575 L677 535 C798 520 863 532 898 548 C917.25 556.25 930.618 567.021 936.564 578.772 C937.018 579.67 938.324 584.732 938.442 585.732 L960.863 774.966 C961.908 783.786 955.342 798.24 948.012 803.255 L948.012 803.255 Z M948.012 403.255 L938.289 409.907 C933.15 413.424 915.81 415.471 909.855 413.648 C871.438 401.891 810.625 395.875 710 409 L392 446 C344 452 301 454 263 453 C195 450 131 440 126 399 L101.253 201.944 C100.154 193.185 106.584 178.691 113.816 173.629 L125.372 165.54 C130.898 161.671 149.033 160.071 155.424 162.23 C197.109 176.312 262.625 186.375 358 175 L677 135 C798 120 863 132 898 147 C917.32 155.28 930.715 166.099 936.628 178.679 C936.989 179.447 938.299 184.525 938.399 185.367 L960.863 374.966 C961.908 383.786 955.342 398.24 948.012 403.255 L948.012 403.255 Z " />
<glyph glyph-name="notequal" unicode="&#x2260;" horiz-adv-x="652" d="M62 529 L211.404 529 C228.239 529 238.439 514.253 232.5 498.5 L228.321 487.416 C224.54 477.388 210.967 468 200.25 468 L62 468 C45.4409 468 32 454.559 32 438 L32 278 C32 261.441 45.4409 248 62 248 L93.3191 248 C115.823 248 129.398 228.234 121.319 207.231 L67.6805 67.7694 C59.6023 46.7659 73.1774 27 95.6809 27 L233.396 27 C244.011 27 257.586 36.3234 261.396 46.2306 L331.604 228.769 C335.414 238.677 348.989 248 359.604 248 L597 248 C613.559 248 627 261.441 627 278 L627 438 C627 454.559 613.559 468 597 468 L455.596 468 C438.761 468 428.561 482.747 434.5 498.5 L438.679 509.584 C442.46 519.612 456.033 529 466.75 529 L597 529 C613.559 529 627 542.441 627 559 L627 720 C627 736.559 613.559 750 597 750 L574.714 750 C552.199 750 538.624 769.781 546.721 790.789 L589.279 901.211 C597.376 922.219 583.801 942 561.286 942 L423.589 942 C412.985 942 399.409 932.683 395.596 922.789 L336.404 769.211 C332.591 759.317 319.015 750 308.411 750 L62 750 C45.4409 750 32 736.559 32 720 L32 559 C32 542.441 45.4409 529 62 529 L62 529 Z " />
<glyph glyph-name="lessequal" unicode="&#x2264;" horiz-adv-x="610" d="M503.528 240.73 L348.92 459.16 C342.776 467.84 342.553 484.313 348.46 493.156 L474.829 682.336 C489.136 703.754 475.64 729 449.883 729 L247.038 729 C239.677 729 226.18 721.785 222.092 715.664 L73.2909 492.903 C67.5027 484.238 67.6109 467.836 73.513 459.248 L196.705 279.992 C211.396 258.615 197.919 233 171.981 233 L93.7357 233 C77.3231 233 63.8821 219.677 63.7369 203.265 L62.2666 37.1307 C62.1195 20.4996 75.5 6.93973 92.1315 6.86548 L479.734 5.13512 C496.439 5.06054 509.941 18.5609 509.867 35.2664 L509.042 223.53 C509.028 226.531 505.262 238.28 503.528 240.73 L503.528 240.73 Z " />
<glyph glyph-name="greaterequal" unicode="&#x2265;" horiz-adv-x="610" d="M132.267 5.13542 L518.869 6.86518 C535.5 6.9396 548.881 20.4995 548.733 37.1304 L547.263 203.265 C547.118 219.677 533.677 233 517.264 233 L439.826 233 C413.926 233 400.445 258.536 415.054 279.922 L537.569 459.266 C543.422 467.835 543.507 484.223 537.743 492.852 L388.908 715.664 C384.82 721.785 371.323 729 363.962 729 L161.117 729 C135.36 729 121.864 703.754 136.171 682.336 L262.574 493.106 C268.457 484.298 268.257 467.839 262.162 459.177 L108.424 240.708 C106.712 238.275 102.972 226.55 102.959 223.575 L102.133 35.2667 C102.059 18.561 115.561 5.06068 132.267 5.13542 L132.267 5.13542 Z " />
<glyph glyph-name="uniF8FF" unicode="&#xf8ff;" d="" />
</font>
</svg>
