<svg xmlns="http://www.w3.org/2000/svg" viewBox="0 0 194.05 246.88"><defs><style>.cls-1{fill:#fff;}</style></defs><g id="圖層_2" data-name="圖層 2"><g id="logo"><path class="cls-1" d="M97,0A97,97,0,0,0,19.69,155.62C37.41,179,97,246.88,97,246.88s59.61-67.91,77.33-91.26A97,97,0,0,0,97,0Zm.19,169.59a73.9,73.9,0,1,1,73.9-73.9A73.9,73.9,0,0,1,97.22,169.59Z"/><path class="cls-1" d="M150.67,47.66s.86,5.16-1.61,8.68-8.93,13-11.18,15.73-17.3,20.5-33.58,32.74a67.14,67.14,0,0,0,6.13-27.55Z"/><path class="cls-1" d="M74.28,105.83c-1.18-2.17-8.14-6.38-13.63-5.75-5,.57-18.16,7.1-22.26,13.93-1.69-.37-4.26-1.36-4.36-3.92s-5.42-3.6-4.89,1c.44,3.87,3,8.21,7.86,8.14,0,7.19,6.43,16,15.69,16.95,10.75,1.09,29.68-11.45,29.68-11.45l.29-14.21C79.87,109.63,75.45,108,74.28,105.83Zm-11.9,20.49c-6.21,3.36-13.12,2.58-15.45-1.72s.81-10.51,7-13.87,13.13-2.59,15.46,1.72S68.6,123,62.38,126.32Z"/><path class="cls-1" d="M86.67,97.1a8.88,8.88,0,0,1,16.58,4.4,9.13,9.13,0,0,1-.32,2.35,99.88,99.88,0,0,0,4.3-17.7l2.42-58.8s-6.16,3.34-7.73,8.24-15.22,49-15,54.54C86.91,91.21,86.81,93.7,86.67,97.1Z"/><path class="cls-1" d="M120.48,140.43a21.44,21.44,0,0,0-1.14-6.47c-2.12-5.42-7.12-12.93-14.88-13-4.61-.07-6.32-.35-6.77-2.93s1.19-6,2.14-7.36a25.62,25.62,0,0,0,2.64-5.53,8.87,8.87,0,0,1-16.12.19c-.29,7.94-.54,17.75-.26,26.57,0,0-.12,27.76-.12,28.83H96.7c0-1.31-.11-21.7,0-22.92h0c.48-5,2.8-6.61,6-7,4.09-.48,7.14,2.68,8,9.69v20.21l9.86,3.34V140.42Z"/><circle class="cls-1" cx="94.37" cy="101.5" r="5.8"/></g></g></svg>